<?xml version="1.0" encoding="UTF-8" standalone="no"?>
<!-- Generator: Adobe Illustrator 18.1.1, SVG Export Plug-In . SVG Version: 6.00 Build 0)  -->

<svg
   xmlns:dc="http://purl.org/dc/elements/1.1/"
   xmlns:cc="http://creativecommons.org/ns#"
   xmlns:rdf="http://www.w3.org/1999/02/22-rdf-syntax-ns#"
   xmlns:svg="http://www.w3.org/2000/svg"
   xmlns="http://www.w3.org/2000/svg"
   xmlns:sodipodi="http://sodipodi.sourceforge.net/DTD/sodipodi-0.dtd"
   xmlns:inkscape="http://www.inkscape.org/namespaces/inkscape"
   version="1.1"
   id="Layer_1"
   x="0px"
   y="0px"
   viewBox="0 0 204.9 318.8"
   enable-background="new 0 0 204.9 318.8"
   xml:space="preserve"
   inkscape:version="0.91 r13725"
   sodipodi:docname="linuxchixarg_isologo.svg"
   inkscape:export-filename="/home/cynpy/desarrollo/linuxchix/logo/linuxchixarg.png"
   inkscape:export-xdpi="90"
   inkscape:export-ydpi="90"><metadata
     id="metadata6114"><rdf:RDF><cc:Work
         rdf:about=""><dc:format>image/svg+xml</dc:format><dc:type
           rdf:resource="http://purl.org/dc/dcmitype/StillImage" /><dc:title></dc:title></cc:Work></rdf:RDF></metadata><defs
     id="defs6112" /><sodipodi:namedview
     pagecolor="#ffffff"
     bordercolor="#666666"
     borderopacity="1"
     objecttolerance="10"
     gridtolerance="10"
     guidetolerance="10"
     inkscape:pageopacity="0"
     inkscape:pageshadow="2"
     inkscape:window-width="1366"
     inkscape:window-height="670"
     id="namedview6110"
     showgrid="false"
     inkscape:zoom="1.0513445"
     inkscape:cx="36.988812"
     inkscape:cy="145.11767"
     inkscape:window-x="0"
     inkscape:window-y="28"
     inkscape:window-maximized="1"
     inkscape:current-layer="Layer_1" /><g
     id="g5842"
     transform="matrix(0.84105603,0,0,0.84105603,21.995905,-0.03411652)"><path
       d="m 84.6,8.6 c 0,0 0.3,4 3.7,4 L 88.6,11 c 0,0 -2.5,-1.9 -0.3,-5.1 0.1,0 -3.7,0.4 -3.7,2.7 z"
       id="path5844"
       inkscape:connector-curvature="0"
       style="fill:#a5a9c6" /><path
       d="m 97.5,7.3 c 0,0 -0.9,1.9 0,3.1 l 2.2,2.2 0.7,-2.7 0.2,-3.5 c 0,-0.1 -2.5,-0.2 -3.1,0.9 z"
       id="path5846"
       inkscape:connector-curvature="0"
       style="fill:#a5a9c6" /><path
       d="m 93.1,7.5 c 0,-0.2 0,-0.4 0.1,-0.7 -0.5,-0.9 -1.5,-1.5 -2.6,-1.5 -1.7,0 -3.1,1.4 -3.1,3.1 0,1.7 1.3,3 2.9,3.1 1.2,-0.9 2.2,-2.2 2.7,-4 z"
       id="path5848"
       inkscape:connector-curvature="0"
       style="fill:#f4763b" /><path
       d="m 93.2,6.8 c 0,0.3 -0.1,0.5 -0.1,0.7 -0.6,1.9 -1.5,3.2 -2.7,4.1 0.1,0 0.1,0 0.2,0 1.7,0 3.1,-1.4 3.1,-3.1 0,-0.7 -0.2,-1.2 -0.5,-1.7 z"
       id="path5850"
       inkscape:connector-curvature="0"
       style="fill:#f89c6e" /><path
       d="m 104,6.7 c -0.5,-0.6 -1.2,-0.9 -1.9,-0.8 -1.2,0.2 -1.9,1.8 -1.6,3.5 0.2,1.2 1,2.2 1.8,2.6 1.3,-1.5 1.9,-3.3 1.7,-5.3 z"
       id="path5852"
       inkscape:connector-curvature="0"
       style="fill:#f4763b" /><path
       d="m 104.9,8.6 c -0.2,-0.8 -0.5,-1.4 -0.9,-1.9 0.2,2 -0.4,3.8 -1.6,5.3 0.3,0.1 0.6,0.2 1,0.1 1.1,-0.2 1.8,-1.8 1.5,-3.5 z"
       id="path5854"
       inkscape:connector-curvature="0"
       style="fill:#f89c6e" /><ellipse
       transform="matrix(0.8299,0.5579,-0.5579,0.8299,19.2686,-48.4615)"
       cx="89.099998"
       cy="7.4000001"
       rx="0.40000001"
       ry="0.89999998"
       id="ellipse5856"
       style="fill:#ffffff" /><ellipse
       transform="matrix(0.9908,0.135,-0.135,0.9908,1.9153,-13.6263)"
       cx="101.5"
       cy="7.3000002"
       rx="0.30000001"
       ry="0.80000001"
       id="ellipse5858"
       style="fill:#ffffff" /></g><path
     d="m 88.27112,59.764967 c 0,0 0.504634,-5.55097 -2.270851,-8.662877 0,0 0.420528,-4.79402 2.775485,-6.980765 0,0 1.009267,-3.700647 -0.672845,-6.055604 l 1.766218,-0.168211 c 0,0 1.429795,5.298653 1.5139,6.476132 0,0 5.046337,1.429795 8.999303,0.168211 0,0 -0.756954,-4.709914 -1.261587,-5.214548 l 3.280117,1.261585 c 0,0 3.28012,9.251616 3.78475,9.251616 0,0 -0.92516,4.709914 -3.95296,5.214547 l -3.027802,4.541703 c 0.08411,0 -10.429094,0 -10.933728,0.168211 z"
     id="path5860"
     inkscape:connector-curvature="0"
     style="fill:#666e9a" /><polygon
     points="98.1,71.1 95.5,70.3 95.5,65.5 97.7,65.6 "
     id="polygon5862"
     transform="matrix(0.84105603,0,0,0.84105603,21.995905,-0.03411652)"
     style="fill:#a5a9c6" /><polygon
     points="110,65.9 109,73 105.1,71.5 105.1,64.7 107.5,64.3 "
     id="polygon5864"
     transform="matrix(0.84105603,0,0,0.84105603,21.995905,-0.03411652)"
     style="fill:#a5a9c6" /><path
     d="m 83.645312,12.581724 c 0,0 -2.523168,-4.7099139 1.009267,-7.4012932 0,0 3.44833,-2.523168 4.037069,-2.523168 l 5.719181,-1.7662177 c 0,0 2.775485,-1.00926723 3.280119,0 l 1.766217,2.6913793 c 0,0 -3.952963,0.7569504 -5.298653,2.4390625 L 93.653879,4.7599028 91.971767,6.5261205 91.214816,5.348642 87.430064,12.245301 c 0.08411,0 -3.027802,2.943697 -3.784752,0.336423 z"
     id="path5866"
     inkscape:connector-curvature="0"
     style="fill:#a5a9c6" /><path
     d="m 73.889062,36.131293 c 0,0 9.672144,2.523168 10.008567,-3.700647 L 78.178448,18.300905 c 0,0 0.504633,-4.289386 4.96223,-3.952963 0,0 -1.177478,-2.270852 -3.280118,-2.523169 0,0 -6.476132,-0.252316 -4.962231,6.728449 0,0 4.962231,12.027101 4.037069,13.37279 0.08411,0 -1.850323,4.205281 -5.046336,4.205281 z"
     id="path5868"
     inkscape:connector-curvature="0"
     style="fill:#a5a9c6" /><path
     d="m 91.467133,44.373642 c 0,0 -0.420528,-4.541703 -1.513901,-6.055604 l 1.850323,-1.345689 c 0,0 0.925162,-2.775485 1.177479,-7.148977 0,0 -5.971498,-5.214547 -6.89666,-6.896659 0,0 -3.532435,1.429795 -6.980765,-2.943696 0,0 -1.177478,-5.803287 5.046337,-5.298653 l 6.560237,-8.8310883 1.429795,0.6728448 0.252317,1.1774784 1.093373,0.3364224 c 0,0 0.504633,3.7006467 5.466864,2.2708517 0,0 1.261588,-0.504634 2.270848,-1.7662181 l 2.77549,0.1682112 1.76622,1.5139009 c 0,0 -3.28012,4.541703 -0.42053,7.905927 l 1.26158,1.261584 -1.00927,6.728448 c 0,0 -2.18674,4.541702 -4.45759,5.803286 l -4.962233,-1.261584 c 0,0 -0.252317,9.167511 2.439062,8.9993 l 1.009267,0 0.756954,4.794019 c 0.0841,0 -4.121178,1.850323 -8.915197,-0.08411 z"
     id="path5870"
     inkscape:connector-curvature="0"
     style="fill:#fdd1b7" /><path
     d="m 106.43793,19.983017 c 0,0 -3.44833,1.513901 -5.04634,1.261584 0,0 -1.429791,-0.168211 -0.75695,-1.682112 0,0 2.69138,-2.439063 4.20528,-1.766218 -0.0841,0 2.43907,1.513901 1.59801,2.186746 z"
     id="path5872"
     inkscape:connector-curvature="0"
     style="fill:#fcc4a3" /><path
     d="m 78.178448,18.300905 c 0,0 2.186746,4.289386 4.709914,4.96223 0,0 3.196012,0.756951 3.196012,-0.504633 0,0 -1.682112,-5.971498 -1.5139,-7.485399 0,0 -4.962231,-0.75695 -6.392026,3.027802 z"
     id="path5874"
     inkscape:connector-curvature="0"
     style="fill:#fcc4a3" /><path
     d="m 102.9896,27.468416 -2.69138,0.420528 c 0,0 -2.523167,-1.429796 -2.523167,-2.270852 0,0 6.055607,-1.261584 6.896657,-0.420528 0,0 1.09338,2.270852 -1.68211,2.270852 z"
     id="path5876"
     inkscape:connector-curvature="0"
     style="fill:#f9a97e" /><path
     d="m 84.82279,14.936681 c 0,0 1.177479,10.681411 10.260884,13.96153 0,0 -7.990032,-5.298653 -6.980765,-16.737015 l -3.280119,2.775485 z"
     id="path5878"
     inkscape:connector-curvature="0"
     style="fill:#ffede2" /><path
     d="m 103.99887,19.057855 -2.43907,0.925162 c 0,0 -0.42052,-2.439063 0.42053,-4.794019 0,0 1.09338,3.868857 2.01854,3.868857 z"
     id="path5880"
     inkscape:connector-curvature="0"
     style="fill:#ffede2" /><path
     d="m 91.971767,15.188998 c 0,0 1.009267,2.186745 5.550969,1.429795 0,0 2.186746,-1.261584 0.672845,-2.270851 0,-0.08411 -4.457597,-2.270852 -6.223814,0.841056 z"
     id="path5882"
     inkscape:connector-curvature="0"
     style="fill:#ffffff" /><path
     d="M 70.188416,61.867607 80.365194,60.85834 c 0,0 5.971497,-1.261584 5.298652,-4.037069 l -1.429795,-7.905927 2.69138,-2.186745 1.934428,-3.027802 c 0,0 0.925162,-4.541703 -1.177478,-6.223815 0,0 -2.523168,-1.261584 -3.700647,-0.925161 0,0 -3.784752,1.934428 -6.392025,8.915193 l 0,0.925162 3.700646,5.55097 c 0,0 0.420528,1.513901 -2.018534,2.018534 l -3.280119,-4.794019 c 0.08411,0 -3.616541,12.111207 -5.803286,12.699946 z"
     id="path5884"
     inkscape:connector-curvature="0"
     style="fill:#fcc4a3" /><path
     d="m 72.879795,46.30807 2.018534,1.429796 4.457597,6.392026 c 0,0 2.439063,-1.009268 2.018535,-2.018535 l -4.037069,-5.466864 -0.504634,-2.943696 c 0,0 -2.691379,-0.504634 -3.952963,2.607273 z"
     id="path5886"
     inkscape:connector-curvature="0"
     style="fill:#a5a9c6" /><path
     d="m 84.318157,60.101389 c 0,0 1.513901,-1.682112 1.934429,-1.934429 l 0.504633,1.177479 -2.439062,0.75695 z"
     id="path5888"
     inkscape:connector-curvature="0"
     style="fill:#a5a9c6" /><g
     id="g5890"
     transform="matrix(0.84105603,0,0,0.84105603,21.995905,-0.03411652)"><path
       d="m 144.3,180.5 c -0.7,-11.9 -2.5,-23 -6,-29.8 0,0 -5.1,-18.3 -9.2,-19.6 l -14.8,10.2 c 0,0 -24.3,-3.6 -26.9,-5.4 0,0 -42.1,34.7 -37.6,99.1 0,0 22.4,22.1 31,41.9 41.6,-12.7 57.6,-64.8 63.5,-96.4 z"
       id="path5892"
       inkscape:connector-curvature="0"
       style="fill:#ffffff" /><path
       d="m 119.3,285.4 c 0,0 20.8,-27.5 23.5,-49.8 0,0 3.1,-29.5 1.5,-55 -5.9,31.6 -21.9,83.7 -63.6,96.4 1.3,2.9 2.2,5.8 2.8,8.5 0,-0.1 21.4,4.4 35.8,-0.1 z"
       id="path5894"
       inkscape:connector-curvature="0"
       style="fill:#d3d5e4" /></g><path
     d="m 72.795689,244.29266 c -2.270851,-0.42053 -4.625808,-1.34569 -7.148976,-2.77549 l -0.588739,4.3735 c 0,0 -12.615841,9.50393 -13.120474,10.68141 0,0 19.848922,7.06487 25.315786,10.68141 l 0,0 c -0.252317,-5.88739 -0.588739,-11.52247 -0.588739,-17.91449 -4.457597,0.0841 -4.121175,-2.10264 -3.868858,-5.04634 z"
     id="path5896"
     inkscape:connector-curvature="0"
     style="fill:#fab690" /><path
     d="m 86.757219,247.48867 -2.439062,-3.78475 c 0,0 -4.878125,2.01853 -11.522468,0.67284 -0.252317,2.9437 -0.588739,5.04634 3.868858,5.04634 0,6.39203 0.336422,12.0271 0.588739,17.91449 l 22.624407,-13.12047 -13.120474,-6.72845 z"
     id="path5898"
     inkscape:connector-curvature="0"
     style="fill:#f4763b" /><path
     d="m 118.0445,248.66615 9.16751,8.91519 c 0,0 29.68928,-2.43906 31.4555,-2.85959 l -22.5403,-14.21384 c -4.79402,1.93443 -9.92446,3.19601 -15.47543,3.95296 l -2.60728,4.20528 z"
     id="path5900"
     inkscape:connector-curvature="0"
     style="fill:#fab690" /><path
     d="m 130.82856,238.15295 -8.57878,3.78475 -1.598,2.52317 c 5.46686,-0.75695 10.5973,-2.01853 15.47543,-3.95296 l -0.16821,-0.0841 -5.13044,-2.27085 z"
     id="path5902"
     inkscape:connector-curvature="0"
     style="fill:#f4763b" /><g
     id="g5904"
     transform="matrix(0.84105603,0,0,0.84105603,21.995905,-0.03411652)"><path
       d="m 44.3,254.2 c -0.6,-6.5 0.3,-12.9 0.1,-19.5 -2.1,-0.1 -4.1,0.1 -5.7,0.5 1.6,6.4 1.8,12.9 3.2,19.2 0.7,-0.2 1.5,-0.2 2.4,-0.2 z"
       id="path5906"
       inkscape:connector-curvature="0"
       style="fill:#ffffff" /><path
       d="m 38.7,235.2 c -2.2,0.5 -3.6,1.1 -3.6,1.1 -1.8,7.7 4.8,19 4.8,19 0.6,-0.5 1.3,-0.8 2,-0.9 -1.4,-6.3 -1.6,-12.9 -3.2,-19.2 z"
       id="path5908"
       inkscape:connector-curvature="0"
       style="fill:#a5a9c6" /><path
       d="m 50.8,236.5 c -2.1,-1.2 -4.3,-1.7 -6.4,-1.8 0.2,6.6 -0.7,13 -0.1,19.5 3,0.2 6.4,2 9.3,3.9 2.2,-3.7 4.7,-7.3 7.5,-10.7 -5.8,-6.6 -10.3,-10.9 -10.3,-10.9 z"
       id="path5910"
       inkscape:connector-curvature="0"
       style="fill:#a5a9c6" /><path
       d="m 72.4,279.3 c 1.5,2.9 2.4,5 2.4,5 l 8.6,1.4 c -0.7,-2.7 -1.7,-5.3 -2.8,-8 -2.7,0.7 -5.4,1.1 -8.2,1.6 z"
       id="path5912"
       inkscape:connector-curvature="0"
       style="fill:#a5a9c6" /><path
       d="m 61,247.5 c -2.8,3.3 -5.3,6.9 -7.5,10.7 4.3,2.9 7.6,6.2 7.6,6.2 4.7,3.1 8.8,10.1 11.2,14.9 2.7,-0.4 5.5,-0.9 8.2,-1.5 C 75.7,266.1 67.6,255.2 61,247.5 Z"
       id="path5914"
       inkscape:connector-curvature="0"
       style="fill:#666e9a" /><path
       d="m 119.2,285.7 6.1,-1.8 c 0,0 19.5,-28.1 16.8,-41.5 l -1.1,0.2 c -0.1,0 -10.3,33.6 -21.8,43.1 z"
       id="path5916"
       inkscape:connector-curvature="0"
       style="fill:#666e9a" /><polygon
       points="62.8,267.6 63,273.5 60.1,271.4 59.1,265.1 "
       id="polygon5918"
       style="fill:#666e9a" /><path
       d="m 70,276.6 c 0.2,-1.6 -4.3,-7.7 -4.3,-7.7 l -2.3,-0.2 0.2,7.9 1.2,1.1 -0.5,0.7 c -2.5,0.2 -5.3,5.4 -5.3,5.4 L 57.7,276 c 0.8,-0.2 1.5,-0.5 1.9,-1 l -2,-12.5 c 0,0 -3.2,-6.3 -13.4,-7.5 l 0,1.8 1.8,2.7 0.6,2.7 2.2,1 c 0,0 0.8,11 2.4,12.1 0,0 1.3,0.4 3,0.6 l 1.3,8.7 -2,0.5 -0.2,2.7 c 3.6,3.4 16.1,2.9 16.1,2.9 L 69.2,285 70,276.6 Z"
       id="path5920"
       inkscape:connector-curvature="0"
       style="fill:#a5a9c6" /></g><polygon
     points="53.9,276.2 56.4,276.4 53.7,262.3 51.9,262.3 51.2,256.7 47.8,255.8 48.3,262.6 50.1,262.6 "
     id="polygon5922"
     transform="matrix(0.84105603,0,0,0.84105603,21.995905,-0.03411652)"
     style="fill:#ffffff" /><polygon
     points="54.8,285.7 57.1,286.4 56.7,289.3 54.8,288.9 "
     id="polygon5924"
     transform="matrix(0.84105603,0,0,0.84105603,21.995905,-0.03411652)"
     style="fill:#ffffff" /><polygon
     points="65.9,277.5 64.9,277.7 64.1,268.5 66.4,269.4 "
     id="polygon5926"
     transform="matrix(0.84105603,0,0,0.84105603,21.995905,-0.03411652)"
     style="fill:#ffffff" /><g
     id="g5928"
     transform="matrix(0.84105603,0,0,0.84105603,21.995905,-0.03411652)"><path
       d="m 36.1,99.8 1.3,11.4 -2,3.4 -1.4,43 0.8,3.2 c 8.1,-19.5 11.3,-41.7 1.3,-61 z"
       id="path5930"
       inkscape:connector-curvature="0"
       style="fill:#666e9a" /><path
       d="m 39,92.4 -3,7.3 0,0.2 c 0.4,0.7 0.7,1.4 1,2.1 0.5,-2.7 1.7,-5.3 3,-7.8 -0.6,-1.2 -1,-1.8 -1,-1.8 z"
       id="path5932"
       inkscape:connector-curvature="0"
       style="fill:#a5a9c6" /><path
       d="m 40.1,94.1 c -1.4,2.5 -2.5,5 -3,7.8 1.4,3 2.5,6.1 3.3,9.2 1.7,-1.4 3.5,-3.2 5.4,-4.8 -2,-5.8 -4.4,-10 -5.7,-12.2 z"
       id="path5934"
       inkscape:connector-curvature="0"
       style="fill:#ffffff" /><path
       d="m 45.8,106.4 c -1.9,1.6 -3.6,3.4 -5.4,4.8 2.3,8.6 2.4,17.5 1.1,26.4 2.2,0.7 4.3,1.8 6.4,3 2.8,-13.9 0.7,-25.8 -2.1,-34.2 z"
       id="path5936"
       inkscape:connector-curvature="0"
       style="fill:#a5a9c6" /><path
       d="m 41.5,137.5 c -1,6.8 -2.9,13.5 -5.3,20 -0.4,1.1 -0.9,2.3 -1.4,3.4 l 1.7,6.6 c 1.1,-1.7 2.2,-3.5 3.2,-5.2 4.3,-7.6 6.9,-14.9 8.3,-21.7 -2.2,-1.3 -4.3,-2.5 -6.5,-3.1 z"
       id="path5938"
       inkscape:connector-curvature="0"
       style="fill:#666e9a" /></g><path
     d="m 29.060776,160.7758 c 0,0 2.691379,-36.58594 20.185345,-69.387127 0,0 3.027801,5.55097 2.85959,7.990033 L 29.060776,160.7758 Z"
     id="path5940"
     inkscape:connector-curvature="0"
     style="fill:#ffffff" /><path
     d="m 59.338793,84.744331 -3.280119,-5.130442 5.55097,-14.886692 c 0,0 7.65361,-3.448329 18.082705,-3.61654 l -13.120474,17.57807 c 0,0 -7.821821,2.439063 -7.233082,6.055604 z"
     id="path5942"
     inkscape:connector-curvature="0"
     style="fill:#ffffff" /><path
     d="m 144.70598,125.36734 c 0,0 -5.71918,-15.64365 -9.50393,-18.83966 l 1.26158,-11.774782 -7.40129,-21.362823 -4.54171,-8.158244 c -6.64434,-5.887392 -35.660771,-5.55097 -35.660771,-5.55097 l -5.298653,0.58874 C 78.430765,61.362973 61.441433,80.791368 61.441433,80.791368 l -2.691379,3.784752 c 10.681411,30.86676 -3.44833,52.39779 -3.44833,52.39779 -6.476131,3.61654 -15.811853,33.13761 -15.811853,33.13761 l 9.419827,25.14757 c 0,2.27085 2.439063,4.20528 2.439063,4.20528 2.439062,-3.61654 12.363523,-2.27085 12.363523,-2.27085 -7.233082,-42.22101 27.838955,-80.99369 27.838955,-80.99369 -0.420528,-12.19532 22.876721,-23.465467 22.876721,-23.465467 11.69068,4.625808 17.15755,14.550267 19.17608,18.923757 l 0.0841,1.26159 c 0,0 12.0271,33.13761 9.92446,59.04213 l 0.42052,6.89666 c 0,0 1.93443,5.88739 3.28012,6.0556 -0.0841,0.0841 6.72845,-46.42629 -2.60727,-59.54676 z"
     id="path5944"
     inkscape:connector-curvature="0"
     style="fill:#001c58" /><g
     id="g5946"
     transform="matrix(0.84105603,0,0,0.84105603,21.995905,-0.03411652)"><path
       d="m 76.8,86.3 c -0.4,-1.1 -0.8,-2.2 -1.2,-3.2 -6.3,1.3 -11.4,5.6 -13.4,11.3 7.4,2.1 17.9,2.4 14.6,-8.1 z"
       id="path5948"
       inkscape:connector-curvature="0"
       style="fill:#ffffff" /><path
       d="m 79.6,82.7 c -1.4,0 -2.8,0.2 -4.1,0.4 0.5,1 0.9,2.1 1.2,3.2 3.2,10.5 -7.2,10.2 -14.7,8.1 -0.6,1.7 -1,3.5 -1,5.4 0,4.8 2.2,9.2 5.7,12.3 10.4,-5.8 18.7,-15.7 21.7,-27.3 -2.5,-1.3 -5.5,-2.1 -8.8,-2.1 z"
       id="path5950"
       inkscape:connector-curvature="0"
       style="fill:#a5a9c6" /><path
       d="m 88.5,84.8 c -3,11.6 -11.3,21.6 -21.7,27.3 3.3,2.9 7.7,4.8 12.7,4.8 2.6,-8.2 10.5,-13.3 18.6,-17.1 0,0 0,0 0,0 0,-6.5 -3.9,-12.1 -9.6,-15 z"
       id="path5952"
       inkscape:connector-curvature="0"
       style="fill:#7d84ab" /><path
       d="m 79.5,116.9 c 0,0 0.1,0 0.1,0 10.2,0 18.4,-7.6 18.5,-17.1 -8.1,3.8 -15.9,8.9 -18.6,17.1 z"
       id="path5954"
       inkscape:connector-curvature="0"
       style="fill:#a5a9c6" /><path
       d="m 127.6,91.8 c -4.3,-0.7 -8.5,-2.5 -12.8,-3.7 -0.9,3 -1.5,5.7 -1.6,8.1 5.2,-0.6 10.9,0.4 14.4,-4.4 z"
       id="path5956"
       inkscape:connector-curvature="0"
       style="fill:#ffffff" /><path
       d="m 128.7,93.1 -2.9,-7 c -2.5,-2.9 -9.7,-1.6 -9.7,-1.6 -0.5,1.2 -0.9,2.4 -1.2,3.5 4.3,1.2 8.5,3 12.8,3.7 -3.5,4.9 -9.1,3.9 -14.4,4.4 -0.5,6.4 1.4,10.9 4,14.1 4.9,-1.4 9.5,-3.4 13.5,-6.5 l -2.1,-10.6 z"
       id="path5958"
       inkscape:connector-curvature="0"
       style="fill:#a5a9c6" /><path
       d="m 130.6,103.7 c -4.1,3.1 -8.6,5.1 -13.5,6.5 2.1,2.5 4.6,4.1 6.7,5.1 2.9,-3.6 5,-7.3 6.9,-11.2 l -0.1,-0.4 z"
       id="path5960"
       inkscape:connector-curvature="0"
       style="fill:#7d84ab" /><path
       d="m 123.8,115.3 c 2.2,1 3.8,1.4 3.8,1.4 l 4.5,-5 -1.4,-7.6 c -1.9,3.9 -4,7.6 -6.9,11.2 z"
       id="path5962"
       inkscape:connector-curvature="0"
       style="fill:#a5a9c6" /></g><path
     d="m 129.9875,110.81707 0.50463,-0.33642 2.27085,0 c 0,0 -7.40129,-17.578076 -18.33502,-17.746287 0,0 -20.521764,12.531737 -23.633672,20.942297 13.036372,-0.75695 26.072742,-4.4576 39.193212,-2.85959 z"
     id="path5964"
     inkscape:connector-curvature="0"
     style="fill:#fab690" /><path
     d="m 90.794288,113.67666 c 0,0 0,0 0,0 0,0 4.20528,1.5139 7.569504,1.93443 0,0 17.746278,4.03707 19.091968,3.28012 l 12.44763,-8.07414 c -13.03637,-1.59801 -26.07273,2.10264 -39.109102,2.85959 z"
     id="path5966"
     inkscape:connector-curvature="0"
     style="fill:#f4763b" /><path
     d="m 111.40016,92.734363 c 0,0 6.47613,8.410557 8.15824,15.475427 0,0 -11.27015,-8.91519 -15.0549,-10.26088 l 6.89666,-5.214547 z"
     id="path5968"
     inkscape:connector-curvature="0"
     style="fill:#ffede2" /><ellipse
     cx="87.009537"
     cy="80.791367"
     rx="2.1026402"
     ry="3.0278015"
     id="ellipse5970"
     style="fill:#ffffff" /><ellipse
     cx="127.80076"
     cy="78.688728"
     rx="1.3456897"
     ry="2.2708514"
     id="ellipse5972"
     style="fill:#ffffff" /><path
     d="m 130.66034,90.631723 1.68212,1.009267 c 0,0 2.69138,0.168211 2.10264,-6.30792 0,0 -1.68212,-10.765517 -5.71919,-10.344989 0,0.08411 4.4576,15.727748 1.93443,15.643642 z"
     id="path5974"
     inkscape:connector-curvature="0"
     style="fill:#f4763b" /><path
     d="m 86.757219,90.295301 c 0,0 3.027802,3.280118 6.30792,1.682112 0,0 7.064871,-2.859591 5.130442,-9.75625 0,0 -1.177478,-3.280119 -3.784752,-3.784752 0,0 1.177479,10.5132 -7.65361,11.85889 z"
     id="path5976"
     inkscape:connector-curvature="0"
     style="fill:#f4763b" /><path
     d="m 95.335991,114.51771 c -0.756951,-0.0841 -1.429795,-0.0841 -1.934429,0 l 1.093373,0.0841 0.841056,-0.0841 z"
     id="path5978"
     inkscape:connector-curvature="0"
     style="fill:#2b165e" /><path
     d="m 71.618211,199.21206 c 0.168211,0.25231 0.252317,0.50463 0.252317,0.75695 0,0.75695 -0.58874,1.34569 -1.34569,1.34569 -0.504634,0 -0.925162,-0.33643 -1.177478,-0.75695 0.08411,0.58873 0.75695,1.09337 1.5139,1.09337 0.841056,0 1.513901,-0.58874 1.513901,-1.34569 0,-0.42053 -0.336422,-0.84106 -0.75695,-1.09337 z"
     id="path5980"
     inkscape:connector-curvature="0"
     style="fill:#2b165e" /><path
     d="m 81.290355,209.64115 c 0.168211,0.25232 0.252317,0.50463 0.252317,0.75695 0,0.75695 -0.588739,1.34569 -1.34569,1.34569 -0.504633,0 -0.925161,-0.33642 -1.177478,-0.75695 0.08411,0.58874 0.75695,1.09337 1.513901,1.09337 0.841056,0 1.513901,-0.58874 1.513901,-1.34569 0,-0.42052 -0.336423,-0.84105 -0.756951,-1.09337 z"
     id="path5982"
     inkscape:connector-curvature="0"
     style="fill:#2b165e" /><path
     d="m 88.859859,221.33183 c 0.168212,0.25232 0.252317,0.50463 0.252317,0.75695 0,0.75695 -0.588739,1.34569 -1.345689,1.34569 -0.504634,0 -0.925162,-0.33642 -1.177479,-0.75695 0.08411,0.58874 0.756951,1.09337 1.513901,1.09337 0.841056,0 1.513901,-0.58874 1.513901,-1.34569 0,-0.42053 -0.252317,-0.84105 -0.756951,-1.09337 z"
     id="path5984"
     inkscape:connector-curvature="0"
     style="fill:#2b165e" /><path
     d="m 94.242618,233.44304 c 0.168211,0.16821 0.252317,0.42052 0.252317,0.67284 0,0.67285 -0.588739,1.26159 -1.34569,1.26159 -0.504634,0 -0.925162,-0.25232 -1.177478,-0.67285 0.0841,0.58874 0.75695,1.00927 1.513901,1.00927 0.841056,0 1.5139,-0.58874 1.5139,-1.26159 0,-0.33642 -0.336422,-0.75695 -0.75695,-1.00926 z"
     id="path5986"
     inkscape:connector-curvature="0"
     style="fill:#2b165e" /><path
     d="m 117.87629,132.43221 c 0.16821,0.25231 0.25232,0.50463 0.25232,0.75695 0,0.75695 -0.58874,1.34569 -1.34569,1.34569 -0.50463,0 -0.92516,-0.33642 -1.17748,-0.75695 0.0841,0.58874 0.75695,1.09337 1.5139,1.09337 0.84106,0 1.5139,-0.58874 1.5139,-1.34569 0,-0.42053 -0.33642,-0.84106 -0.75695,-1.09337 z"
     id="path5988"
     inkscape:connector-curvature="0"
     style="fill:#2b165e" /><path
     d="m 118.63324,155.56125 c 0.16821,0.25232 0.25232,0.50463 0.25232,0.75695 0,0.75695 -0.58874,1.34569 -1.34569,1.34569 -0.50463,0 -0.92516,-0.33642 -1.17748,-0.75695 0.0841,0.58874 0.75695,1.09337 1.5139,1.09337 0.84106,0 1.5139,-0.58874 1.5139,-1.34569 0,-0.42053 -0.33642,-0.92516 -0.75695,-1.09337 z"
     id="path5990"
     inkscape:connector-curvature="0"
     style="fill:#2b165e" /><path
     d="m 118.38093,178.43797 c 0.16821,0.25232 0.25231,0.50464 0.25231,0.75695 0,0.75695 -0.58874,1.34569 -1.34569,1.34569 -0.50463,0 -0.92516,-0.33642 -1.17747,-0.75695 0.0841,0.58874 0.75695,1.09337 1.5139,1.09337 0.84105,0 1.5139,-0.58873 1.5139,-1.34569 0,-0.50463 -0.33643,-0.92516 -0.75695,-1.09337 z"
     id="path5992"
     inkscape:connector-curvature="0"
     style="fill:#2b165e" /><path
     d="m 117.37166,200.97827 c 0.16821,0.25232 0.25231,0.50464 0.25231,0.75695 0,0.75695 -0.58873,1.34569 -1.34568,1.34569 -0.50464,0 -0.92517,-0.33642 -1.17748,-0.75695 0.0841,0.58874 0.75695,1.09338 1.5139,1.09338 0.84105,0 1.5139,-0.58874 1.5139,-1.34569 0,-0.42053 -0.33642,-0.84106 -0.75695,-1.09338 z"
     id="path5994"
     inkscape:connector-curvature="0"
     style="fill:#2b165e" /><path
     d="m 115.35312,224.86426 c 0.16821,0.25232 0.25232,0.50464 0.25232,0.75696 0,0.75695 -0.58874,1.34568 -1.34569,1.34568 -0.50463,0 -0.92516,-0.33642 -1.17748,-0.75695 0.0841,0.58874 0.75695,1.09338 1.5139,1.09338 0.84106,0 1.51391,-0.58874 1.51391,-1.34569 -0.0841,-0.42053 -0.33643,-0.84106 -0.75696,-1.09338 z"
     id="path5996"
     inkscape:connector-curvature="0"
     style="fill:#2b165e" /><path
     d="m 124.94116,231.76092 c 0.0841,0.25232 0.16821,0.50464 0.16821,0.75695 0,0.75696 -0.33642,1.34569 -0.84105,1.34569 -0.33642,0 -0.58874,-0.33642 -0.75695,-0.75695 0.0841,0.58874 0.50463,1.09338 0.92516,1.09338 0.50463,0 0.92516,-0.58874 0.92516,-1.34569 0.0841,-0.42053 -0.16821,-0.84106 -0.42053,-1.09338 z"
     id="path5998"
     inkscape:connector-curvature="0"
     style="fill:#2b165e" /><path
     d="m 130.49213,221.83646 c 0.0841,0.25232 0.16821,0.50464 0.16821,0.75695 0,0.75695 -0.33642,1.34569 -0.84105,1.34569 -0.33642,0 -0.58874,-0.33642 -0.75695,-0.75695 0.0841,0.58874 0.50463,1.09338 0.92516,1.09338 0.50463,0 0.92516,-0.58874 0.92516,-1.34569 0.0841,-0.42053 -0.0841,-0.84106 -0.42053,-1.09338 z"
     id="path6000"
     inkscape:connector-curvature="0"
     style="fill:#2b165e" /><path
     d="m 135.959,211.40737 c 0.0841,0.25232 0.0841,0.50463 0.0841,0.75695 0,0.75695 -0.25231,1.34569 -0.58874,1.34569 -0.25231,0 -0.42052,-0.33642 -0.58874,-0.75695 0.0841,0.58874 0.33643,1.09337 0.67285,1.09337 0.42053,0 0.75695,-0.58874 0.75695,-1.34569 0.0841,-0.42053 -0.0841,-0.84105 -0.33642,-1.09337 z"
     id="path6002"
     inkscape:connector-curvature="0"
     style="fill:#2b165e" /><path
     d="m 139.57554,200.97827 c 0.0841,0.25232 0.0841,0.50464 0.0841,0.75695 0,0.75695 -0.25231,1.34569 -0.58874,1.34569 -0.25231,0 -0.42052,-0.33642 -0.58874,-0.75695 0.0841,0.58874 0.33643,1.09338 0.67285,1.09338 0.42053,0 0.67284,-0.58874 0.67284,-1.34569 0.0841,-0.42053 -0.0841,-0.84106 -0.25231,-1.09338 z"
     id="path6004"
     inkscape:connector-curvature="0"
     style="fill:#2b165e" /><path
     d="m 86.16848,243.70392 0.252317,2.10264 c 0.08411,-0.75695 0.08411,-1.59801 -0.252317,-2.10264 z"
     id="path6006"
     inkscape:connector-curvature="0"
     style="fill:#2b165e" /><path
     d="m 86.504902,245.80656 c 0,0.16821 0,0.33642 0,0.50463 0,0 0.08411,0 0.08411,0 l -0.08411,-0.50463 z"
     id="path6008"
     inkscape:connector-curvature="0"
     style="fill:#2b165e" /><path
     d="m 85.579741,13.338674 c 0,0 0,0 0,0 0,0.08411 0,0.08411 0,0.168211 0.08411,-0.08411 0,-0.08411 0,-0.168211 z"
     id="path6010"
     inkscape:connector-curvature="0"
     style="fill:#2b165e" /><path
     d="m 89.112176,70.782801 c -7.65361,0 -13.877424,5.971498 -13.877424,13.288685 0,7.317187 6.223814,13.288685 13.877424,13.288685 7.65361,0 13.877424,-5.971498 13.877424,-13.288685 0,-7.317187 -6.223814,-13.288685 -13.877424,-13.288685 z m 0,25.736314 c -7.233082,0 -13.036368,-5.635075 -13.036368,-12.531735 0,-6.896659 5.887392,-12.531734 13.036368,-12.531734 7.233082,0 13.036374,5.635075 13.036374,12.531734 0.0841,6.980765 -5.803292,12.531735 -13.036374,12.531735 z"
     id="path6012"
     inkscape:connector-curvature="0"
     style="fill:#001c58" /><path
     d="m 90.541971,76.754299 c -4.625808,0 -8.41056,3.616541 -8.41056,8.074137 0,4.457597 3.784752,8.074138 8.41056,8.074138 4.625809,0 8.410561,-3.616541 8.410561,-8.074138 0,-4.457596 -3.784752,-8.074137 -8.410561,-8.074137 z m -3.280118,4.121174 c -0.756951,0.925162 -1.682112,1.429795 -2.10264,1.177479 -0.336423,-0.336423 -0.08411,-1.34569 0.75695,-2.270852 0.756951,-0.925161 1.682112,-1.429795 2.10264,-1.177478 0.420528,0.336422 0.08411,1.34569 -0.75695,2.270851 z m 2.943696,11.186045 c -0.252317,0 -0.504634,0 -0.75695,0 2.523168,-0.168211 5.046336,-1.682112 6.476131,-4.289385 1.598006,-2.943697 1.261584,-6.307921 -0.588739,-8.578772 1.598006,1.34569 2.607273,3.364224 2.607273,5.55097 0,4.037069 -3.448329,7.317187 -7.737715,7.317187 z"
     id="path6014"
     inkscape:connector-curvature="0"
     style="fill:#001c58" /><path
     d="m 100.04591,12.245301 c -0.504639,0.08411 -6.560242,-1.766217 -6.560242,-1.766217 -1.513901,0 -3.532436,2.10264 -3.532436,2.10264 l 2.943696,-1.34569 c 1.598007,0 6.728448,2.607274 6.728448,2.607274 1.093374,-0.504634 0.925164,-2.186746 0.925164,-2.186746 l -0.50463,0.588739 z"
     id="path6016"
     inkscape:connector-curvature="0"
     style="fill:#001c58" /><path
     d="m 98.279687,14.095625 c 0,0 -2.859591,-2.10264 -1.34569,-0.504634 0,0 -5.635075,-1.261584 -5.719181,1.513901 0,0 0.841056,0.841056 1.429795,0.841056 0,0 0.168212,-1.598006 1.177479,-1.934429 0,0 2.775485,-0.672845 4.625808,1.177479 l 0.925162,0.504633 -1.093373,-1.598006 z"
     id="path6018"
     inkscape:connector-curvature="0"
     style="fill:#001c58" /><path
     d="m 95.083674,13.675097 c -0.75695,0.08411 -1.34569,0.588739 -1.261584,1.093373 0,0.588739 0.672845,0.925161 1.429795,0.925161 0.756951,-0.0841 1.34569,-0.588739 1.261584,-1.093373 -0.0841,-0.588739 -0.672845,-0.925161 -1.429795,-0.925161 z m -0.504634,1.177478 c -0.168211,0 -0.420528,-0.168211 -0.420528,-0.336422 0,-0.168211 0.168212,-0.336423 0.336423,-0.420528 0.168211,0 0.420528,0.168211 0.420528,0.336422 0,0.252317 -0.168211,0.420528 -0.336423,0.420528 z"
     id="path6020"
     inkscape:connector-curvature="0"
     style="fill:#001c58" /><path
     d="m 84.149946,18.721433 c 0,0 -0.168212,-2.943696 -3.700647,-0.756951 0,0 -1.009267,1.009268 0.168211,2.018535 0,0 -0.588739,-1.34569 0.252317,-1.598007 0,0 0.420528,2.018535 1.850323,3.196013 0,0 -1.682112,-3.364224 0,-3.700646 0,0 -0.420528,2.523168 1.009268,2.775485 l 1.682112,0.420528 c 0,0.168211 -2.270852,-1.598007 -1.261584,-2.354957 z"
     id="path6022"
     inkscape:connector-curvature="0"
     style="fill:#001c58" /><path
     d="m 94.831357,16.702898 c 0,0 2.775485,0.504634 3.616541,-1.093372 l 0.336422,0 c 0,0 -0.75695,2.018534 -2.523168,2.439062 0,0 0.925162,-0.588739 0.841056,-1.177478 -0.08411,0.0841 -0.75695,0.504633 -2.270851,-0.168212 z"
     id="path6024"
     inkscape:connector-curvature="0"
     style="fill:#001c58" /><path
     d="m 95.251885,114.60182 c -0.75695,-0.0841 -1.429795,-0.0841 -1.934429,0 l 1.093373,0.0841 0.841056,-0.0841 z"
     id="path6026"
     inkscape:connector-curvature="0"
     style="fill:#001c58" /><path
     d="m 115.26902,94.752898 c 2.85959,3.280118 5.88739,11.438362 5.88739,11.438362 -0.75695,-7.064871 -5.88739,-11.438362 -5.88739,-11.438362 z"
     id="path6028"
     inkscape:connector-curvature="0"
     style="fill:#001c58" /><path
     d="m 71.534105,199.38027 c 0.168211,0.25231 0.252317,0.50463 0.252317,0.75695 0,0.75695 -0.588739,1.34569 -1.34569,1.34569 -0.504633,0 -0.925161,-0.33643 -1.177478,-0.75695 0.08411,0.58874 0.75695,1.09337 1.513901,1.09337 0.841056,0 1.513901,-0.58874 1.513901,-1.34569 0,-0.42053 -0.252317,-0.84106 -0.756951,-1.09337 z"
     id="path6030"
     inkscape:connector-curvature="0"
     style="fill:#001c58" /><path
     d="m 81.20625,209.80936 c 0.168211,0.25232 0.252316,0.50464 0.252316,0.75695 0,0.75695 -0.588739,1.34569 -1.345689,1.34569 -0.504634,0 -0.925162,-0.33642 -1.177479,-0.75695 0.08411,0.58874 0.756951,1.09337 1.513901,1.09337 0.841056,0 1.513901,-0.58873 1.513901,-1.34569 0,-0.50463 -0.336422,-0.92516 -0.75695,-1.09337 z"
     id="path6032"
     inkscape:connector-curvature="0"
     style="fill:#001c58" /><path
     d="m 88.859859,221.50004 c 0.168212,0.25232 0.252317,0.50463 0.252317,0.75695 0,0.75695 -0.588739,1.34569 -1.345689,1.34569 -0.504634,0 -0.925162,-0.33642 -1.177479,-0.75695 0.08411,0.58874 0.756951,1.09337 1.513901,1.09337 0.841056,0 1.513901,-0.58874 1.513901,-1.34569 0,-0.50463 -0.336423,-0.92516 -0.756951,-1.09337 z"
     id="path6034"
     inkscape:connector-curvature="0"
     style="fill:#001c58" /><path
     d="m 94.158512,233.61125 c 0.168212,0.16821 0.252317,0.42053 0.252317,0.67284 0,0.67285 -0.588739,1.26159 -1.34569,1.26159 -0.504633,0 -0.925161,-0.25232 -1.177478,-0.67285 0.08411,0.58874 0.75695,1.00927 1.513901,1.00927 0.841056,0 1.513901,-0.58874 1.513901,-1.26159 0,-0.42052 -0.336423,-0.75695 -0.756951,-1.00926 z"
     id="path6036"
     inkscape:connector-curvature="0"
     style="fill:#001c58" /><path
     d="m 117.79219,132.51631 c 0.16821,0.25232 0.25231,0.50464 0.25231,0.75695 0,0.75695 -0.58874,1.34569 -1.34569,1.34569 -0.50463,0 -0.92516,-0.33642 -1.17748,-0.75695 0.0841,0.58874 0.75696,1.09338 1.51391,1.09338 0.84105,0 1.5139,-0.58874 1.5139,-1.34569 0,-0.42053 -0.33642,-0.84106 -0.75695,-1.09338 z"
     id="path6038"
     inkscape:connector-curvature="0"
     style="fill:#001c58" /><path
     d="m 118.54914,155.64535 c 0.16821,0.25232 0.25231,0.50464 0.25231,0.75695 0,0.75695 -0.58873,1.34569 -1.34569,1.34569 -0.50463,0 -0.92516,-0.33642 -1.17747,-0.75695 0.0841,0.58874 0.75695,1.09338 1.5139,1.09338 0.84105,0 1.5139,-0.58874 1.5139,-1.34569 0,-0.42053 -0.33642,-0.84106 -0.75695,-1.09338 z"
     id="path6040"
     inkscape:connector-curvature="0"
     style="fill:#001c58" /><path
     d="m 118.29682,178.52208 c 0.16821,0.25231 0.25232,0.50463 0.25232,0.75695 0,0.75695 -0.58874,1.34569 -1.34569,1.34569 -0.50464,0 -0.92516,-0.33642 -1.17748,-0.75695 0.0841,0.58874 0.75695,1.09337 1.5139,1.09337 0.84106,0 1.5139,-0.58874 1.5139,-1.34569 0,-0.42053 -0.33642,-0.84106 -0.75695,-1.09337 z"
     id="path6042"
     inkscape:connector-curvature="0"
     style="fill:#001c58" /><path
     d="m 117.28755,201.14648 c 0.16821,0.25232 0.25232,0.50464 0.25232,0.75696 0,0.75695 -0.58874,1.34568 -1.34569,1.34568 -0.50463,0 -0.92516,-0.33642 -1.17748,-0.75695 0.0841,0.58874 0.75695,1.09338 1.5139,1.09338 0.84106,0 1.5139,-0.58874 1.5139,-1.34569 0,-0.42053 -0.33642,-0.84106 -0.75695,-1.09338 z"
     id="path6044"
     inkscape:connector-curvature="0"
     style="fill:#001c58" /><path
     d="m 115.26902,225.03248 c 0.16821,0.25231 0.25231,0.50463 0.25231,0.75695 0,0.75695 -0.58873,1.34569 -1.34568,1.34569 -0.50464,0 -0.92517,-0.33643 -1.17748,-0.75695 0.0841,0.58873 0.75695,1.09337 1.5139,1.09337 0.84105,0 1.5139,-0.58874 1.5139,-1.34569 0,-0.42053 -0.33642,-0.84106 -0.75695,-1.09337 z"
     id="path6046"
     inkscape:connector-curvature="0"
     style="fill:#001c58" /><path
     d="m 124.85706,231.84503 c 0.0841,0.25232 0.16821,0.50463 0.16821,0.75695 0,0.75695 -0.33642,1.34569 -0.84106,1.34569 -0.33642,0 -0.58874,-0.33642 -0.75695,-0.75695 0.0841,0.58874 0.50464,1.09337 0.92516,1.09337 0.50464,0 0.92517,-0.58874 0.92517,-1.34569 0.0841,-0.42053 -0.0841,-0.84105 -0.42053,-1.09337 z"
     id="path6048"
     inkscape:connector-curvature="0"
     style="fill:#001c58" /><path
     d="m 130.49213,222.00467 c 0.0841,0.25232 0.16821,0.50464 0.16821,0.75695 0,0.75696 -0.33642,1.34569 -0.84105,1.34569 -0.33642,0 -0.58874,-0.33642 -0.75695,-0.75695 0.0841,0.58874 0.50463,1.09338 0.92516,1.09338 0.50463,0 0.92516,-0.58874 0.92516,-1.34569 0,-0.50464 -0.16821,-0.92516 -0.42053,-1.09338 z"
     id="path6050"
     inkscape:connector-curvature="0"
     style="fill:#001c58" /><path
     d="m 135.959,211.57558 c 0.0841,0.25232 0.0841,0.50463 0.0841,0.75695 0,0.75695 -0.25231,1.34569 -0.58874,1.34569 -0.25231,0 -0.42052,-0.33642 -0.58874,-0.75695 0.0841,0.58874 0.33643,1.09337 0.67285,1.09337 0.42053,0 0.75695,-0.58874 0.75695,-1.34569 0,-0.42053 -0.16821,-0.84105 -0.33642,-1.09337 z"
     id="path6052"
     inkscape:connector-curvature="0"
     style="fill:#001c58" /><path
     d="m 139.49143,201.14648 c 0.0841,0.25232 0.0841,0.50464 0.0841,0.75696 0,0.75695 -0.25232,1.34568 -0.58874,1.34568 -0.25232,0 -0.42053,-0.33642 -0.58874,-0.75695 0.0841,0.58874 0.33642,1.09338 0.67284,1.09338 0.42053,0 0.67285,-0.58874 0.67285,-1.34569 0.0841,-0.42053 0,-0.84106 -0.25232,-1.09338 z"
     id="path6054"
     inkscape:connector-curvature="0"
     style="fill:#001c58" /><path
     d="m 86.16848,243.78803 0.252317,2.10264 c 0,-0.67285 0,-1.59801 -0.252317,-2.10264 z"
     id="path6056"
     inkscape:connector-curvature="0"
     style="fill:#001c58" /><path
     d="m 86.420797,245.97477 c 0,0.16821 0,0.33642 0,0.50463 0,0 0.08411,0 0.08411,0 l -0.08411,-0.50463 z"
     id="path6058"
     inkscape:connector-curvature="0"
     style="fill:#001c58" /><path
     d="m 50.760021,201.73522 -1.009267,-2.52316 c 0,0 -2.354957,1.76621 1.009267,2.52316 z"
     id="path6060"
     inkscape:connector-curvature="0"
     style="fill:#001c58" /><path
     d="m 85.579741,13.42278 c -0.08411,0.08411 -0.08411,0.08411 0,0 0,0.08411 0,0.08411 0,0.168211 0,0 0,-0.08411 0,-0.168211 z"
     id="path6062"
     inkscape:connector-curvature="0"
     style="fill:#001c58" /><path
     d="m 87.598275,11.488351 c 0,0 0,-0.08411 0,-0.168211 0,0 0,0 -0.08411,0.0841 0,0 0.08411,0.08411 0.08411,0.08411 z"
     id="path6064"
     inkscape:connector-curvature="0"
     style="fill:#001c58" /><ellipse
     cx="84.822784"
     cy="22.169762"
     rx="0.50463367"
     ry="0.42052802"
     id="ellipse6066"
     style="fill:#001c58" /><path
     d="m 194.32828,241.43307 c -1.76621,-6.39203 -51.89315,-5.71918 -61.31298,-5.55097 l 0.33642,-3.61654 c 0.92516,-0.16821 2.43907,-0.75695 2.43907,-0.75695 l 1.26158,-9.16751 c 3.19601,-7.06487 4.37349,-12.0271 4.37349,-12.0271 1.5139,-5.13045 1.34569,-11.69068 1.09337,-15.39133 2.77549,-20.43766 3.28012,-38.85679 2.9437,-53.07063 2.43906,20.01713 -0.42053,40.03426 -0.42053,40.03426 13.96153,27.92306 14.21385,22.37209 14.21385,22.37209 2.27085,-36.0813 -11.943,-97.81481 -11.943,-97.81481 -2.69138,-5.55097 -4.87812,-5.46687 -6.30792,-3.86886 -1.68211,-5.38276 -4.03707,-11.606575 -6.30792,-17.325756 -0.16821,-2.10264 -0.67284,-3.61654 -0.67284,-3.61654 -0.50464,-3.027802 -2.52317,-5.55097 -3.61654,-6.812554 -2.35496,-5.466864 -4.12118,-9.251617 -4.12118,-9.251617 -0.92516,-1.345689 -2.94369,-2.439062 -5.46686,-3.364224 l 0.42053,-1.261584 c 0.67284,0.252317 1.17747,0.336423 1.17747,0.336423 0.92517,0.504633 1.85033,-0.925162 1.85033,-0.925162 0.92516,-0.168211 0.67284,-1.598006 0.67284,-1.598006 -0.0841,-0.252317 0.50464,-0.252317 0.50464,-0.252317 1.26158,-0.756951 0.58874,-2.10264 0.58874,-2.10264 -0.0841,-0.420528 0.42052,-0.672845 0.42052,-0.672845 0.92517,-0.504634 0.58874,-1.513901 0.58874,-1.513901 0,-0.420528 -1.85032,-2.10264 -2.35495,-2.523168 l 0.58874,-1.766218 0.25231,-0.504633 1.93443,-1.177479 c -2.18674,-2.943696 -4.79402,-2.018534 -4.79402,-2.018534 l 0.16821,2.270851 -0.84105,2.186746 -0.75695,-0.252317 c -2.43907,-1.850323 -3.0278,1.934429 -3.0278,1.934429 0,0.588739 -1.00927,1.34569 -1.00927,1.34569 0.16821,0.75695 1.34569,0.168211 1.34569,0.168211 0,0.504633 0.67284,0.75695 0.67284,0.75695 -1.00926,0.252317 -0.58874,2.018535 -0.58874,2.018535 -0.67284,0.168211 -1.17748,0.420528 -1.598,0.588739 -0.50464,-0.756951 -4.54171,-6.476132 -5.55097,-9.083405 0,0 -3.44833,-9.924461 -6.22382,-10.008567 0,0 -2.27085,-0.504634 -3.19601,0.252317 0,0 -4.205281,-0.420528 -4.205281,-2.186746 0,0 -0.168211,-1.513901 -0.252317,-3.196013 0,0 0,0 0,0 l 0,-1.177478 -0.252317,-0.168211 c 2.439063,0.672844 4.121175,0.588739 4.121175,0.588739 l 1.09337,-0.841056 c 1.09337,-0.588739 5.80329,-3.616541 8.07414,-13.20458 0,0 0.25232,-2.354957 -0.58874,-4.96223 0,0 0.16821,-2.018535 0.42053,-3.5324356 0.33642,0.5887396 0.92516,1.5139006 1.26158,2.0185346 0,0 -0.16821,-2.8595907 -0.92516,-5.7191811 0.92516,1.261584 1.76622,2.6072736 1.76622,2.6072736 -0.50463,-2.10264 -1.59801,-3.8688577 -2.60727,-4.9622305 -0.67285,-1.3456897 -1.51391,-2.5231681 -2.69138,-3.0278017 0,0 -6.98077,-1.59800645 -9.672148,-0.42052802 0,0 -7.233082,-0.58873921 -13.625108,5.55096982 0,0 -2.018534,3.9529633 -1.682112,5.4668639 0,0 -3.952963,-1.3456894 -5.803286,0.420528 0,0 -2.943696,5.130442 -2.10264,6.728448 0,0 1.850323,6.89666 2.523168,8.242349 0,0 1.850323,6.476132 -0.252317,7.905927 0,0 -4.962231,2.186746 -3.532435,-2.354957 0,0 1.177478,-1.429795 2.018534,-0.420528 0,0 0,-1.513901 -2.018534,-1.766217 0,0 -5.803287,3.700646 -1.429796,5.550969 0,0 2.354957,2.523168 9.924462,2.018535 -0.925162,1.429795 -2.354957,3.700646 -3.784753,6.896659 l -0.336422,-1.429795 c -3.700646,-0.168211 -4.709914,3.44833 -4.709914,3.44833 l 2.523168,1.429795 0.58874,0.841056 c -0.925162,4.625808 -4.962231,11.017834 -6.055604,12.699946 -3.532435,0.588739 -6.476131,1.429795 -7.821821,2.523168 l -1.261584,2.607274 c -0.925162,0 -1.177478,0.925161 -1.177478,0.925161 l 0.252316,0.841056 -2.691379,5.466865 c -1.345689,-0.168212 -1.682112,1.009267 -1.682112,1.009267 l 0.504634,1.177478 0.168211,-0.168211 c 0,0.08411 0,0.168211 -0.08411,0.252317 l -0.252316,0.504633 -1.009268,-0.08411 c 0,0 -3.280118,6.896659 -3.027801,8.41056 l 0,0 c -0.252317,3.027802 0.252316,8.494666 0.420528,9.840356 l -0.168212,0.168211 c -0.588739,-1.682112 -1.261584,-3.196013 -2.10264,-4.373492 0,0 0.252317,-2.523168 -1.766217,1.513901 0,0 -21.362823,43.987227 -24.642942,84.862547 0,0 -3.280118,16.98933 -0.252317,15.22312 0,0 19.176078,-13.79332 28.007166,-48.36073 -1.34569,11.85889 -10.176778,30.27802 -10.176778,30.27802 3.616541,13.37279 8.242349,24.47473 10.344989,29.18464 0.756951,5.55097 3.111908,11.52247 3.111908,11.52247 l 5.550969,4.03707 0.420528,3.11191 1.429796,0.0841 2.943696,10.26089 c 0,0 0.925161,0.42053 2.354957,0.58874 l 1.177478,5.80328 c -0.672845,0.25232 -1.934429,0.67285 -1.934429,0.67285 l -0.168211,1.26158 -1.513901,0.42054 -0.336422,4.4576 -12.531735,10.42909 c -1.513901,0.92515 -0.925162,1.34569 -0.925162,1.34569 7.990032,1.34569 26.325054,10.84962 26.325054,10.84962 6.476131,-4.37349 24.222412,-13.541 24.222412,-13.541 l -2.691378,-1.34569 21.362828,-0.33642 6.89666,5.29865 c 3.53243,-0.84105 25.73631,-2.35495 31.28728,-2.77548 2.69138,0.50463 0.33643,-1.26159 0.33643,-1.26159 -0.42053,-0.25231 -0.75696,-0.50463 -1.17748,-0.75695 l -1.26159,-2.43906 c 38.18395,-3.0278 38.01573,-9.50393 38.01573,-9.50393 z M 29.901832,158.84137 c 0,0 0.75695,-29.43696 19.596605,-65.770584 l 0.756951,3.532435 c 0,0 -14.045636,21.531039 -20.353556,62.238149 z m 21.110506,39.19321 c -0.420528,0 -0.75695,-0.50464 -0.75695,-1.09338 0.08411,0.42053 0.336422,0.75696 0.588739,0.75696 0.420528,0 0.672845,-0.58874 0.672845,-1.34569 0,-0.25232 -0.08411,-0.50464 -0.168211,-0.75695 0.252316,0.25231 0.420528,0.67284 0.420528,1.17747 0,0.67285 -0.336423,1.26159 -0.756951,1.26159 z m 74.685772,40.95943 c -0.75695,0.16821 -1.5139,0.33642 -2.35495,0.50463 10.5132,-12.19531 17.9986,-34.73561 17.9986,-34.73561 -2.60728,16.31648 -12.11121,29.77338 -15.64365,34.23098 z m 4.62581,0.50463 0,2.10264 c -2.10264,1.5139 -7.99003,1.68211 -7.99003,1.68211 1.09337,0.0841 7.99003,-3.78475 7.99003,-3.78475 z m 3.0278,-156.604632 c 1.00927,4.289385 0.67285,8.074137 -0.75695,8.41056 -0.42053,0.0841 -0.84105,-0.08411 -1.34569,-0.588739 0,0 0.0841,0 0.0841,0 1.42979,-0.336423 1.76622,-4.037069 0.75695,-8.410561 -0.67285,-3.027801 -1.85032,-5.550969 -3.0278,-6.644342 1.42979,-0.168211 3.28012,3.027801 4.28938,7.233082 z m -9.67214,-9.167511 5.04633,1.093373 c 0,0 0,0 -0.0841,0 -0.33642,-0.08411 -0.58874,-0.08411 -0.92516,0 -2.10264,0.588739 -2.60728,4.96223 -1.26159,9.672144 1.17748,4.121175 3.44833,7.233082 5.38276,7.569504 l -2.01853,3.196013 c -0.25232,-0.0841 -0.42053,-0.168211 -0.67285,-0.252317 -2.10264,-1.177478 -4.45759,-4.96223 -5.80328,-9.503933 -0.75695,-2.439062 -1.09338,-4.878125 -1.09338,-6.896659 0,-1.934429 0.33643,-3.616541 1.00927,-4.541703 0.16821,0 0.33642,-0.168211 0.42053,-0.336422 z m 4.87812,5.298653 c 0,0.925162 -0.33642,1.682112 -0.75695,1.682112 -0.42052,0 -0.75695,-0.75695 -0.75695,-1.682112 0,-0.925162 0.33643,-1.682112 0.75695,-1.682112 0.42053,-0.08411 0.75695,0.672845 0.75695,1.682112 z m -6.47613,-5.719181 0.92516,0.168211 -0.16821,0.252317 c -1.5139,2.018534 -1.5139,6.896659 0,12.027101 1.4298,4.794019 4.20528,8.746983 6.72845,10.176778 0.0841,0.08411 -0.16821,0.252317 -0.42053,0.504634 -4.5417,-1.513901 -7.06487,-8.326455 -7.06487,-8.326455 -3.19601,-8.9993 -1.09337,-13.288685 0,-14.802586 z m 9.33572,36.838251 -9.16751,-2.10264 -28.764112,5.38276 c 4.20528,-7.82182 18.839652,-18.250914 21.362822,-19.933026 3.0278,1.934428 13.4569,9.335726 16.5688,16.652906 z M 62.114278,82.052952 c 0.420528,0.252316 0.672845,0.672844 0.672845,1.177478 0,0.75695 -0.58874,1.34569 -1.34569,1.34569 -0.672845,0 -1.177479,-0.504634 -1.34569,-1.093373 0.168211,0.420528 0.58874,0.75695 1.009268,0.75695 0.672844,0 1.177478,-0.588739 1.177478,-1.345689 0.08411,-0.336423 0,-0.58874 -0.168211,-0.841056 z m 1.093373,41.632268 c 0.75695,0 1.345689,-0.58873 1.345689,-1.34568 0,-0.25232 -0.08411,-0.50464 -0.252317,-0.75696 0.420528,0.25232 0.756951,0.67285 0.756951,1.17748 0,0.75695 -0.672845,1.34569 -1.513901,1.34569 -0.75695,0 -1.34569,-0.50463 -1.513901,-1.09337 0.252317,0.33642 0.672845,0.67284 1.177479,0.67284 z m 2.018534,-29.016428 c 0.420528,0.252317 0.75695,0.672845 0.75695,1.177478 0,0.756951 -0.672844,1.34569 -1.5139,1.34569 -0.756951,0 -1.34569,-0.504634 -1.513901,-1.093373 0.252317,0.420528 0.672845,0.756951 1.177478,0.756951 0.756951,0 1.34569,-0.58874 1.34569,-1.34569 0,-0.420528 -0.08411,-0.672845 -0.252317,-0.841056 z m -1.177478,15.643638 c 0.252316,0.42053 0.672844,0.75695 1.177478,0.75695 0.75695,0 1.34569,-0.58873 1.34569,-1.34569 0,-0.25231 -0.08411,-0.50463 -0.252317,-0.75695 0.420528,0.25232 0.75695,0.67285 0.75695,1.17748 0,0.75695 -0.672845,1.34569 -1.513901,1.34569 -0.75695,0 -1.345689,-0.50463 -1.5139,-1.17748 z m -0.841056,-3.0278 c 0,-0.16821 0,-0.33642 0,-0.50463 1.850323,0.25232 15.47543,2.18674 18.335021,3.36422 l 1.429795,-12.699943 c -5.298653,-2.018535 -9.16751,-7.569504 -9.16751,-13.288685 0,-6.812554 4.96223,-12.44763 11.606573,-13.877425 l 1.093372,-9.251616 0,-0.336422 c 0.252317,0 0.420529,0 0.672845,-0.08411 l -1.009267,9.335722 c 0.588739,-0.08411 1.850323,-0.08411 2.439063,-0.08411 8.242349,0 14.886687,6.392026 14.886687,14.213847 0,7.821821 -6.644338,14.213847 -14.886687,14.213847 -1.766218,0 -3.532436,-0.336423 -5.130442,-0.925162 L 82.383728,111.4899 c -3.532435,-1.76622 -16.484698,-3.86886 -19.176077,-4.20528 z m 9.335721,-2.43906 c 0.336423,0.16821 0.58874,0.50463 0.58874,0.92516 0,0.58874 -0.58874,1.09337 -1.261584,1.09337 -0.58874,0 -1.177479,-0.42052 -1.261584,-0.92516 0.168211,0.33643 0.588739,0.58874 1.009267,0.58874 0.588739,0 1.093373,-0.50463 1.093373,-1.09337 0.08411,-0.16821 0,-0.42053 -0.168212,-0.58874 z m 8.326455,-6.728448 c 0.336423,0.168211 0.588739,0.504633 0.588739,0.925161 0,0.58874 -0.588739,1.093377 -1.261584,1.093377 -0.588739,0 -1.177478,-0.420532 -1.261584,-0.925165 0.168211,0.336422 0.588739,0.588739 1.009267,0.588739 0.58874,0 1.093373,-0.504634 1.093373,-1.093373 0,-0.168211 -0.08411,-0.420528 -0.168211,-0.588739 z m -1.429795,9.840358 c 0.588739,0 1.093373,-0.50464 1.093373,-1.09338 0,-0.25231 -0.08411,-0.42052 -0.168211,-0.67284 0.336422,0.16821 0.588739,0.50463 0.588739,0.92516 0,0.58874 -0.588739,1.09337 -1.261584,1.09337 -0.58874,0 -1.177479,-0.42052 -1.261584,-0.92516 0.168211,0.42053 0.588739,0.67285 1.009267,0.67285 z M 78.51487,55.559687 c -0.841056,-0.841056 -0.336422,-1.850323 -0.168211,-2.10264 l 0.420528,0.672845 c 0,0 0,0 0,0 0.08411,0.08411 0.08411,0.252316 0.168211,0.252316 l 0.08411,0.08411 0,0 c 1.009267,0.672845 3.280118,-2.775485 3.280118,-2.775485 2.186746,-1.682112 1.429796,1.682112 1.429796,1.682112 1.429795,-0.252317 0.504633,1.682112 0.504633,1.682112 1.261584,0.252317 0.420528,1.934429 0.420528,1.934429 l 0.420528,0.925162 c -0.420528,1.261584 -3.027801,1.5139 -3.027801,1.5139 l -1.766218,0.672845 c -1.934429,0.252317 -3.616541,0.504634 -5.214547,0.756951 l 0.252316,-0.08411 4.289386,-4.037069 -1.093373,-1.177478 z m 7.569504,3.868857 c -0.336422,0 -0.588739,0.08411 -0.925161,0.08411 l 0.588739,-0.672845 0.336422,0.588739 z m -0.168211,-5.887392 c 0,-0.0841 0,-0.0841 0,0 0,-0.0841 0.08411,0 0,0 0,0 0,0 0,0 z m -0.504633,8.410561 c 0,0.504633 -0.58874,0.925161 -1.261584,0.925161 -0.58874,0 -1.177479,-0.336422 -1.261584,-0.75695 0.168211,0.252317 0.588739,0.504633 1.009267,0.504633 0.588739,0 1.093373,-0.420528 1.093373,-0.925161 0,-0.168211 -0.08411,-0.336423 -0.168212,-0.504634 0.336423,0.168211 0.58874,0.420528 0.58874,0.756951 z m -1.261584,5.298653 c 0.336422,0.168211 0.588739,0.504633 0.588739,0.841056 0,0.504633 -0.588739,1.009267 -1.261584,1.009267 -0.588739,0 -1.177479,-0.336423 -1.261584,-0.841056 0.168211,0.336422 0.588739,0.504633 1.009267,0.504633 0.588739,0 1.093373,-0.420528 1.093373,-1.009267 0,-0.168211 -0.08411,-0.336422 -0.168211,-0.504633 z m 2.270851,-11.606574 c 0.08411,-0.672844 0,-1.177478 -0.08411,-1.5139 1.009268,1.934428 1.261584,4.20528 1.34569,5.214547 -0.168211,0 -0.336422,0 -0.504634,0 -0.0841,-0.420528 -0.336422,-0.925162 -0.588739,-1.261584 0.504634,-0.672845 -0.168211,-2.439063 -0.168211,-2.439063 z m 7.905927,2.018535 0,1.345689 c -0.336423,0 -0.672845,0 -1.009268,0 l 0,-1.5139 -1.429795,0.168211 0.08411,1.429795 c -0.925162,0 -1.850324,0.08411 -2.775485,0.168211 l -0.504634,-1.934429 c 2.775485,-4.457597 6.89666,-1.177478 8.831088,0.841056 l 0.08411,0.841056 c -0.588739,0 -1.177478,0 -1.850323,0 l 0,-1.261584 -1.429795,0 z m 8.410556,1.429795 0.0841,-2.775485 1.17748,0 -0.0841,2.859591 c -0.50463,0 -0.84105,-0.08411 -1.17747,-0.08411 z m -9.756246,55.509698 0.336422,0 c 0.504634,-0.0841 1.177479,0 1.934429,0 l 26.072735,-3.53244 -4.96223,7.4013 c 0,0 -14.63437,-3.53244 -21.110505,-3.95297 l -0.841056,0.0841 -1.093373,-0.0841 c -0.168211,0 -0.252317,0 -0.420528,0.0841 0.08411,0 0.08411,0 0.08411,0 z m 29.521066,-3.44833 5.88739,0.16821 -10.84962,6.56024 c 1.5139,-1.76622 3.95296,-5.29865 4.96223,-6.72845 z M 107.86773,62.456346 c 0.33642,0.168211 0.58874,0.420528 0.58874,0.756951 0,0.504633 -0.58874,0.925161 -1.26159,0.925161 -0.58874,0 -1.17748,-0.336422 -1.26158,-0.75695 0.16821,0.252317 0.58874,0.504633 1.00926,0.504633 0.58874,0 1.09338,-0.420528 1.09338,-0.925161 0.0841,-0.168211 0,-0.336423 -0.16821,-0.504634 z m 3.36422,11.942996 c 0.33642,0.168211 0.58874,0.504633 0.58874,0.925161 0,0.58874 -0.58874,1.093373 -1.26158,1.093373 -0.58874,0 -1.17748,-0.420528 -1.26159,-0.925161 0.16821,0.336422 0.58874,0.588739 1.00927,0.588739 0.58874,0 1.09337,-0.504634 1.09337,-1.093373 0,-0.168211 -0.0841,-0.420528 -0.16821,-0.588739 z m 2.52317,14.045635 c 0.33642,0.168212 0.58874,0.504634 0.58874,0.925162 0,0.588739 -0.58874,1.093373 -1.26159,1.093373 -0.58874,0 -1.17748,-0.420528 -1.26158,-0.925162 0.16821,0.336423 0.58874,0.588739 1.00927,0.588739 0.58874,0 1.09337,-0.504633 1.09337,-1.093372 0,-0.168212 -0.0841,-0.336423 -0.16821,-0.58874 z m -2.85959,-33.053501 c 0,0 1.17748,-0.756951 2.01853,0.168211 l -0.0841,4.289386 -0.16821,0.504633 c -0.67284,-0.08411 -1.26158,-0.252317 -1.93442,-0.336422 l 0.16821,-4.625808 z m 5.13044,37.595204 c -0.25232,-0.168211 -0.42053,-0.336422 -0.67285,-0.504634 0.67285,-9.083405 -6.1397,-31.287284 -6.1397,-31.287284 0.25231,0 0.50463,0 0.67284,0.08411 5.21455,17.998599 5.9715,28.848221 6.13971,31.707812 z m -9.25162,-42.305118 2.9437,6.728448 0,2.354957 c -1.5139,-0.168211 -2.9437,-0.336423 -4.20528,-0.504634 -0.42053,-1.177478 -1.34569,-4.20528 -0.33642,-5.298653 -0.0841,0.08411 1.42979,-1.513901 1.598,-3.280118 z m -4.96223,-9.503933 c 0,0 -0.42053,3.952963 3.28012,7.737715 0,0 1.26159,3.280119 -2.27085,5.466864 -0.92516,0.08411 -1.68211,-0.252316 -1.68211,-0.252316 -2.523171,-0.756951 -6.980768,-0.420528 -6.980768,-0.420528 -6.644342,0.504633 -7.485398,-3.700647 -7.485398,-4.541703 0,-0.925162 2.691379,-4.962231 2.691379,-4.962231 0.672845,-2.607273 -0.252317,-4.878125 -0.75695,-5.887392 0.336422,0 0.672844,0.08411 1.009267,0 0.841056,1.34569 1.429795,6.30792 1.429795,6.30792 3.280119,1.513901 9.924465,0.252317 9.924465,0.252317 l -0.75695,-4.373491 c 0.50463,0.252317 1.09337,0.420528 1.598,0.672845 z M 86.084374,32.514752 c 0,0 0.168212,-5.719181 -1.682112,-8.746983 0.841056,0 1.261584,-0.08411 1.261584,-0.08411 l 0.420528,0.756951 c 2.018535,2.270851 4.037069,3.952963 5.971498,5.130442 0.08411,0.420528 0.252317,1.009267 0.252317,1.5139 0,0.252317 0,0.420528 0,0.672845 0,0 0,0 0,0 l 0,0 c 0.08411,2.354957 -0.168211,4.625808 -1.34569,5.298653 0,0 -1.934428,0.925162 -3.027801,0.420528 0,0 -1.177479,-0.75695 -3.280119,-1.009267 1.009267,-1.009267 1.766218,-2.270851 1.429795,-3.952963 z m 11.270151,8.158243 c 0,0 0.841056,-0.168211 1.934429,-0.08411 0.336422,1.261584 0.588739,3.448329 0.588739,3.448329 -4.457597,2.186746 -8.158243,-0.252317 -8.158243,-0.252317 -0.08411,-0.925161 -1.093373,-4.037069 -1.429795,-5.382758 0.841056,-0.168211 1.766217,-0.504634 2.523168,-1.177479 0,0 0.504633,-3.280118 0.504633,-5.719181 0.252317,0 0.925162,0 1.598007,1.429796 l 0.168211,6.896659 c 0,-0.08411 -0.168211,1.513901 2.270851,0.841056 z M 108.9611,15.357209 c -1.34569,1.766217 -4.37349,0.841056 -4.37349,0.841056 -0.25232,-0.672845 0.50463,-1.34569 0.50463,-1.34569 0,0 0,0 0.0841,0 0.0841,0.504634 0.58874,0.841056 1.17748,0.841056 0.67285,0 1.17748,-0.420528 1.17748,-0.925161 0,-0.336423 -0.25232,-0.58874 -0.50463,-0.756951 1.93442,-0.504634 1.93442,1.34569 1.93442,1.34569 z M 107.69951,5.0963252 c 0.0841,0 0.25232,0 0.33643,0 0.42052,0 0.84105,0.2523168 1.17747,0.6728449 0,0 0,0 0,0 0,0.084106 0.0841,0.084106 0.0841,0.1682112 0.0841,0.1682112 0.16822,0.2523168 0.25232,0.420528 l 0,-0.1682112 c 0.33642,0.5887392 0.58874,1.261584 0.42053,2.1867456 l 0,-0.084106 c -0.0841,0.7569505 -0.42053,1.4297953 -1.00927,1.5980065 -0.84105,0.2523168 -1.85032,-0.5887392 -2.18674,-1.9344289 -0.42053,-1.3456896 0,-2.6072737 0.92516,-2.8595905 z m -2.43906,1.1774785 c 0.33642,0 0.67285,-0.084106 1.09337,-0.1682112 -0.33642,0.6728448 -0.0841,1.5980064 -0.0841,1.5980064 l -0.67284,0.5046336 c -0.58874,-0.5887392 -0.50463,-1.4297952 -0.33642,-1.9344288 z m -0.58874,0.084106 c 0,0 -0.33642,2.2708512 1.26159,3.6165409 0.0841,0 -2.27086,-1.1774785 -1.26159,-3.6165409 z M 99.709482,5.0122196 c 0.08411,0.084106 0.252317,0.1682112 0.336418,0.2523168 0,0 0,0 0,0 0.42053,0.4205281 0.75695,1.0933729 0.75695,1.7662177 0,1.3456896 -1.093368,2.4390625 -2.439058,2.4390625 0,0 0,0 0,0 0,0 0,0 0,0 -0.08411,0 -0.08411,0 -0.168211,0 -0.08411,0 -0.168211,0 -0.168211,0 -1.177478,-0.1682112 -2.10264,-1.1774785 -2.10264,-2.4390625 0,-1.3456896 1.093373,-2.4390625 2.439062,-2.4390625 0.420528,0 0.925162,0.1682112 1.34569,0.420528 z m -5.298653,1.8503233 -0.504633,0.1682112 c 0,0 0.336422,-1.261584 1.934428,-1.7662177 0,0 -1.766217,2.4390625 0.336423,4.037069 l -0.588739,0.8410556 c 0,0 -1.177479,-0.1682108 -1.766218,-1.5980061 l 0.75695,-0.420528 -0.168211,-1.261584 z M 94.57904,1.8162067 c 0.252317,-0.2523168 0.420528,-0.3364224 0.420528,-0.3364224 -0.0841,1.0092673 0.336423,0.7569504 0.336423,0.7569504 0.420528,-1.26158399 1.009267,-1.3456896 1.009267,-1.3456896 1.34569,0.7569504 1.766218,2.8595905 1.766218,2.8595905 -0.672845,-1.4297953 -2.10264,-2.5231681 -2.10264,-2.5231681 -0.504634,0.9251616 -0.336423,2.7754849 -0.252317,3.2801185 0,0 0,0 0,0 -0.168211,-0.9251616 -0.841056,-1.682112 -0.841056,-1.682112 -0.336423,0.5046336 -0.168211,1.5139008 -0.08411,2.1867456 -0.0841,0 -0.0841,0.084106 -0.168211,0.084106 C 93.906196,3.66653 93.990301,2.7413684 94.242618,2.1526291 93.653879,2.9095796 92.392295,4.5916916 92.224083,5.9373813 92.308189,6.0214869 91.887661,2.6572628 94.57904,1.8162067 Z m -9.588038,3.9529634 c -0.58874,0.7569504 -0.58874,2.6913792 -0.58874,2.6913792 0.420528,-1.682112 3.027802,-4.3734913 3.027802,-4.3734913 l 0.08411,1.5139008 C 88.439331,2.825474 93.065139,1.6479955 93.065139,1.6479955 86.336691,3.66653 87.009536,10.899612 87.009536,10.899612 86.000269,9.2174998 86.673114,5.9373813 86.673114,5.9373813 84.402262,8.0400213 84.991002,13.002252 84.991002,13.002252 83.981734,11.572457 84.234051,9.4698166 84.234051,9.4698166 83.813523,9.9744502 83.645312,11.488351 83.645312,11.488351 83.224784,7.2830709 84.991002,5.7691701 84.991002,5.7691701 Z m 6.30792,1.0933728 c -0.08411,0.5046336 -0.252317,1.0933728 -0.336423,1.5980064 -0.336422,0.2523168 -0.75695,0.5046337 -1.177478,0.8410561 0.252317,-0.5046337 0.420528,-0.9251617 0.672845,-1.1774785 0,0 0.420528,-0.6728448 0.75695,-1.4297952 l 0.08411,0.1682112 z m -7.148976,9.1675111 c 0,0 0.841056,2.775484 1.850323,3.532435 0,0 -0.08411,-2.775485 0.168211,-4.962231 0.168211,-0.168211 0.336422,-0.420528 0.504634,-0.588739 0.252317,1.513901 0.672845,4.037069 1.009267,4.373491 0,0 0.672845,-3.868857 1.513901,-6.896659 1.177478,-1.009267 2.523168,-1.9344288 3.952963,-2.523168 0,0 0.925162,2.186746 4.121175,2.354957 0,0 2.523168,0.336422 3.86886,-1.8503234 0,0 2.43906,-0.084106 3.70064,0.3364224 0,0.084106 0.0841,0.1682112 0.0841,0.252317 0,0 -2.52316,2.018534 -1.68211,4.96223 l 1.4298,3.784752 1.09337,0.58874 c 0,0 -0.75695,0.672844 -1.17748,1.009267 0,0 0,0 -0.0841,0 0,0 0,0.08411 0,0.08411 l -0.75695,0.336422 c 0,0 -2.01853,-0.08411 -2.77548,0.672845 0,0 2.01853,0.252317 1.76621,0.75695 0,0 0.0841,0.168211 0.25232,0.336423 0.0841,0.504633 0.42053,0.925161 0.75695,1.177478 l 0.25232,0.336422 -0.58874,0.420528 -0.84106,-0.588739 c 0,0 -2.691376,0 -5.046333,1.429795 l -1.5139,-0.336422 c 0,0 0.672844,0.925162 2.018534,0.841056 0,0 3.027799,-0.588739 4.037069,-0.336422 l 1.26158,0.252316 0.58874,-0.252316 c 0,0 0.67285,1.009267 0.25232,1.261584 l -3.70065,0.588739 -1.598003,-0.420528 1.093373,1.093373 c 0,0 2.85959,-0.168211 3.28012,0.420528 0,0 -0.75695,2.186745 -2.01854,2.691379 -0.84105,0.08411 -1.766214,-0.08411 -1.766214,-0.08411 -9.75625,-2.523168 -13.372791,-8.999299 -13.372791,-8.999299 -0.168211,1.598006 -2.691379,0.75695 -2.691379,0.75695 l -0.168211,-0.08411 c -1.34569,-0.756951 -3.532435,-2.10264 -3.784752,-3.784752 -0.168211,0.08411 0.168211,-4.037069 4.709914,-2.943696 z m -5.719181,20.101239 c -1.850324,0.168211 -3.700647,-0.336423 -3.700647,-0.336423 8.158244,1.177479 2.775485,-12.699946 2.775485,-12.699946 -1.177478,-1.934429 -1.934429,-5.130442 -1.934429,-5.130442 0,-7.653609 5.887392,-4.541702 5.887392,-4.541702 -8.158243,-1.177479 -3.952963,7.401293 -3.952963,7.401293 4.373491,7.233082 4.20528,12.61584 4.20528,12.61584 0,0.504634 -0.168211,1.009268 -0.420528,1.34569 0.504634,-2.943696 -1.513901,-7.064871 -1.513901,-7.064871 1.682112,5.298653 0.168211,7.485399 -1.345689,8.410561 z m 6.728448,1.261584 c 0,0 1.093373,0.588739 2.607274,0.841056 1.850323,3.196013 0.672844,5.635075 0.672844,5.635075 l -1.598006,2.018534 c -2.018535,-2.85959 -4.625808,-0.588739 -4.625808,-0.588739 l 1.261584,0.252317 -1.766218,4.20528 c 0.504634,-1.261584 -0.925161,-1.934429 -0.925161,-1.934429 l -0.925162,1.34569 -1.850323,-2.859591 c 0.925161,-2.270851 4.20528,-9.588038 7.148976,-8.915193 z m -11.690679,8.999299 c 1.177479,-2.523168 3.196013,-2.186746 3.196013,-2.186746 l 0.420528,2.018535 c -0.925162,0.336422 -1.598006,0.925162 -1.850323,1.261584 l -1.766218,-1.093373 z m 1.934429,1.261584 -0.08411,-0.08411 c 0.841056,-0.58874 1.682112,-0.672845 2.186746,-0.58874 l 3.532435,5.719181 c -0.420528,0.420528 -1.009267,0.756951 -1.513901,1.009268 l -4.12117,-6.055599 z m 0.925162,2.607274 1.766217,2.775485 -0.588739,-0.672845 c -0.672845,2.523168 0.420528,4.541702 0.420528,4.541702 l -4.794019,3.784753 -0.504634,0.504633 c -0.08411,0 -0.168211,0 -0.252317,0.08411 -0.252317,0 -0.504633,0.0841 -0.841056,0.0841 1.766218,-2.018534 4.121175,-8.915194 4.79402,-11.101939 z M 62.4507,65.315937 c 0,0 1.513901,-2.523168 16.737015,-3.532436 0,0 -15.223114,1.766218 -19.344289,20.101239 l -0.75695,1.513901 -1.009267,-2.018534 c 0,-0.08411 9.167511,-16.06417 4.373491,-16.06417 z m -7.821821,45.248813 c -0.08411,-1.17748 -0.168211,-2.27085 -0.252317,-3.44833 0.672845,-0.33642 1.177479,-1.17748 1.177479,-2.27085 0,-1.34569 -0.756951,-2.35496 -1.766218,-2.43906 -0.168211,-0.92516 -0.336422,-1.85033 -0.504634,-2.691382 2.354957,0.336422 3.364225,1.850322 3.784753,3.196012 0.08411,1.93443 0.08411,3.86886 0.08411,5.71918 -0.75695,1.00927 -1.850323,1.59801 -2.523168,1.93443 z m 2.523168,-0.25232 c 0,0.16822 0,0.33643 0,0.50464 l 0,-0.33642 0,-0.16822 z m -2.354957,6.81256 c 0,-0.67285 0,-1.34569 0,-2.01854 l 2.10264,-1.00926 c -0.08411,1.26158 -0.252316,2.43906 -0.336422,3.61654 0,-0.67285 0.08411,-1.09338 0.08411,-1.09338 l -1.850324,0.50464 z m 0,-18.250918 c -0.672844,-0.336422 -1.261584,-0.504634 -1.766217,-0.504634 -0.08411,-0.504633 -0.252317,-1.009267 -0.420528,-1.5139 l 3.364224,-2.607274 c 0.252317,1.177478 0.420528,2.354957 0.588739,3.532435 l -1.766218,1.093373 z m -1.177478,33.726348 c 9.75625,-20.68998 2.943696,-41.884591 2.943696,-41.884591 -1.598006,-4.541703 -2.691379,-6.812554 -3.44833,-7.569505 l 1.934429,-4.121174 c 0,0 11.186045,16.484698 5.298653,42.38922 0,0 -2.018534,11.43837 -7.990032,17.49397 0.504633,-2.01854 0.925161,-4.12118 1.261584,-6.30792 z m 6.223814,0.25232 c 0.336423,0.25231 0.58874,0.67284 0.58874,1.17747 0,0.75695 -0.504634,1.34569 -1.177479,1.34569 -0.588739,0 -1.009267,-0.50463 -1.093373,-1.09337 0.168212,0.42053 0.504634,0.75695 0.925162,0.75695 0.588739,0 1.009267,-0.58874 1.009267,-1.34569 -0.08411,-0.33642 -0.168211,-0.58874 -0.252317,-0.84105 z M 59.00237,195.3432 c 0.58874,0 1.093373,-0.58874 1.093373,-1.34569 0,-0.25232 -0.08411,-0.50464 -0.168211,-0.75695 0.336422,0.25231 0.588739,0.67284 0.588739,1.17748 0,0.75695 -0.588739,1.34569 -1.261584,1.34569 -0.588739,0 -1.093373,-0.50464 -1.177478,-1.09338 0.0841,0.42053 0.504633,0.67285 0.925161,0.67285 z m -6.728448,5.80328 c 0.252317,-2.18674 2.186746,-3.0278 4.373492,-3.19601 4.20528,0 7.569504,2.01854 9.588038,3.70065 17.578071,17.40986 24.054203,34.90382 25.147575,38.35215 -0.420528,-0.0841 -0.75695,-0.16821 -1.177478,-0.25231 -8.494666,-21.19462 -24.811153,-35.40846 -24.811153,-35.40846 -8.578771,-7.73772 -12.027101,-3.95297 -13.036368,-2.10264 0,-0.42053 -0.08411,-0.84106 -0.08411,-1.09338 z m 22.96083,15.22312 -1.009267,0.67284 -1.682113,-2.18674 0.756951,-0.84106 c 0.75695,0.84106 1.34569,1.59801 1.934429,2.35496 z m -16.989332,-15.64364 0,1.34569 c -0.420528,-0.33643 -2.523168,-0.42053 -2.523168,-0.42053 l -0.336422,-1.34569 c 0.925161,-0.0841 1.934428,0.0841 2.85959,0.42053 z m -2.186746,13.20458 c -2.354957,-3.86886 -3.280118,-7.4013 -3.616541,-9.75625 0,-0.33643 0,-0.67285 -0.0841,-1.09338 0.504633,-1.68211 1.429795,-2.52316 2.607274,-2.77548 l 0.504633,1.76622 c 1.34569,-0.25232 3.196013,0.42052 3.196013,0.42052 l 0.168211,-1.68211 c 2.69138,1.09338 5.214548,3.28012 5.214548,3.28012 3.280118,2.9437 6.30792,6.13971 8.999299,9.41983 l -1.009267,1.17748 2.10264,2.85959 1.598006,-0.67285 c 7.905927,10.34499 12.531735,20.35356 13.625108,22.62441 -1.34569,-0.25232 -2.439062,-0.58874 -3.280119,-0.75695 C 76.244019,218.55634 62.4507,214.18285 62.4507,214.18285 c -2.85959,-1.26158 -6.392026,-0.25231 -6.392026,-0.25231 z m 15.475431,24.30652 -0.504633,-5.55097 c 0.504633,-0.0841 1.093372,-0.25232 1.682112,-0.50464 l 0.08411,-3.11191 1.934429,1.4298 0.252317,2.60727 c 0.168211,0.0841 0.336422,0.16822 0.588739,0.25232 -1.009267,0.33642 -3.027802,1.4298 -4.037069,4.87813 z m 0.252317,0.58873 c -0.08411,0 -0.168211,0 -0.252317,-0.0841 l 0,-0.0841 0.252317,0.16821 z m 1.009267,-11.69067 0.08411,-1.93443 1.34569,1.00926 0.252316,2.18675 -1.682112,-1.26158 z m 2.859591,8.15824 -0.252317,3.70065 c -0.925162,0.16821 -1.34569,0.58874 -1.598006,0.84105 -0.252317,-0.25231 -0.58874,-0.42053 -0.925162,-0.58874 0.08411,-0.92516 0.672845,-3.36422 2.775485,-3.95296 z m -0.420528,5.71918 c 1.682112,1.26158 4.289385,0.16821 4.289385,0.16821 l -0.08411,3.11191 c -0.841056,0.0841 -1.682112,0.0841 -2.523168,-0.0841 0,0 -0.756951,0 -1.934429,-0.0841 l -0.168211,-0.92516 0.420528,-2.18675 z m 0.925161,-0.92516 0.336423,-6.39203 c 0.925161,0.25232 1.850323,0.25232 2.523168,0.25232 l -0.588739,6.56024 c -1.261584,0.33642 -2.270852,-0.42053 -2.270852,-0.42053 z m -0.420528,-7.73772 0,-5.46686 c 0.420528,-0.0841 1.009268,-0.0841 1.34569,0 1.093373,1.42979 2.186746,2.85959 3.027802,4.20528 l -0.168212,1.68211 c -2.607273,0.67285 -4.20528,-0.42053 -4.20528,-0.42053 z m -14.634374,-11.60657 -0.336423,-5.71918 0.841056,0.25232 c 2.10264,0.58874 4.121175,1.598 5.971498,2.77548 l 0,1.85032 -0.08411,0.50464 c -2.775485,-0.0841 -5.466864,0.16821 -6.392025,0.33642 z m 1.850323,0.84106 c 1.766217,0 4.289386,-0.0841 6.223814,-0.16821 l 1.009268,6.56023 c -2.10264,0.42053 -4.541703,0.33642 -5.55097,0.33642 l -1.682112,-6.72844 z m 2.523168,9.92446 -0.756951,-2.9437 c 1.766218,0.58874 4.373492,0.25232 5.635076,0.0841 l 0.420528,2.85959 c 0,0 -2.943696,1.26158 -5.298653,0 z m 2.85959,1.42979 c 0.504634,0 1.093373,0 1.682112,-0.0841 l 0.925162,6.64434 c -0.420528,0.33642 -1.261584,0.25232 -1.429795,0.16821 l -1.177479,-6.72845 z m 4.962231,7.82182 0.08411,3.19602 c -2.10264,-0.25232 -4.625808,-0.84106 -6.223814,-2.01854 l -0.08411,-1.42979 c 3.111908,1.26158 6.223815,0.25231 6.223815,0.25231 z m -7.569504,1.5139 c 0,0 1.177478,2.27086 11.186045,3.02781 0,0 2.607273,0.25231 5.55097,-0.33643 l 0,3.95297 c -1.682112,0.33642 -3.700647,0.67284 -5.298653,0.58874 0,0 -8.410561,-0.16821 -11.690679,-3.70065 l 0.252317,-3.53244 z m 10.260883,23.54957 C 63.039439,259.9363 53.114978,256.9085 53.114978,256.9085 l 11.606573,-10.17678 c 0.925162,0.75695 4.205281,2.9437 11.438362,3.70065 0.58874,4.62581 -0.168211,15.39132 -0.168211,15.39132 z m 22.876724,-11.77478 c -2.439062,1.93443 -21.531034,12.36352 -21.531034,12.36352 l -0.588739,-15.98006 c 0.336422,0 0.588739,0.0841 0.841056,0.0841 0,0 6.476131,-0.50463 8.831088,-1.68211 l 12.447629,5.21455 z m -11.85889,-9.16751 -0.0841,-0.92516 c 0,-0.0841 0,-0.0841 0,-0.16821 0,-0.0841 0.0841,-0.25232 0,-0.33643 -0.08411,-0.58874 -0.252317,-0.67284 -0.504634,-0.58874 -0.336423,-0.25231 -0.925162,-0.58874 -1.934429,-1.00926 0.08411,-0.42053 0.168211,-1.00927 0.168211,-1.68212 4.709914,1.34569 9.503933,2.10264 14.129741,2.35496 -5.550969,0.67285 -10.008566,1.85032 -11.774784,2.35496 z M 92.4764,240.17148 C 85.495635,218.80866 68.674515,202.23986 65.478502,199.21206 66.908297,134.11432 95.420096,115.8634 95.420096,115.8634 l -0.672844,-0.25231 c 4.878124,1.34569 16.064168,4.20528 22.624408,3.86885 0,0 0.16821,-0.0841 0.58874,-0.33642 0.92516,4.4576 3.44833,20.60587 2.18674,59.71498 0,0 -0.50463,47.85609 -6.64434,61.98583 -8.74698,0.75695 -15.980064,0.16821 -21.0264,-0.67285 z m 26.66148,-121.78491 c 3.53243,-2.10264 11.10194,-6.56024 11.52246,-6.56024 13.28869,22.11978 12.44763,63.58384 11.27015,82.25528 -2.85959,23.21315 -17.24164,41.71638 -20.43766,45.66935 -2.10264,0.33642 -4.12117,0.67284 -6.0556,0.84105 1.26158,-7.65361 9.67214,-62.32225 3.70065,-122.20544 z m 38.09983,136.50339 c -14.55026,-0.50463 -27.41842,1.4298 -30.0257,1.85033 -1.85032,-1.93443 -7.40129,-6.98077 -7.40129,-6.98077 -0.42053,-1.68211 16.5688,-7.40129 16.5688,-7.40129 3.02781,1.5139 17.49397,10.5132 20.85819,12.53173 z"
     id="path6068"
     inkscape:connector-curvature="0"
     style="fill:#001c58" /><path
     d="m 36.546175,124.44218 c -12.615841,37.51109 -13.036369,65.85468 -13.036369,65.85468 0,0 22.287985,-16.23238 27.082004,-51.97726 4.79402,-35.74488 -1.093373,-45.33292 -1.093373,-45.33292 l 0.756951,3.532435 c 0,0 -13.96153,21.615145 -20.353556,62.238145 0,0.0841 0.336422,-13.87742 6.644343,-34.31508 z"
     id="path6070"
     inkscape:connector-curvature="0"
     style="fill:#00b1eb" /><g
     id="g6072"
     transform="matrix(0.84105603,0,0,0.84105603,21.995905,-0.03411652)"><path
       d="m 49.1,127 c 2.4,0.3 18.4,2.6 21.7,4 l 1.7,-15.1 c -6.3,-2.4 -10.9,-9 -10.9,-15.8 0,-8.1 5.9,-14.8 13.8,-16.5 L 76.7,73 c -0.5,0 -1.1,0 -1.6,0.1 0.2,0.2 0.3,0.4 0.3,0.6 0,0.6 -0.7,1.1 -1.5,1.1 -0.7,0 -1.4,-0.4 -1.5,-0.9 0.2,0.3 0.7,0.6 1.2,0.6 0.7,0 1.3,-0.5 1.3,-1.1 0,-0.1 0,-0.2 -0.1,-0.3 -2.6,0.1 -5.1,0.3 -7.6,0.5 -3.6,0.7 -17.9,4.7 -22.2,23.7 l -0.9,1.8 -1.2,-2.4 c 0,0 10.9,-19 5.1,-19 l -7.7,14.9 c 0.1,0 8.4,12.9 8.8,34.4 z m 19.8,-8.2 c 0.7,0 1.3,-0.6 1.3,-1.3 0,-0.3 -0.1,-0.5 -0.2,-0.8 0.4,0.2 0.7,0.6 0.7,1.1 0,0.7 -0.7,1.3 -1.5,1.3 -0.7,0 -1.4,-0.5 -1.5,-1.1 0.2,0.5 0.7,0.8 1.2,0.8 z m -0.6,9.6 c 0.7,0 1.3,-0.6 1.3,-1.3 0,-0.3 -0.1,-0.5 -0.2,-0.8 0.4,0.2 0.7,0.6 0.7,1.1 0,0.7 -0.7,1.3 -1.5,1.3 -0.7,0 -1.4,-0.5 -1.5,-1.1 0.2,0.5 0.7,0.8 1.2,0.8 z m 4.5,-46.6 c 0.7,0 1.3,-0.5 1.3,-1.2 0,-0.2 -0.1,-0.5 -0.2,-0.7 0.4,0.2 0.7,0.6 0.7,1 0,0.6 -0.7,1.2 -1.5,1.2 -0.7,0 -1.4,-0.4 -1.5,-1 0.3,0.5 0.7,0.7 1.2,0.7 z m -13.7,45 c 0.7,0 1.3,-0.6 1.3,-1.3 0,-0.3 -0.1,-0.5 -0.2,-0.8 0.4,0.2 0.7,0.6 0.7,1.1 0,0.7 -0.7,1.3 -1.5,1.3 -0.7,0 -1.4,-0.5 -1.5,-1.1 0.2,0.5 0.6,0.8 1.2,0.8 z m -9,-11.8 c 0.9,0 1.6,-0.7 1.6,-1.6 0,-0.3 -0.1,-0.6 -0.3,-0.9 0.5,0.3 0.9,0.8 0.9,1.4 0,0.9 -0.8,1.6 -1.8,1.6 -0.9,0 -1.6,-0.6 -1.8,-1.3 0.2,0.5 0.8,0.8 1.4,0.8 z m -3.5,-14.9 c 0.8,0 1.4,-0.7 1.4,-1.6 0,-0.3 -0.1,-0.6 -0.2,-0.9 0.5,0.3 0.8,0.8 0.8,1.4 0,0.9 -0.7,1.6 -1.6,1.6 -0.8,0 -1.4,-0.6 -1.6,-1.3 0.2,0.4 0.6,0.8 1.2,0.8 z"
       id="path6074"
       inkscape:connector-curvature="0"
       style="fill:#00b1eb" /><path
       d="m 35.1,236.3 c 1.2,-1.8 6.7,-4.2 15.9,0.2 0,0 -2.8,-61.5 32.4,-98.4 l -0.6,-2 c 0,0 5.7,-13.6 27.7,-27.1 0,0 1.4,-5.1 -7.2,-36 0,0 -12.5,-0.6 -25.9,0 l -1.1,10.2 c 0.7,-0.1 2.2,-0.1 2.9,-0.1 9.8,0 17.7,7.6 17.7,16.9 0,9.3 -7.9,16.9 -17.7,16.9 -2.1,0 -4.2,-0.4 -6.1,-1.1 l -1.3,16.8 c -4.3,-2.1 -19.5,-4.7 -22.9,-5.1 0,2.3 -0.1,4.8 -0.3,7.3 -2,26.3 -14,37.3 -14,37.3 0,0 -0.2,1 -0.6,2.7 -0.5,2.3 -1.1,4.6 -1.8,7 -2.1,7.6 -5.3,17.9 -9.4,24.2 l 7.9,23.7 c 0.3,0.2 3.3,8.4 4.4,6.6 z m 72.9,-129 c 0.7,0 1.3,-0.6 1.3,-1.3 0,-0.3 -0.1,-0.5 -0.2,-0.8 0.4,0.2 0.7,0.6 0.7,1.1 0,0.7 -0.7,1.3 -1.5,1.3 -0.7,0 -1.4,-0.5 -1.5,-1.1 0.2,0.5 0.7,0.8 1.2,0.8 z m -3,-16.7 c 0.7,0 1.3,-0.6 1.3,-1.3 0,-0.3 -0.1,-0.5 -0.2,-0.8 0.4,0.2 0.7,0.6 0.7,1.1 0,0.7 -0.7,1.3 -1.5,1.3 -0.7,0 -1.4,-0.5 -1.5,-1.1 0.2,0.5 0.7,0.8 1.2,0.8 z M 101,76 c 0.7,0 1.3,-0.5 1.3,-1.1 0,-0.2 -0.1,-0.4 -0.2,-0.6 0.4,0.2 0.7,0.5 0.7,0.9 0,0.6 -0.7,1.1 -1.5,1.1 -0.7,0 -1.4,-0.4 -1.5,-0.9 0.3,0.3 0.7,0.6 1.2,0.6 z m -49.6,56.1 c 0.9,0 1.6,-0.7 1.6,-1.6 0,-0.3 -0.1,-0.6 -0.3,-0.9 0.5,0.3 0.9,0.8 0.9,1.4 0,0.9 -0.8,1.6 -1.8,1.6 -0.9,0 -1.6,-0.6 -1.8,-1.3 0.3,0.5 0.8,0.8 1.4,0.8 z m -2.4,15 c 0.9,0 1.6,-0.7 1.6,-1.6 0,-0.3 -0.1,-0.6 -0.3,-0.9 0.5,0.3 0.9,0.8 0.9,1.4 0,0.9 -0.8,1.6 -1.8,1.6 -0.9,0 -1.6,-0.6 -1.8,-1.3 0.3,0.4 0.8,0.8 1.4,0.8 z m -5,13.4 c 0.7,0 1.2,-0.7 1.2,-1.6 0,-0.3 -0.1,-0.6 -0.2,-0.9 0.4,0.3 0.7,0.8 0.7,1.4 0,0.9 -0.6,1.6 -1.4,1.6 -0.7,0 -1.2,-0.6 -1.3,-1.3 0.1,0.4 0.5,0.8 1,0.8 z m 0,71.8 c 0.7,0 1.3,-0.7 1.3,-1.6 0,-0.3 -0.1,-0.6 -0.2,-0.9 0.4,0.3 0.7,0.8 0.7,1.4 0,0.9 -0.7,1.6 -1.5,1.6 -0.7,0 -1.3,-0.6 -1.4,-1.3 0.1,0.5 0.6,0.8 1.1,0.8 z m -9.7,2.7 c 0.5,0 0.8,-0.7 0.8,-1.6 0,-0.3 -0.1,-0.6 -0.2,-0.9 0.3,0.3 0.5,0.8 0.5,1.4 0,0.9 -0.4,1.6 -1,1.6 -0.5,0 -0.9,-0.6 -0.9,-1.3 0.1,0.5 0.4,0.8 0.8,0.8 z"
       id="path6076"
       inkscape:connector-curvature="0"
       style="fill:#00b1eb" /></g><path
     d="m 88.775754,69.100689 c -8.578772,0 -15.559537,6.812554 -15.559537,15.139008 0,8.326455 6.980765,15.139009 15.559537,15.139009 8.578771,0 15.559536,-6.812554 15.559536,-15.139009 -0.0841,-8.326454 -7.06487,-15.139008 -15.559536,-15.139008 z m 0,29.352855 c -8.074138,0 -14.634375,-6.392026 -14.634375,-14.297952 0,-7.905927 6.560237,-14.297953 14.634375,-14.297953 8.074138,0 14.634376,6.392026 14.634376,14.297953 0,7.905926 -6.560238,14.297952 -14.634376,14.297952 z"
     id="path6078"
     inkscape:connector-curvature="0"
     style="fill:#001c58" /><path
     d="m 109.21341,5.7691701 c 0,0.084106 0.0841,0.084106 0.0841,0.1682112 0,-0.084106 0,-0.084106 -0.0841,-0.1682112 z"
     id="path6080"
     inkscape:connector-curvature="0"
     style="fill:#001c58" /><path
     d="m 100.04591,5.348642 c 0,0 0,0 0,0 0,0 0,0 0,0 z"
     id="path6082"
     inkscape:connector-curvature="0"
     style="fill:#001c58" /><path
     d="m 98.279687,9.5539222 c 0,0 0,0 0,0 0,0 -0.08411,0 -0.168211,0 0.08411,0 0.168211,0 0.168211,0 z"
     id="path6084"
     inkscape:connector-curvature="0"
     style="fill:#001c58" /><g
     id="g6086"
     transform="matrix(0.84105603,0,0,0.84105603,21.995905,-0.03411652)"><path
       d="m 113.9,170.1 c -0.4,-1.4 -0.8,-2.7 -1.2,-4 -6.3,1.7 -11.3,7.1 -13.2,14.2 7.3,2.6 17.7,2.9 14.4,-10.2 z"
       id="path6088"
       inkscape:connector-curvature="0"
       style="fill:#ffffff" /><path
       d="m 116.7,165.5 c -1.4,0 -2.7,0.2 -4,0.6 0.5,1.3 0.9,2.6 1.2,4 3.3,13.1 -7.1,12.8 -14.5,10.2 -0.6,2.1 -0.9,4.4 -0.9,6.8 0,6 2.2,11.5 5.7,15.4 10.2,-7.3 18.4,-19.7 21.2,-34.3 -2.5,-1.8 -5.5,-2.7 -8.7,-2.7 z"
       id="path6090"
       inkscape:connector-curvature="0"
       style="fill:#a5a9c6" /><path
       d="m 125.5,168.1 c -2.9,14.6 -11,27 -21.2,34.3 3.3,3.7 7.7,5.9 12.6,5.9 2.5,-10.3 10.3,-16.7 18.3,-21.4 0,0 0,0 0,-0.1 -0.2,-8.1 -4,-15.1 -9.7,-18.7 z"
       id="path6092"
       inkscape:connector-curvature="0"
       style="fill:#7d84ab" /><path
       d="m 116.8,208.3 c 0,0 0.1,0 0.1,0 10.1,-0.1 18.2,-9.7 18.1,-21.4 -7.9,4.6 -15.7,11.1 -18.2,21.4 z"
       id="path6094"
       inkscape:connector-curvature="0"
       style="fill:#a5a9c6" /></g><ellipse
     transform="matrix(-0.99998245,0.00592448,-0.00592448,-0.99998245,0,0)"
     cx="-114.70341"
     cy="-149.88086"
     rx="3.196069"
     ry="5.7192817"
     id="ellipse6096"
     style="fill:#ffffff" /><path
     d="m 120.14714,138.06728 c -8.91519,0.0841 -16.06417,8.57877 -15.98006,19.09197 0.0841,10.51321 7.31719,18.92377 16.23238,18.92377 8.83109,-0.0841 16.06417,-8.57878 15.98006,-19.09198 -0.0841,-10.42909 -7.40129,-18.92376 -16.23238,-18.92376 z m 0.16821,36.92236 c -8.41056,0.0841 -15.22311,-7.90592 -15.30722,-17.83039 -0.0841,-9.84035 6.72845,-17.91449 15.13901,-17.99859 8.41056,-0.0841 15.22312,7.90592 15.30722,17.83038 0,9.92446 -6.72845,17.9986 -15.13901,17.9986 z"
     id="path6098"
     inkscape:connector-curvature="0"
     style="fill:#001c58" /><path
     stroke-miterlimit="10"
     d="m 120.9882,141.68382 c -7.06487,0 -12.78405,6.81256 -12.69995,15.22312 0.0841,8.32645 5.80329,15.13901 12.86816,15.0549 7.06487,0 12.78405,-6.89666 12.69995,-15.22311 0,-8.41056 -5.80329,-15.13901 -12.86816,-15.05491 z"
     id="path6100"
     inkscape:connector-curvature="0"
     style="fill:#ffdd00;stroke:#001c58;stroke-width:0.84105605;stroke-miterlimit:10" /><path
     d="m 116.02597,149.42154 c -1.17748,1.76622 -2.60727,2.77548 -3.19601,2.18674 -0.58874,-0.58873 -0.0841,-2.52316 1.09337,-4.28938 1.17748,-1.76622 2.60727,-2.77549 3.19601,-2.18675 0.58874,0.58874 0.0841,2.52317 -1.09337,4.28939 z"
     id="path6102"
     inkscape:connector-curvature="0"
     style="fill:#ffffff" /><path
     d="m 120.65178,170.53205 c -0.42053,0 -0.84106,0 -1.17748,-0.0841 3.86886,-0.33642 7.73771,-3.28012 9.84035,-8.15824 2.35496,-5.55097 1.85033,-11.943 -1.00926,-16.14828 2.43906,2.52317 4.03707,6.22382 4.03707,10.4291 0.0841,7.65361 -5.21455,13.87742 -11.69068,13.96153 z"
     id="path6104"
     inkscape:connector-curvature="0"
     style="fill:#fab690" /><path
     d="m 145.46293,141.93614 c -2.60727,-30.61444 -5.63508,-38.68858 -5.63508,-38.68858 0,0 -3.53243,-11.017831 -5.55097,-14.718477 0,0 -1.17747,6.139709 -4.28938,8.41056 0,0 -3.61654,2.270852 -8.66288,-7.485398 -5.04633,-9.75625 -1.68211,-16.821121 -0.75695,-17.157543 0.92516,-0.252317 7.4854,1.766217 7.4854,1.766217 0,0 -2.35496,-8.242349 -4.03707,-8.915194 -1.68211,-0.588739 -2.69138,-2.943696 -13.79332,-3.784752 0,0 5.8874,20.942295 5.80329,31.034968 0,0 10.68141,8.158239 14.71848,13.709209 2.35496,2.9437 2.01853,5.46687 2.01853,5.46687 12.11121,27.50253 10.4291,50.88389 11.43837,65.18184 l 1.26158,1.76622 c 0.58874,-9.75625 0,-36.58594 0,-36.58594 z"
     id="path6106"
     inkscape:connector-curvature="0"
     style="fill:#00b1eb" /><path
     d="m 145.96756,107.11642 c 0,0 -0.42052,-3.19601 -2.60727,-3.36422 0,0 0,0 0,0 -1.09337,-0.33643 -2.01853,0 -2.01853,0 7.5695,27.33432 5.13044,78.1341 5.13044,78.1341 l 7.99003,15.55954 c 0.84106,2.43906 3.19601,5.80328 3.61654,4.03707 0.50463,-2.69138 -0.75695,-53.65938 -12.11121,-94.36649 z"
     id="path6108"
     inkscape:connector-curvature="0"
     style="fill:#00b1eb" /><flowRoot
     xml:space="preserve"
     id="flowRoot6116"
     style="font-style:normal;font-weight:normal;font-size:40px;line-height:125%;font-family:sans-serif;text-align:center;letter-spacing:0px;word-spacing:0px;text-anchor:middle;fill:#001c58;fill-opacity:1;stroke:none;stroke-width:1px;stroke-linecap:butt;stroke-linejoin:miter;stroke-opacity:1"
     transform="matrix(0.84105603,0,0,0.84105603,21.995905,-18.537349)"><flowRegion
       id="flowRegion6118"><rect
         id="rect6120"
         width="219.93164"
         height="64.567085"
         x="-1.3451476"
         y="336.2869"
         style="text-align:center;text-anchor:middle;fill:#001c58;fill-opacity:1" /></flowRegion><flowPara
       id="flowPara6124"
       style="font-style:normal;font-variant:normal;font-weight:bold;font-stretch:normal;font-size:25px;font-family:'DejaVu Sans';-inkscape-font-specification:'DejaVu Sans Bold';text-align:center;text-anchor:middle;fill:#001c58;fill-opacity:1">LINUXCHIX</flowPara><flowPara
       style="font-style:normal;font-variant:normal;font-weight:bold;font-stretch:normal;font-size:25px;font-family:'DejaVu Sans';-inkscape-font-specification:'DejaVu Sans Bold';text-align:center;text-anchor:middle;fill:#001c58;fill-opacity:1"
       id="flowPara6128">ARGENTINA</flowPara></flowRoot><text
     xml:space="preserve"
     style="font-style:normal;font-weight:normal;font-size:33.64224243px;line-height:125%;font-family:sans-serif;letter-spacing:0px;word-spacing:0px;fill:#000000;fill-opacity:1;stroke:none;stroke-width:1px;stroke-linecap:butt;stroke-linejoin:miter;stroke-opacity:1"
     x="113.63482"
     y="246.03331"
     id="text6130"
     sodipodi:linespacing="125%"><tspan
       sodipodi:role="line"
       id="tspan6132"
       x="113.63482"
       y="246.03331"></tspan></text>
</svg>