<?xml version="1.0" encoding="UTF-8" standalone="no"?>
<!-- Created with Inkscape (http://www.inkscape.org/) -->

<svg
   xmlns:dc="http://purl.org/dc/elements/1.1/"
   xmlns:cc="http://creativecommons.org/ns#"
   xmlns:rdf="http://www.w3.org/1999/02/22-rdf-syntax-ns#"
   xmlns:svg="http://www.w3.org/2000/svg"
   xmlns="http://www.w3.org/2000/svg"
   xmlns:sodipodi="http://sodipodi.sourceforge.net/DTD/sodipodi-0.dtd"
   xmlns:inkscape="http://www.inkscape.org/namespaces/inkscape"
   width="156.84842mm"
   height="244.17062mm"
   id="svg4077"
   version="1.1"
   inkscape:version="0.92.4 (unknown)"
   sodipodi:docname="linuxchixar-isotipo.svg">
  <defs
     id="defs3">
    <filter
       style="color-interpolation-filters:sRGB"
       inkscape:label="Colorize"
       id="filter5083">
      <feComposite
         in2="SourceGraphic"
         operator="arithmetic"
         k1="0"
         k2="1"
         result="composite1"
         id="feComposite5085"
         k3="0"
         k4="0" />
      <feColorMatrix
         in="composite1"
         values="1"
         type="saturate"
         result="colormatrix1"
         id="feColorMatrix5087" />
      <feFlood
         flood-opacity="1"
         flood-color="rgb(0,0,0)"
         result="flood1"
         id="feFlood5089" />
      <feBlend
         in="flood1"
         in2="colormatrix1"
         mode="darken"
         result="blend1"
         id="feBlend5091" />
      <feBlend
         in2="blend1"
         mode="screen"
         result="blend2"
         id="feBlend5093" />
      <feColorMatrix
         in="blend2"
         values="1"
         type="saturate"
         result="colormatrix2"
         id="feColorMatrix5095" />
      <feComposite
         in="colormatrix2"
         in2="SourceGraphic"
         operator="in"
         result="composite2"
         id="feComposite5097" />
    </filter>
  </defs>
  <sodipodi:namedview
     inkscape:document-units="mm"
     id="base"
     pagecolor="#ffffff"
     bordercolor="#666666"
     borderopacity="1.0"
     inkscape:pageopacity="0.0"
     inkscape:pageshadow="2"
     inkscape:zoom="0.56"
     inkscape:cx="242.74077"
     inkscape:cy="212.13363"
     inkscape:current-layer="layer1"
     showgrid="false"
     inkscape:window-width="1366"
     inkscape:window-height="768"
     inkscape:window-x="0"
     inkscape:window-y="27"
     inkscape:window-maximized="0"
     showguides="false"
     fit-margin-top="0"
     fit-margin-left="0"
     fit-margin-right="0"
     fit-margin-bottom="0" />
  <metadata
     id="metadata4">
    <rdf:RDF>
      <cc:Work
         rdf:about="">
        <dc:format>image/svg+xml</dc:format>
        <dc:type
           rdf:resource="http://purl.org/dc/dcmitype/StillImage" />
        <dc:title></dc:title>
      </cc:Work>
    </rdf:RDF>
  </metadata>
  <g
     inkscape:label="Layer 1"
     inkscape:groupmode="layer"
     id="layer1"
     transform="translate(-73.551868,-38.642956)">
    <g
       id="g3"
       transform="matrix(2.8928123,0,0,2.8928123,73.62739,39.263881)">
      <path
         d="m 84.6,8.6 c 0,0 0.3,4 3.7,4 L 88.6,11 c 0,0 -2.5,-1.9 -0.3,-5.1 0.1,0 -3.7,0.4 -3.7,2.7 z"
         id="path5"
         inkscape:connector-curvature="0"
         style="fill:#a5a9c6" />
      <path
         d="m 97.5,7.3 c 0,0 -0.9,1.9 0,3.1 l 2.2,2.2 0.7,-2.7 0.2,-3.5 c 0,-0.1 -2.5,-0.2 -3.1,0.9 z"
         id="path7"
         inkscape:connector-curvature="0"
         style="fill:#a5a9c6" />
      <path
         d="m 93.1,7.5 c 0,-0.2 0,-0.4 0.1,-0.7 -0.5,-0.9 -1.5,-1.5 -2.6,-1.5 -1.7,0 -3.1,1.4 -3.1,3.1 0,1.7 1.3,3 2.9,3.1 1.2,-0.9 2.2,-2.2 2.7,-4 z"
         id="path9"
         inkscape:connector-curvature="0"
         style="fill:#f4763b" />
      <path
         d="m 93.2,6.8 c 0,0.3 -0.1,0.5 -0.1,0.7 -0.6,1.9 -1.5,3.2 -2.7,4.1 0.1,0 0.1,0 0.2,0 1.7,0 3.1,-1.4 3.1,-3.1 0,-0.7 -0.2,-1.2 -0.5,-1.7 z"
         id="path11"
         inkscape:connector-curvature="0"
         style="fill:#f89c6e" />
      <path
         d="m 104,6.7 c -0.5,-0.6 -1.2,-0.9 -1.9,-0.8 -1.2,0.2 -1.9,1.8 -1.6,3.5 0.2,1.2 1,2.2 1.8,2.6 1.3,-1.5 1.9,-3.3 1.7,-5.3 z"
         id="path13"
         inkscape:connector-curvature="0"
         style="fill:#f4763b" />
      <path
         d="m 104.9,8.6 c -0.2,-0.8 -0.5,-1.4 -0.9,-1.9 0.2,2 -0.4,3.8 -1.6,5.3 0.3,0.1 0.6,0.2 1,0.1 1.1,-0.2 1.8,-1.8 1.5,-3.5 z"
         id="path15"
         inkscape:connector-curvature="0"
         style="fill:#f89c6e" />
      <ellipse
         transform="matrix(0.8299,0.5579,-0.5579,0.8299,19.2686,-48.4615)"
         cx="89.099998"
         cy="7.4000001"
         rx="0.40000001"
         ry="0.89999998"
         id="ellipse17"
         style="fill:#ffffff" />
      <ellipse
         transform="matrix(0.9908,0.135,-0.135,0.9908,1.9153,-13.6263)"
         cx="101.5"
         cy="7.3000002"
         rx="0.30000001"
         ry="0.80000001"
         id="ellipse19"
         style="fill:#ffffff" />
    </g>
    <path
       d="m 301.58112,244.94283 c 0,0 1.73578,-19.09252 -7.81035,-29.79595 0,0 1.44616,-16.48904 9.54613,-24.01032 0,0 3.47123,-12.72842 -2.31437,-20.82829 l 6.07489,-0.57872 c 0,0 4.91803,18.22475 5.20701,22.27464 0,0 17.35712,4.91777 30.95339,0.57869 0,0 -2.60366,-16.19971 -4.33944,-17.93543 l 11.2819,4.33922 c 0,0 11.28223,31.82096 13.01768,31.82096 0,0 -3.18193,16.19971 -13.59595,17.93542 l -10.41433,15.62116 c 0.29089,0 -35.87078,0 -37.60656,0.57869 z"
       id="path21"
       inkscape:connector-curvature="0"
       style="fill:#666e9a" />
    <polygon
       points="95.5,70.3 95.5,65.5 97.7,65.6 98.1,71.1 "
       id="polygon23"
       transform="matrix(2.8928123,0,0,2.8928123,73.62739,39.263881)"
       style="fill:#a5a9c6" />
    <polygon
       points="109,73 105.1,71.5 105.1,64.7 107.5,64.3 110,65.9 "
       id="polygon25"
       transform="matrix(2.8928123,0,0,2.8928123,73.62739,39.263881)"
       style="fill:#a5a9c6" />
    <path
       d="m 285.6708,82.656038 c 0,0 -8.67856,-16.199743 3.47123,-25.456703 0,0 11.8605,-8.678463 13.88557,-8.678463 l 19.67117,-6.074896 c 0,0 9.54612,-3.471359 11.2819,0 l 6.07489,9.256992 c 0,0 -13.59627,2.603568 -18.22468,8.389167 l -1.73578,-4.339216 -5.7856,6.074896 -2.60334,-4.04992 -13.01768,23.721023 c 0.29089,0 -10.41434,10.124879 -13.01768,1.15712 z"
       id="path27"
       inkscape:connector-curvature="0"
       style="fill:#a5a9c6" />
    <path
       d="m 252.11407,163.65478 c 0,0 33.26743,8.67847 34.42462,-12.72835 L 266.86752,102.3272 c 0,0 1.73546,-14.753387 17.0675,-13.596203 0,0 -4.04982,-7.810639 -11.2819,-8.678463 0,0 -22.27483,-0.867824 -17.0675,23.142496 0,0 17.0675,41.36724 13.88525,45.99572 0.29089,0 -6.3642,14.46403 -17.3568,14.46403 z"
       id="path29"
       inkscape:connector-curvature="0"
       style="fill:#a5a9c6" />
    <path
       d="m 312.57373,192.00438 c 0,0 -1.44616,-15.62118 -5.20701,-20.82825 l 6.36419,-4.62848 c 0,0 3.18226,-9.54632 4.05014,-24.58895 0,0 -20.53905,-17.93545 -23.72131,-23.72105 0,0 -12.14979,4.91781 -24.01028,-10.12485 0,0 -4.04983,-19.960395 17.3568,-18.224715 l 22.56412,-30.374542 4.91771,2.314272 0.86789,4.049952 3.76053,1.15712 c 0,0 1.73578,12.728351 18.80328,7.810575 0,0 4.33944,-1.73568 7.81067,-6.074895 l 9.54645,0.578719 6.07489,5.207008 c 0,0 -11.28222,15.621215 -1.44648,27.192446 l 4.33912,4.33921 -3.47123,23.1425 c 0,0 -7.52137,15.62121 -15.33205,19.9604 l -17.0675,-4.33919 c 0,0 -0.86789,31.53167 8.38895,30.95307 h 3.47155 l 2.60366,16.48904 c 0.29089,0 -14.17486,6.36419 -30.66409,-0.28929 z"
       id="path31"
       inkscape:connector-curvature="0"
       style="fill:#fdd1b7" />
    <path
       d="m 364.06585,108.1128 c 0,0 -11.86049,5.20707 -17.3568,4.33922 0,0 -4.91771,-0.57872 -2.60366,-5.7856 0,0 9.25715,-8.389167 14.46416,-6.0749 -0.2909,0 8.38926,5.20701 5.4963,7.52128 z"
       id="path33"
       inkscape:connector-curvature="0"
       style="fill:#fcc4a3" />
    <path
       d="m 266.86752,102.3272 c 0,0 7.52106,14.75336 16.19962,17.06757 0,0 10.9926,2.60357 10.9926,-1.73568 0,0 -5.7856,-20.538957 -5.207,-25.746029 0,0 -17.06751,-2.603536 -21.98522,10.414139 z"
       id="path35"
       inkscape:connector-curvature="0"
       style="fill:#fcc4a3" />
    <path
       d="m 352.20536,133.85883 -9.25684,1.44639 c 0,0 -8.67855,-4.91778 -8.67855,-7.81058 0,0 20.82835,-4.33918 23.72099,-1.44638 0,0 3.76084,7.81057 -5.7856,7.81057 z"
       id="path37"
       inkscape:connector-curvature="0"
       style="fill:#f9a97e" />
    <path
       d="m 289.72062,90.755973 c 0,0 4.05015,36.738667 35.29251,48.020637 0,0 -27.48183,-18.22472 -24.0106,-57.566956 z"
       id="path39"
       inkscape:connector-curvature="0"
       style="fill:#ffede2" />
    <path
       d="m 355.67691,104.93074 -8.38927,3.18206 c 0,0 -1.44648,-8.389131 1.44648,-16.489003 0,0 3.76053,13.306943 6.94279,13.306943 z"
       id="path41"
       inkscape:connector-curvature="0"
       style="fill:#ffede2" />
    <path
       d="m 314.3095,91.623797 c 0,0 3.47155,7.52128 19.09258,4.917776 0,0 7.52137,-4.339216 2.31436,-7.810576 0,-0.289296 -15.33204,-7.810639 -21.40694,2.8928 z"
       id="path43"
       inkscape:connector-curvature="0"
       style="fill:#ffffff" />
    <path
       d="m 239.38568,252.17491 35.0029,-3.47139 c 0,0 20.53905,-4.33924 18.225,-13.88554 l -4.91803,-27.19238 9.25715,-7.52135 6.65349,-10.41411 c 0,0 3.18194,-15.62121 -4.05014,-21.40685 0,0 -8.67824,-4.33921 -12.72807,-3.18209 0,0 -13.01768,6.65345 -21.98553,30.66384 v 3.18209 l 12.72838,19.09255 c 0,0 1.44648,5.20707 -6.94278,6.94275 l -11.2819,-16.48904 c 0.29089,0 -12.43909,41.65652 -19.96047,43.68152 z"
       id="path45"
       inkscape:connector-curvature="0"
       style="fill:#fcc4a3" />
    <path
       d="m 248.64283,198.65784 6.94279,4.91777 15.33173,21.98541 c 0,0 8.38926,-3.47139 6.94278,-6.94278 l -13.88557,-18.80328 -1.73545,-10.12482 c 0,0 -9.25716,-1.73568 -13.59628,8.9677 z"
       id="path47"
       inkscape:connector-curvature="0"
       style="fill:#a5a9c6" />
    <path
       d="m 287.98485,246.09995 c 0,0 5.20733,-5.78559 6.65349,-6.65345 l 1.73577,4.04995 z"
       id="path49"
       inkscape:connector-curvature="0"
       style="fill:#a5a9c6" />
    <g
       id="g51"
       transform="matrix(2.8928123,0,0,2.8928123,73.62739,39.263881)">
      <path
         d="m 144.3,180.5 c -0.7,-11.9 -2.5,-23 -6,-29.8 0,0 -5.1,-18.3 -9.2,-19.6 l -14.8,10.2 c 0,0 -24.3,-3.6 -26.9,-5.4 0,0 -42.1,34.7 -37.6,99.1 0,0 22.4,22.1 31,41.9 41.6,-12.7 57.6,-64.8 63.5,-96.4 z"
         id="path53"
         inkscape:connector-curvature="0"
         style="fill:#ffffff" />
      <path
         d="m 119.3,285.4 c 0,0 20.8,-27.5 23.5,-49.8 0,0 3.1,-29.5 1.5,-55 -5.9,31.6 -21.9,83.7 -63.6,96.4 1.3,2.9 2.2,5.8 2.8,8.5 0,-0.1 21.4,4.4 35.8,-0.1 z"
         id="path55"
         inkscape:connector-curvature="0"
         style="fill:#d3d5e4" />
    </g>
    <path
       d="m 248.35354,879.62587 c -7.81067,-1.44639 -15.91064,-4.62848 -24.58888,-9.54626 l -2.02507,15.04262 c 0,0 -43.39217,32.68879 -45.12795,36.73867 0,0 68.27035,24.29968 87.07363,36.73874 v 0 c -0.86789,-20.2497 -2.02476,-39.63154 -2.02476,-61.61691 -15.33204,0.2893 -14.17486,-7.23202 -13.30697,-17.35686 z"
       id="path57"
       inkscape:connector-curvature="0"
       style="fill:#fab690" />
    <path
       d="m 296.37411,890.61854 -8.38926,-13.01765 c 0,0 -16.77821,6.94275 -39.63131,2.31427 -0.86789,10.12485 -2.02507,17.35687 13.30697,17.35687 0,21.98537 1.15687,41.36721 2.02476,61.6169 l 77.81677,-45.1279 z"
       id="path59"
       inkscape:connector-curvature="0"
       style="fill:#f4763b" />
    <path
       d="m 403.98678,894.66852 31.53166,30.66378 c 0,0 102.11636,-8.38917 108.19126,-9.83556 l -77.52749,-48.88852 c -16.48891,6.65349 -34.13532,10.99267 -53.2279,13.59624 z"
       id="path61"
       inkscape:connector-curvature="0"
       style="fill:#fab690" />
    <path
       d="m 447.95753,858.50838 -29.50659,13.01761 -5.49663,8.67847 c 18.80328,-2.60357 36.4497,-6.94275 53.2279,-13.59624 l -0.57859,-0.2893 -17.64641,-7.81057 z"
       id="path63"
       inkscape:connector-curvature="0"
       style="fill:#f4763b" />
    <g
       id="g65"
       transform="matrix(2.8928123,0,0,2.8928123,73.62739,39.263881)">
      <path
         d="m 44.3,254.2 c -0.6,-6.5 0.3,-12.9 0.1,-19.5 -2.1,-0.1 -4.1,0.1 -5.7,0.5 1.6,6.4 1.8,12.9 3.2,19.2 0.7,-0.2 1.5,-0.2 2.4,-0.2 z"
         id="path67"
         inkscape:connector-curvature="0"
         style="fill:#ffffff" />
      <path
         d="m 38.7,235.2 c -2.2,0.5 -3.6,1.1 -3.6,1.1 -1.8,7.7 4.8,19 4.8,19 0.6,-0.5 1.3,-0.8 2,-0.9 -1.4,-6.3 -1.6,-12.9 -3.2,-19.2 z"
         id="path69"
         inkscape:connector-curvature="0"
         style="fill:#a5a9c6" />
      <path
         d="m 50.8,236.5 c -2.1,-1.2 -4.3,-1.7 -6.4,-1.8 0.2,6.6 -0.7,13 -0.1,19.5 3,0.2 6.4,2 9.3,3.9 2.2,-3.7 4.7,-7.3 7.5,-10.7 -5.8,-6.6 -10.3,-10.9 -10.3,-10.9 z"
         id="path71"
         inkscape:connector-curvature="0"
         style="fill:#a5a9c6" />
      <path
         d="m 72.4,279.3 c 1.5,2.9 2.4,5 2.4,5 l 8.6,1.4 c -0.7,-2.7 -1.7,-5.3 -2.8,-8 -2.7,0.7 -5.4,1.1 -8.2,1.6 z"
         id="path73"
         inkscape:connector-curvature="0"
         style="fill:#a5a9c6" />
      <path
         d="m 61,247.5 c -2.8,3.3 -5.3,6.9 -7.5,10.7 4.3,2.9 7.6,6.2 7.6,6.2 4.7,3.1 8.8,10.1 11.2,14.9 2.7,-0.4 5.5,-0.9 8.2,-1.5 C 75.7,266.1 67.6,255.2 61,247.5 Z"
         id="path75"
         inkscape:connector-curvature="0"
         style="fill:#666e9a" />
      <path
         d="m 119.2,285.7 6.1,-1.8 c 0,0 19.5,-28.1 16.8,-41.5 l -1.1,0.2 c -0.1,0 -10.3,33.6 -21.8,43.1 z"
         id="path77"
         inkscape:connector-curvature="0"
         style="fill:#666e9a" />
      <polygon
         points="63,273.5 60.1,271.4 59.1,265.1 62.8,267.6 "
         id="polygon79"
         style="fill:#666e9a" />
      <path
         d="m 70,276.6 c 0.2,-1.6 -4.3,-7.7 -4.3,-7.7 l -2.3,-0.2 0.2,7.9 1.2,1.1 -0.5,0.7 c -2.5,0.2 -5.3,5.4 -5.3,5.4 L 57.7,276 c 0.8,-0.2 1.5,-0.5 1.9,-1 l -2,-12.5 c 0,0 -3.2,-6.3 -13.4,-7.5 v 1.8 l 1.8,2.7 0.6,2.7 2.2,1 c 0,0 0.8,11 2.4,12.1 0,0 1.3,0.4 3,0.6 l 1.3,8.7 -2,0.5 -0.2,2.7 c 3.6,3.4 16.1,2.9 16.1,2.9 L 69.2,285 Z"
         id="path81"
         inkscape:connector-curvature="0"
         style="fill:#a5a9c6" />
    </g>
    <polygon
       points="47.8,255.8 48.3,262.6 50.1,262.6 53.9,276.2 56.4,276.4 53.7,262.3 51.9,262.3 51.2,256.7 "
       id="polygon83"
       transform="matrix(2.8928123,0,0,2.8928123,73.62739,39.263881)"
       style="fill:#ffffff" />
    <polygon
       points="57.1,286.4 56.7,289.3 54.8,288.9 54.8,285.7 "
       id="polygon85"
       transform="matrix(2.8928123,0,0,2.8928123,73.62739,39.263881)"
       style="fill:#ffffff" />
    <polygon
       points="64.9,277.7 64.1,268.5 66.4,269.4 65.9,277.5 "
       id="polygon87"
       transform="matrix(2.8928123,0,0,2.8928123,73.62739,39.263881)"
       style="fill:#ffffff" />
    <g
       id="g89"
       transform="matrix(2.8928123,0,0,2.8928123,73.62739,39.263881)">
      <path
         d="m 36.1,99.8 1.3,11.4 -2,3.4 -1.4,43 0.8,3.2 c 8.1,-19.5 11.3,-41.7 1.3,-61 z"
         id="path91"
         inkscape:connector-curvature="0"
         style="fill:#666e9a" />
      <path
         d="m 39,92.4 -3,7.3 v 0.2 c 0.4,0.7 0.7,1.4 1,2.1 0.5,-2.7 1.7,-5.3 3,-7.8 -0.6,-1.2 -1,-1.8 -1,-1.8 z"
         id="path93"
         inkscape:connector-curvature="0"
         style="fill:#a5a9c6" />
      <path
         d="m 40.1,94.1 c -1.4,2.5 -2.5,5 -3,7.8 1.4,3 2.5,6.1 3.3,9.2 1.7,-1.4 3.5,-3.2 5.4,-4.8 -2,-5.8 -4.4,-10 -5.7,-12.2 z"
         id="path95"
         inkscape:connector-curvature="0"
         style="fill:#ffffff" />
      <path
         d="m 45.8,106.4 c -1.9,1.6 -3.6,3.4 -5.4,4.8 2.3,8.6 2.4,17.5 1.1,26.4 2.2,0.7 4.3,1.8 6.4,3 2.8,-13.9 0.7,-25.8 -2.1,-34.2 z"
         id="path97"
         inkscape:connector-curvature="0"
         style="fill:#a5a9c6" />
      <path
         d="m 41.5,137.5 c -1,6.8 -2.9,13.5 -5.3,20 -0.4,1.1 -0.9,2.3 -1.4,3.4 l 1.7,6.6 c 1.1,-1.7 2.2,-3.5 3.2,-5.2 4.3,-7.6 6.9,-14.9 8.3,-21.7 -2.2,-1.3 -4.3,-2.5 -6.5,-3.1 z"
         id="path99"
         inkscape:connector-curvature="0"
         style="fill:#666e9a" />
    </g>
    <path
       d="m 97.927292,592.36961 c 0,0 9.256828,-125.83729 69.427518,-238.65699 0,0 10.41402,19.09251 9.83542,27.48168 z"
       id="path101"
       inkscape:connector-curvature="0"
       style="fill:#ffffff" />
    <path
       d="m 202.06842,330.85939 -11.28191,-17.64613 19.09258,-51.20279 c 0,0 26.32466,-11.86056 62.19544,-12.43912 l -45.12793,60.45982 c 0,0 -26.90325,8.3891 -24.87818,20.82822 z"
       id="path103"
       inkscape:connector-curvature="0"
       style="fill:#ffffff" />
    <path
       d="m 495.6888,470.58221 c 0,0 -19.67116,-53.80627 -32.68884,-64.799 l 4.33944,-40.49936 -25.45677,-73.4774 -15.62134,-28.0603 c -22.85311,-20.2497 -122.6551,-19.09258 -122.6551,-19.09258 l -18.22469,2.02498 c -17.64609,3.76065 -76.081,70.5846 -76.081,70.5846 l -9.25715,13.01765 c 36.73867,106.16625 -11.86051,180.22224 -11.86051,180.22224 -22.27451,12.43906 -54.38476,113.97683 -54.38476,113.97683 l 32.39955,86.49505 c 0,7.81064 8.38894,14.46412 8.38894,14.46412 8.38926,-12.43915 42.5246,-7.81064 42.5246,-7.81064 -24.87818,-145.21919 95.75185,-278.57785 95.75185,-278.57785 -1.44616,-41.94574 78.68467,-80.70945 78.68467,-80.70945 40.2099,15.91051 59.01318,50.04568 65.95596,65.0883 l 0.2877,4.33918 c 0,0 41.36741,113.97683 34.13533,203.07548 l 1.44648,23.72102 c 0,0 6.65348,20.2497 11.2819,20.82829 -0.29089,0.28929 23.1424,-159.68326 -8.96786,-204.81116 z"
       id="path105"
       inkscape:connector-curvature="0"
       style="fill:#001c58" />
    <g
       id="g107"
       transform="matrix(2.8928123,0,0,2.8928123,73.62739,39.263881)">
      <path
         d="m 76.8,86.3 c -0.4,-1.1 -0.8,-2.2 -1.2,-3.2 -6.3,1.3 -11.4,5.6 -13.4,11.3 7.4,2.1 17.9,2.4 14.6,-8.1 z"
         id="path109"
         inkscape:connector-curvature="0"
         style="fill:#ffffff" />
      <path
         d="m 79.6,82.7 c -1.4,0 -2.8,0.2 -4.1,0.4 0.5,1 0.9,2.1 1.2,3.2 3.2,10.5 -7.2,10.2 -14.7,8.1 -0.6,1.7 -1,3.5 -1,5.4 0,4.8 2.2,9.2 5.7,12.3 10.4,-5.8 18.7,-15.7 21.7,-27.3 -2.5,-1.3 -5.5,-2.1 -8.8,-2.1 z"
         id="path111"
         inkscape:connector-curvature="0"
         style="fill:#a5a9c6" />
      <path
         d="m 88.5,84.8 c -3,11.6 -11.3,21.6 -21.7,27.3 3.3,2.9 7.7,4.8 12.7,4.8 2.6,-8.2 10.5,-13.3 18.6,-17.1 0,0 0,0 0,0 0,-6.5 -3.9,-12.1 -9.6,-15 z"
         id="path113"
         inkscape:connector-curvature="0"
         style="fill:#7d84ab" />
      <path
         d="m 79.5,116.9 c 0,0 0.1,0 0.1,0 10.2,0 18.4,-7.6 18.5,-17.1 -8.1,3.8 -15.9,8.9 -18.6,17.1 z"
         id="path115"
         inkscape:connector-curvature="0"
         style="fill:#a5a9c6" />
      <path
         d="m 127.6,91.8 c -4.3,-0.7 -8.5,-2.5 -12.8,-3.7 -0.9,3 -1.5,5.7 -1.6,8.1 5.2,-0.6 10.9,0.4 14.4,-4.4 z"
         id="path117"
         inkscape:connector-curvature="0"
         style="fill:#ffffff" />
      <path
         d="m 128.7,93.1 -2.9,-7 c -2.5,-2.9 -9.7,-1.6 -9.7,-1.6 -0.5,1.2 -0.9,2.4 -1.2,3.5 4.3,1.2 8.5,3 12.8,3.7 -3.5,4.9 -9.1,3.9 -14.4,4.4 -0.5,6.4 1.4,10.9 4,14.1 4.9,-1.4 9.5,-3.4 13.5,-6.5 z"
         id="path119"
         inkscape:connector-curvature="0"
         style="fill:#a5a9c6" />
      <path
         d="m 130.6,103.7 c -4.1,3.1 -8.6,5.1 -13.5,6.5 2.1,2.5 4.6,4.1 6.7,5.1 2.9,-3.6 5,-7.3 6.9,-11.2 z"
         id="path121"
         inkscape:connector-curvature="0"
         style="fill:#7d84ab" />
      <path
         d="m 123.8,115.3 c 2.2,1 3.8,1.4 3.8,1.4 l 4.5,-5 -1.4,-7.6 c -1.9,3.9 -4,7.6 -6.9,11.2 z"
         id="path123"
         inkscape:connector-curvature="0"
         style="fill:#a5a9c6" />
    </g>
    <path
       d="m 445.06457,420.53654 1.73577,-1.15709 h 7.81067 c 0,0 -25.45676,-60.45976 -63.06332,-61.03835 0,0 -70.5847,43.10289 -81.28801,72.03105 44.83864,-2.60357 89.67695,-15.33192 134.80489,-9.83561 z"
       id="path125"
       inkscape:connector-curvature="0"
       style="fill:#fab690" />
    <path
       d="m 310.25968,430.37215 c 0,0 0,0 0,0 0,0 14.46416,5.20704 26.03536,6.65342 0,0 61.03825,13.88554 65.66666,11.28204 l 42.81357,-27.77107 c -44.83864,-5.49631 -89.67695,7.23204 -134.51559,9.83561 z"
       id="path127"
       inkscape:connector-curvature="0"
       style="fill:#f4763b" />
    <path
       d="m 381.13367,358.3411 c 0,0 22.27451,28.92816 28.06011,53.22777 0,0 -38.76374,-30.6638 -51.78142,-35.29235 z"
       id="path129"
       inkscape:connector-curvature="0"
       style="fill:#ffede2" />
    <ellipse
       cx="297.24179"
       cy="317.26315"
       rx="7.2320309"
       ry="10.414124"
       id="ellipse131"
       style="fill:#ffffff;stroke-width:2.89281225" />
    <ellipse
       cx="437.54318"
       cy="310.0311"
       rx="4.6285"
       ry="7.8105931"
       id="ellipse133"
       style="fill:#ffffff;stroke-width:2.89281225" />
    <path
       d="m 447.37893,351.10908 5.7856,3.47133 c 0,0 9.25684,0.57872 7.23208,-21.69604 0,0 -5.7856,-37.02803 -19.67116,-35.58162 0,0.2893 15.33172,54.09557 6.65348,53.80633 z"
       id="path135"
       inkscape:connector-curvature="0"
       style="fill:#f4763b" />
    <path
       d="m 296.37411,349.95193 c 0,0 10.41402,11.28197 21.69624,5.78567 0,0 24.29958,-9.83559 17.64609,-33.55667 0,0 -4.05014,-11.28194 -13.01767,-13.01765 0,0 4.04982,36.16017 -26.32466,40.78865 z"
       id="path137"
       inkscape:connector-curvature="0"
       style="fill:#f4763b" />
    <path
       d="m 325.8807,433.26495 c -2.60334,-0.2893 -4.91771,-0.2893 -6.65349,0 l 3.76085,0.2893 z"
       id="path139"
       inkscape:connector-curvature="0"
       style="fill:#2b165e" />
    <path
       d="m 244.30339,724.57116 c 0.57892,0.86788 0.86789,1.73568 0.86789,2.6035 0,2.60357 -2.02507,4.62854 -4.62841,4.62854 -1.73578,0 -3.18226,-1.15715 -4.05015,-2.60356 0.2909,2.025 2.60367,3.76068 5.20733,3.76068 2.89264,0 5.20701,-2.02497 5.20701,-4.62848 0,-1.44641 -1.15719,-2.8928 -2.60367,-3.76068 z"
       id="path141"
       inkscape:connector-curvature="0"
       style="fill:#2b165e" />
    <path
       d="m 277.57083,760.442 c 0.57859,0.86789 0.86789,1.73571 0.86789,2.60357 0,2.6035 -2.02507,4.62851 -4.62842,4.62851 -1.73577,0 -3.18225,-1.15712 -4.05014,-2.60357 0.2909,2.02498 2.60367,3.76066 5.20701,3.76066 2.89296,0 5.20733,-2.02498 5.20733,-4.62848 0,-1.44638 -1.15719,-2.8928 -2.60367,-3.76069 z"
       id="path143"
       inkscape:connector-curvature="0"
       style="fill:#2b165e" />
    <path
       d="m 303.60619,800.65213 c 0.57859,0.86782 0.86789,1.73571 0.86789,2.6035 0,2.60357 -2.02507,4.62851 -4.62874,4.62851 -1.73545,0 -3.18193,-1.15712 -4.04982,-2.60353 0.2877,2.025 2.60366,3.76068 5.20701,3.76068 2.89296,0 5.20701,-2.02497 5.20701,-4.62847 0,-1.44648 -0.86757,-2.89287 -2.60335,-3.76069 z"
       id="path145"
       inkscape:connector-curvature="0"
       style="fill:#2b165e" />
    <path
       d="m 322.12017,842.30864 c 0.5786,0.57872 0.86789,1.44641 0.86789,2.31424 0,2.31427 -2.02507,4.33924 -4.62841,4.33924 -1.73578,0 -3.18226,-0.86788 -4.05015,-2.31427 0.2909,2.02498 2.60367,3.47136 5.20701,3.47136 2.89296,0 5.20733,-2.02497 5.20733,-4.33918 0,-1.15715 -1.15719,-2.60357 -2.60367,-3.47139 z"
       id="path147"
       inkscape:connector-curvature="0"
       style="fill:#2b165e" />
    <path
       d="m 403.40818,494.88183 c 0.5786,0.86788 0.86789,1.73568 0.86789,2.60356 0,2.60351 -2.02507,4.62848 -4.62873,4.62848 -1.73546,0 -3.18194,-1.15708 -4.04983,-2.6035 0.2909,2.02494 2.60367,3.76062 5.20701,3.76062 2.89296,0 5.20701,-2.02491 5.20701,-4.62848 0,-1.44641 -1.15687,-2.8928 -2.60335,-3.76068 z"
       id="path149"
       inkscape:connector-curvature="0"
       style="fill:#2b165e" />
    <path
       d="m 406.01153,574.43419 c 0.57891,0.86789 0.86789,1.73568 0.86789,2.60357 0,2.6035 -2.02476,4.62848 -4.62842,4.62848 -1.73577,0 -3.18194,-1.15715 -4.04982,-2.60357 0.29089,2.02498 2.60334,3.76069 5.207,3.76069 2.89264,0 5.20701,-2.02498 5.20701,-4.62851 0,-1.44639 -1.15718,-3.18207 -2.60366,-3.76066 z"
       id="path151"
       inkscape:connector-curvature="0"
       style="fill:#2b165e" />
    <path
       d="m 405.14396,653.11866 c 0.57859,0.86789 0.86757,1.73572 0.86757,2.60357 0,2.60351 -2.02475,4.62848 -4.62842,4.62848 -1.73577,0 -3.18193,-1.15709 -4.04982,-2.6035 0.29089,2.02494 2.60334,3.76062 5.20701,3.76062 2.89296,0 5.207,-2.02491 5.207,-4.62848 0,-1.73571 -1.15718,-3.18209 -2.60334,-3.76069 z"
       id="path153"
       inkscape:connector-curvature="0"
       style="fill:#2b165e" />
    <path
       d="m 401.67241,730.64605 c 0.57859,0.86786 0.86789,1.73568 0.86789,2.60357 0,2.6035 -2.02507,4.62848 -4.62842,4.62848 -1.73577,0 -3.18225,-1.15712 -4.05014,-2.6035 0.29089,2.02491 2.60366,3.76062 5.20732,3.76062 2.89264,0 5.20701,-2.02501 5.20701,-4.62851 0,-1.44639 -1.15718,-2.8928 -2.60366,-3.76066 z"
       id="path155"
       inkscape:connector-curvature="0"
       style="fill:#2b165e" />
    <path
       d="m 394.72963,812.80198 c 0.57891,0.86779 0.86788,1.73562 0.86788,2.60351 0,2.6035 -2.02507,4.62848 -4.62841,4.62848 -1.73578,0 -3.18194,-1.15712 -4.04983,-2.60351 0.2909,2.02491 2.60335,3.76063 5.20701,3.76063 2.89264,0 5.20701,-2.02495 5.20701,-4.62852 -0.2909,-1.44638 -1.15718,-2.8928 -2.60366,-3.76059 z"
       id="path157"
       inkscape:connector-curvature="0"
       style="fill:#2b165e" />
    <path
       d="m 427.70777,836.52301 c 0.29089,0.86785 0.57859,1.73568 0.57859,2.60356 0,2.60351 -1.15687,4.62848 -2.89264,4.62848 -1.15718,0 -2.02507,-1.15718 -2.60366,-2.60357 0.29089,2.02498 1.73577,3.76066 3.18225,3.76066 1.73546,0 3.18194,-2.02498 3.18194,-4.62848 0.29089,-1.44638 -0.57859,-2.8928 -1.44648,-3.76065 z"
       id="path159"
       inkscape:connector-curvature="0"
       style="fill:#2b165e" />
    <path
       d="m 446.80034,802.38784 c 0.2909,0.86779 0.57859,1.73568 0.57859,2.6035 0,2.60357 -1.15686,4.62848 -2.89264,4.62848 -1.15718,0 -2.02507,-1.15712 -2.60366,-2.6035 0.29089,2.02497 1.73578,3.76065 3.18226,3.76065 1.73577,0 3.18193,-2.02497 3.18193,-4.62847 0.2877,-1.44645 -0.29089,-2.89287 -1.44616,-3.76066 z"
       id="path161"
       inkscape:connector-curvature="0"
       style="fill:#2b165e" />
    <path
       d="m 465.60362,766.51696 c 0.2909,0.86783 0.2909,1.73568 0.2909,2.60351 0,2.6035 -0.86789,4.62848 -2.02508,4.62848 -0.86788,0 -1.44616,-1.15709 -2.02475,-2.60351 0.2909,2.02501 1.15687,3.76063 2.31405,3.76063 1.44648,0 2.60366,-2.02492 2.60366,-4.62848 0.2909,-1.44642 -0.29089,-2.8928 -1.15718,-3.76063 z"
       id="path163"
       inkscape:connector-curvature="0"
       style="fill:#2b165e" />
    <path
       d="m 478.04271,730.64605 c 0.29089,0.86786 0.29089,1.73568 0.29089,2.60357 0,2.6035 -0.86789,4.62848 -2.02507,4.62848 -0.86789,0 -1.44616,-1.15712 -2.02475,-2.6035 0.29089,2.02491 1.15686,3.76062 2.31405,3.76062 1.44648,0 2.31436,-2.02501 2.31436,-4.62851 0.2909,-1.44639 -0.29089,-2.8928 -0.86788,-3.76066 z"
       id="path165"
       inkscape:connector-curvature="0"
       style="fill:#2b165e" />
    <path
       d="m 294.34904,877.60089 0.86789,7.23205 c 0.29089,-2.60357 0.29089,-5.49637 -0.86789,-7.23205 z"
       id="path167"
       inkscape:connector-curvature="0"
       style="fill:#2b165e" />
    <path
       d="m 295.50622,884.83294 c 0,0.57872 0,1.15712 0,1.73571 0,0 0.2909,0 0.2909,0 z"
       id="path169"
       inkscape:connector-curvature="0"
       style="fill:#2b165e" />
    <path
       d="m 292.32429,85.259606 c 0,0 0,0 0,0 0,0.289296 0,0.289296 0,0.578687 0.29089,-0.289296 0,-0.289296 0,-0.578687 z"
       id="path171"
       inkscape:connector-curvature="0"
       style="fill:#2b165e" />
    <path
       d="m 304.47408,282.83869 c -26.32466,0 -47.7316,20.53899 -47.7316,45.70643 0,25.1675 21.40694,45.70649 47.7316,45.70649 26.32465,0 47.73128,-20.53899 47.73128,-45.70649 0,-25.16744 -21.40663,-45.70643 -47.73128,-45.70643 z m 0,88.52006 c -24.87818,0 -44.83864,-19.38184 -44.83864,-43.10293 0,-23.72102 20.24976,-43.10286 44.83864,-43.10286 24.87817,0 44.83864,19.38184 44.83864,43.10286 0.29089,24.01038 -19.96047,43.10293 -44.83864,43.10293 z"
       id="path173"
       inkscape:connector-curvature="0"
       style="fill:#001c58" />
    <path
       d="m 309.39179,303.37768 c -15.91032,0 -28.928,12.43909 -28.928,27.77101 0,15.33185 13.01768,27.771 28.928,27.771 15.91032,0 28.928,-12.43915 28.928,-27.771 0,-15.33192 -13.01768,-27.77101 -28.928,-27.77101 z m -11.2819,14.17477 c -2.60367,3.18209 -5.7856,4.91777 -7.23208,4.04992 -1.15719,-1.15712 -0.2909,-4.62852 2.60366,-7.81061 2.60335,-3.18207 5.7856,-4.91778 7.23176,-4.04989 1.44648,1.15712 0.2909,4.62848 -2.60334,7.81058 z m 10.12472,38.47444 c -0.86789,0 -1.73578,0 -2.60367,0 8.67856,-0.57872 17.35712,-5.78566 22.27483,-14.75336 5.49631,-10.12484 4.33912,-21.69611 -2.02507,-29.50675 5.49631,4.62855 8.96786,11.57127 8.96786,19.09261 0,13.88547 -11.8605,25.1675 -26.61395,25.1675 z"
       id="path175"
       inkscape:connector-curvature="0"
       style="fill:#001c58" />
    <path
       d="m 342.08064,81.498918 c -1.73578,0.289296 -22.56413,-6.074864 -22.56413,-6.074864 -5.20701,0 -12.14979,7.231984 -12.14979,7.231984 l 10.12504,-4.62848 c 5.4963,0 23.1424,8.967727 23.1424,8.967727 3.76052,-1.735679 3.18193,-7.521343 3.18193,-7.521343 z"
       id="path177"
       inkscape:connector-curvature="0"
       style="fill:#001c58" />
    <path
       d="m 336.00574,87.863109 c 0,0 -9.83574,-7.231983 -4.62873,-1.735679 0,0 -19.38156,-4.339216 -19.67085,5.207071 0,0 2.89264,2.8928 4.91771,2.8928 0,0 0.57859,-5.496304 4.04982,-6.653488 0,0 9.54645,-2.314207 15.91064,4.049984 l 3.18194,1.73568 z"
       id="path179"
       inkscape:connector-curvature="0"
       style="fill:#001c58" />
    <path
       d="m 325.01313,86.416725 c -2.60366,0.289296 -4.62873,2.024976 -4.33944,3.760656 0,2.024976 2.31437,3.182096 4.91772,3.182096 2.60366,-0.289296 4.62873,-2.024976 4.33944,-3.760688 -0.2909,-2.024976 -2.31437,-3.182064 -4.91772,-3.182064 z m -1.73577,4.049952 c -0.57891,0 -1.44648,-0.578688 -1.44648,-1.157152 0,-0.578719 0.57859,-1.15712 1.15718,-1.446416 0.57859,0 1.44648,0.578688 1.44648,1.157152 0,0.867824 -0.57891,1.446416 -1.15718,1.446416 z"
       id="path181"
       inkscape:connector-curvature="0"
       style="fill:#001c58" />
    <path
       d="m 287.40626,103.77362 c 0,0 -0.5786,-10.124847 -12.72839,-2.60357 0,0 -3.47123,3.47139 0.57891,6.94275 0,0 -2.02507,-4.62848 0.86789,-5.49637 0,0 1.44616,6.94279 6.36419,10.99274 0,0 -5.7856,-11.57123 0,-12.72842 0,0 -1.44648,8.67847 3.47124,9.54632 l 5.7856,1.44642 c 0,0.57869 -7.81068,-5.49637 -4.33912,-8.09987 z"
       id="path183"
       inkscape:connector-curvature="0"
       style="fill:#001c58" />
    <path
       d="m 324.14525,96.830869 c 0,0 9.54612,1.73568 12.43908,-3.760688 h 1.15687 c 0,0 -2.60335,6.942749 -8.67824,8.389169 0,0 3.18193,-2.024977 2.89264,-4.049985 -0.2909,0.289296 -2.60335,1.735712 -7.81035,-0.578688 z"
       id="path185"
       inkscape:connector-curvature="0"
       style="fill:#001c58" />
    <path
       d="m 325.59141,433.55425 c -2.60335,-0.2893 -4.91772,-0.2893 -6.65349,0 l 3.76085,0.28929 z"
       id="path187"
       inkscape:connector-curvature="0"
       style="fill:#001c58" />
    <path
       d="m 394.44033,365.28385 c 9.83574,11.28197 20.24976,39.34224 20.24976,39.34224 -2.60335,-24.29962 -20.24976,-39.34224 -20.24976,-39.34224 z"
       id="path189"
       inkscape:connector-curvature="0"
       style="fill:#001c58" />
    <path
       d="m 244.0141,725.14975 c 0.57891,0.86782 0.86789,1.73568 0.86789,2.6035 0,2.60357 -2.02507,4.62848 -4.62842,4.62848 -1.73577,0 -3.18225,-1.15709 -4.04982,-2.6035 0.29089,2.02497 2.60334,3.76069 5.207,3.76069 2.89264,0 5.20701,-2.02501 5.20701,-4.62858 0,-1.44638 -0.86789,-2.89277 -2.60366,-3.76059 z"
       id="path191"
       inkscape:connector-curvature="0"
       style="fill:#001c58" />
    <path
       d="m 277.28154,761.02059 c 0.57859,0.86783 0.86788,1.73572 0.86788,2.60351 0,2.60357 -2.02507,4.62854 -4.62841,4.62854 -1.73578,0 -3.18226,-1.15715 -4.05014,-2.60357 0.29089,2.02501 2.60366,3.76069 5.207,3.76069 2.89296,0 5.20733,-2.02497 5.20733,-4.62848 0,-1.73571 -1.15718,-3.18209 -2.60366,-3.76069 z"
       id="path193"
       inkscape:connector-curvature="0"
       style="fill:#001c58" />
    <path
       d="m 303.60619,801.23072 c 0.57859,0.86782 0.86789,1.73562 0.86789,2.6035 0,2.60351 -2.02507,4.62848 -4.62874,4.62848 -1.73545,0 -3.18193,-1.15709 -4.04982,-2.6035 0.2877,2.02494 2.60366,3.76062 5.20701,3.76062 2.89296,0 5.20701,-2.02491 5.20701,-4.62848 0,-1.73571 -1.15687,-3.18209 -2.60335,-3.76062 z"
       id="path195"
       inkscape:connector-curvature="0"
       style="fill:#001c58" />
    <path
       d="m 321.83088,842.88716 c 0.57859,0.57872 0.86789,1.44642 0.86789,2.31428 0,2.31424 -2.02508,4.33921 -4.62842,4.33921 -1.73578,0 -3.18226,-0.86782 -4.05014,-2.31421 0.29089,2.02492 2.60366,3.47136 5.207,3.47136 2.89296,0 5.20733,-2.02497 5.20733,-4.33924 0,-1.44642 -1.15718,-2.60351 -2.60366,-3.4714 z"
       id="path197"
       inkscape:connector-curvature="0"
       style="fill:#001c58" />
    <path
       d="m 403.11889,495.17112 c 0.57859,0.86789 0.86789,1.73568 0.86789,2.60357 0,2.6035 -2.02508,4.62848 -4.62842,4.62848 -1.73577,0 -3.18225,-1.15709 -4.05014,-2.60357 0.28769,2.02498 2.60366,3.76069 5.20701,3.76069 2.89295,0 5.20732,-2.02498 5.20732,-4.62848 0,-1.44642 -1.15718,-2.8928 -2.60366,-3.76069 z"
       id="path199"
       inkscape:connector-curvature="0"
       style="fill:#001c58" />
    <path
       d="m 405.72255,574.72349 c 0.57859,0.86782 0.86757,1.73568 0.86757,2.6035 0,2.60357 -2.02475,4.62854 -4.62842,4.62854 -1.73577,0 -3.18193,-1.15715 -4.04982,-2.60356 0.2909,2.02497 2.60335,3.76068 5.20701,3.76068 2.89264,0 5.20701,-2.025 5.20701,-4.62851 0,-1.44638 -1.15719,-2.89283 -2.60335,-3.76065 z"
       id="path201"
       inkscape:connector-curvature="0"
       style="fill:#001c58" />
    <path
       d="m 404.85466,653.40796 c 0.5786,0.86789 0.86789,1.73568 0.86789,2.60357 0,2.6035 -2.02507,4.62848 -4.62873,4.62848 -1.73546,0 -3.18194,-1.15709 -4.04983,-2.60357 0.2909,2.02501 2.60335,3.76069 5.20701,3.76069 2.89296,0 5.20701,-2.02498 5.20701,-4.62848 0,-1.44642 -1.15719,-2.8928 -2.60335,-3.76069 z"
       id="path203"
       inkscape:connector-curvature="0"
       style="fill:#001c58" />
    <path
       d="m 401.38311,731.22464 c 0.57859,0.8678 0.86789,1.73568 0.86789,2.60351 0,2.60357 -2.02507,4.62854 -4.62841,4.62854 -1.73578,0 -3.18226,-1.15718 -4.05015,-2.60357 0.2909,2.02498 2.60367,3.76066 5.20733,3.76066 2.89264,0 5.20701,-2.02498 5.20701,-4.62848 0,-1.44638 -1.15719,-2.89286 -2.60367,-3.76066 z"
       id="path205"
       inkscape:connector-curvature="0"
       style="fill:#001c58" />
    <path
       d="m 394.44033,813.38048 c 0.57891,0.86789 0.86789,1.73571 0.86789,2.60357 0,2.6035 -2.02507,4.62851 -4.62842,4.62851 -1.73577,0 -3.18193,-1.15719 -4.04982,-2.60357 0.29089,2.02498 2.60334,3.76066 5.20701,3.76066 2.89264,0 5.207,-2.02498 5.207,-4.62848 0,-1.44642 -1.15718,-2.8928 -2.60366,-3.76069 z"
       id="path207"
       inkscape:connector-curvature="0"
       style="fill:#001c58" />
    <path
       d="m 427.41847,836.8123 c 0.2909,0.86779 0.57859,1.73568 0.57859,2.6035 0,2.60357 -1.15686,4.62855 -2.89264,4.62855 -1.15718,0 -2.02507,-1.15719 -2.60366,-2.60357 0.29089,2.02498 1.73578,3.76066 3.18226,3.76066 1.73545,0 3.18193,-2.02498 3.18193,-4.62848 0.2909,-1.44639 -0.29089,-2.89287 -1.44648,-3.76066 z"
       id="path209"
       inkscape:connector-curvature="0"
       style="fill:#001c58" />
    <path
       d="m 446.80034,802.96634 c 0.2909,0.86788 0.57859,1.73571 0.57859,2.60356 0,2.60351 -1.15686,4.62851 -2.89264,4.62851 -1.15718,0 -2.02507,-1.15712 -2.60366,-2.6035 0.29089,2.02491 1.73578,3.76059 3.18226,3.76059 1.73577,0 3.18193,-2.02491 3.18193,-4.62848 0,-1.73568 -0.57859,-3.18209 -1.44616,-3.76068 z"
       id="path211"
       inkscape:connector-curvature="0"
       style="fill:#001c58" />
    <path
       d="m 465.60362,767.09549 c 0.2909,0.86789 0.2909,1.73568 0.2909,2.60357 0,2.6035 -0.86789,4.62848 -2.02508,4.62848 -0.86788,0 -1.44616,-1.15709 -2.02475,-2.60357 0.2909,2.02498 1.15687,3.76069 2.31405,3.76069 1.44648,0 2.60366,-2.02498 2.60366,-4.62851 0,-1.44639 -0.57859,-2.89277 -1.15718,-3.76066 z"
       id="path213"
       inkscape:connector-curvature="0"
       style="fill:#001c58" />
    <path
       d="m 477.75341,731.22464 c 0.2909,0.8678 0.2909,1.73568 0.2909,2.60351 0,2.60357 -0.86789,4.62854 -2.02508,4.62854 -0.86756,0 -1.44616,-1.15718 -2.02475,-2.60357 0.2909,2.02498 1.15719,3.76066 2.31405,3.76066 1.44648,0 2.31437,-2.02498 2.31437,-4.62848 0.29089,-1.44638 0,-2.89286 -0.86789,-3.76066 z"
       id="path215"
       inkscape:connector-curvature="0"
       style="fill:#001c58" />
    <path
       d="m 294.34904,877.89019 0.86789,7.23204 c 0,-2.31427 0,-5.49636 -0.86789,-7.23204 z"
       id="path217"
       inkscape:connector-curvature="0"
       style="fill:#001c58" />
    <path
       d="m 295.21693,885.41147 c 0,0.57872 0,1.15718 0,1.73571 0,0 0.29089,0 0.29089,0 z"
       id="path219"
       inkscape:connector-curvature="0"
       style="fill:#001c58" />
    <path
       d="m 172.56182,733.24962 -3.47155,-8.67846 c 0,0 -8.09965,6.07489 3.47155,8.67846 z"
       id="path221"
       inkscape:connector-curvature="0"
       style="fill:#001c58" />
    <path
       d="m 292.32429,85.548902 c -0.2909,0.289295 -0.2909,0.289295 0,0 0,0.289295 0,0.289295 0,0.578687 0,0 0,-0.289296 0,-0.578687 z"
       id="path223"
       inkscape:connector-curvature="0"
       style="fill:#001c58" />
    <path
       d="m 299.26707,78.895414 c 0,0 0,-0.289296 0,-0.578688 0,0 0,0 -0.29089,0.289296 0,0 0.29089,0.289296 0.29089,0.289296 z"
       id="path225"
       inkscape:connector-curvature="0"
       style="fill:#001c58" />
    <ellipse
       cx="289.72046"
       cy="115.63412"
       rx="1.7356875"
       ry="1.4464061"
       id="ellipse227"
       style="fill:#001c58;stroke-width:2.89281225" />
    <path
       d="M 666.36479,869.79032 C 660.2899,847.80494 487.87813,850.11921 455.4789,850.6978 l 1.15687,-12.43911 c 3.18225,-0.57869 8.38926,-2.60351 8.38926,-2.60351 l 4.33912,-31.53166 c 10.99293,-24.29962 15.04275,-41.36721 15.04275,-41.36721 5.20701,-17.64616 4.62842,-40.21013 3.76053,-52.93848 9.54644,-70.29534 11.28222,-133.64796 10.12504,-182.53645 8.38894,68.84892 -1.44648,137.69784 -1.44648,137.69784 48.02057,96.04137 48.88846,76.94883 48.88846,76.94883 7.81067,-124.10167 -41.07779,-336.43407 -41.07779,-336.43407 -9.25715,-19.09261 -16.77853,-18.80331 -21.69624,-13.30695 -5.7856,-18.51401 -13.88557,-39.92083 -21.69592,-59.59196 -0.57891,-7.23205 -2.31437,-12.43912 -2.31437,-12.43912 -1.73577,-10.41408 -8.67856,-19.09254 -12.43908,-23.43173 -8.09997,-18.80331 -14.17487,-31.82095 -14.17487,-31.82095 -3.18193,-4.62848 -10.12472,-8.38917 -18.80328,-11.57127 l 1.44648,-4.33918 c 2.31437,0.86782 4.04983,1.15709 4.04983,1.15709 3.18225,1.73571 6.36419,-3.18207 6.36419,-3.18207 3.18226,-0.57872 2.31437,-5.49636 2.31437,-5.49636 -0.2909,-0.86783 1.73577,-0.86783 1.73577,-0.86783 4.33912,-2.60357 2.02476,-7.23206 2.02476,-7.23206 -0.2909,-1.44641 1.44647,-2.31427 1.44647,-2.31427 3.18226,-1.73571 2.02508,-5.20701 2.02508,-5.20701 0,-1.44648 -6.36419,-7.23207 -8.09997,-8.67846 l 2.02507,-6.07489 0.86789,-1.73568 6.65349,-4.04996 c -7.52138,-10.12488 -16.48923,-6.94278 -16.48923,-6.94278 l 0.57891,7.81064 -2.89296,7.52128 -2.60367,-0.86786 c -8.38894,-6.36419 -10.41401,6.65346 -10.41401,6.65346 0,2.02497 -3.47123,4.62854 -3.47123,4.62854 0.57859,2.60351 4.62841,0.57872 4.62841,0.57872 0,1.73568 2.31405,2.60357 2.31405,2.60357 -3.47123,0.86779 -2.02475,6.94269 -2.02475,6.94269 -2.31437,0.57872 -4.05015,1.44645 -5.49631,2.02498 -1.73577,-2.60351 -15.62134,-22.27461 -19.09257,-31.24237 0,0 -11.8605,-34.13517 -21.40694,-34.42446 0,0 -7.81067,-1.73568 -10.99261,0.86788 0,0 -14.46416,-1.44648 -14.46416,-7.52134 0,0 -0.57859,-5.20707 -0.86789,-10.99267 0,0 0,0 0,0 v -4.04998 l -0.86757,-0.57869 c 8.38895,2.31421 14.17455,2.02491 14.17455,2.02491 l 3.76085,-2.8928 c 3.76052,-2.02498 19.96046,-12.43906 27.77081,-45.4171 0,0 0.86789,-8.099871 -2.02475,-17.06763 0,0 0.57859,-6.942752 1.44616,-12.149824 1.15718,2.024976 3.18225,5.207072 4.33944,6.942752 0,0 -0.57891,-9.835551 -3.18226,-19.671103 3.18226,4.339184 6.0749,8.967728 6.0749,8.967728 -1.73546,-7.232048 -5.49631,-13.306944 -8.96754,-17.067599 -2.31437,-4.628512 -5.20701,-8.678464 -9.25715,-10.414144 0,0 -24.01029,-5.496303 -33.26744,-1.446416 0,0 -24.87817,-2.024975 -46.86339,19.092607 0,0 -6.94278,13.596175 -5.7856,18.803247 0,0 -13.59627,-4.628512 -19.96046,1.446384 0,0 -10.12472,17.646191 -7.23208,23.142488 0,0 6.36419,23.72109 8.67856,28.3496 0,0 6.36419,22.27467 -0.86789,27.19245 0,0 -17.0675,7.52131 -12.14979,-8.09987 0,0 4.04983,-4.91778 6.94279,-1.44645 0,0 0,-5.20701 -6.94279,-6.0749 0,0 -19.96046,12.72839 -4.91771,19.09261 0,0 8.09965,8.6784 34.13501,6.94269 -3.18194,4.91781 -8.09965,12.72845 -13.01768,23.72108 l -1.15719,-4.91777 c -12.72838,-0.57869 -16.19961,11.86056 -16.19961,11.86056 l 8.67856,4.91777 2.02475,2.8928 c -3.18194,15.91045 -17.0675,37.89583 -20.82803,43.68143 -12.14979,2.02501 -22.27483,4.91781 -26.90325,8.67847 l -4.33912,8.96776 c -3.18225,0 -4.05014,3.18206 -4.05014,3.18206 l 0.86789,2.8928 -9.25685,18.80331 c -4.62873,-0.57869 -5.78592,3.47139 -5.78592,3.47139 l 1.73578,4.04989 0.57891,-0.57869 c 0,0.2893 0,0.57869 -0.29089,0.86789 l -0.86757,1.73568 -3.47155,-0.28929 c 0,0 -11.28191,23.72108 -10.41402,28.92815 v 0 c -0.86789,10.41411 0.86757,29.21739 1.44616,33.84591 l -0.57859,0.57868 c -2.02475,-5.78566 -4.33912,-10.99273 -7.23208,-15.04262 0,0 0.86789,-8.67846 -6.0749,5.20707 0,0 -73.477338,151.29406 -84.759241,291.88477 0,0 -11.281903,58.43478 -0.867888,52.35988 0,0 65.955969,-47.44211 96.330769,-166.33671 -4.62874,40.78866 -35.00322,104.14128 -35.00322,104.14128 12.43909,45.99569 28.34973,84.18077 35.58181,100.38058 2.60334,19.09254 10.70331,39.63153 10.70331,39.63153 l 19.09259,13.88548 1.44648,10.70344 4.91771,0.28929 10.12472,35.29235 c 0,0 3.18225,1.44638 8.09997,2.02498 l 4.04982,19.9604 c -2.31405,0.86782 -6.65349,2.31424 -6.65349,2.31424 l -0.57859,4.33921 -5.20701,1.44639 -1.15718,15.33195 -43.10288,35.87084 c -5.207,3.1821 -3.18225,4.62848 -3.18225,4.62848 27.48185,4.62851 90.54517,37.31726 90.54517,37.31726 22.27451,-15.04262 83.31277,-46.57422 83.31277,-46.57422 l -9.25684,-4.62854 73.47734,-1.15712 23.72099,18.22472 c 12.1498,-2.8928 88.52009,-8.09987 107.61267,-9.54626 9.25715,1.73568 1.15718,-4.33928 1.15718,-4.33928 -1.44648,-0.86779 -2.60366,-1.73568 -4.04982,-2.6035 l -4.33944,-8.38917 C 666.94211,892.06502 666.36351,869.79041 666.36351,869.79041 Z M 100.81993,585.71616 c 0,0 2.60367,-101.24841 67.40245,-226.21797 l 2.60366,12.14985 c 0,0 -48.30987,74.056 -70.00611,214.06812 z m 72.60978,134.80504 c -1.44648,0 -2.60367,-1.73564 -2.60367,-3.76062 0.2909,1.44638 1.15719,2.6035 2.02507,2.6035 1.44616,0 2.31405,-2.02497 2.31405,-4.62848 0,-0.86782 -0.29089,-1.73571 -0.57859,-2.6035 0.86789,0.86779 1.44648,2.31421 1.44648,4.04989 0,2.31427 -1.15718,4.33921 -2.60366,4.33921 z m 256.88172,140.87998 c -2.60366,0.57872 -5.20733,1.15712 -8.09997,1.73571 36.16008,-41.9458 61.90614,-119.47319 61.90614,-119.47319 -8.96753,56.12057 -41.65638,102.40556 -53.80617,117.73748 z m 15.91032,1.73571 v 7.23202 c -7.23208,5.207 -27.48184,5.7856 -27.48184,5.7856 3.76085,0.28929 27.48184,-13.01762 27.48184,-13.01762 z M 456.63577,324.4952 c 3.47155,14.75336 2.31436,27.771 -2.60335,28.92812 -1.44648,0.2893 -2.89296,-0.28929 -4.62841,-2.025 0,0 0.29089,0 0.29089,0 4.91771,-1.15709 6.07458,-13.88544 2.60334,-28.9281 -2.31436,-10.41414 -6.36419,-19.09254 -10.41401,-22.8532 4.91771,-0.57872 11.2819,10.41415 14.75313,24.87818 z m -33.26712,-31.53166 17.3568,3.76068 c 0,0 0,0 -0.2909,0 -1.15718,-0.28929 -2.02507,-0.28929 -3.18225,0 -7.23208,2.02492 -8.96754,17.06754 -4.33912,33.26728 4.04982,14.17483 11.86049,24.87821 18.51398,26.03539 l -6.94278,10.99264 c -0.86789,-0.28929 -1.44648,-0.57869 -2.31405,-0.86785 -7.23208,-4.04992 -15.33205,-17.06757 -19.96046,-32.68879 -2.60367,-8.38916 -3.76085,-16.77833 -3.76085,-23.72102 0,-6.65349 1.15718,-12.43912 3.47155,-15.62121 0.57859,0 1.15718,-0.57869 1.44648,-1.15712 z m 16.7782,18.22471 c 0,3.1821 -1.15718,5.7856 -2.60366,5.7856 -1.44616,0 -2.60334,-2.6035 -2.60334,-5.7856 0,-3.18206 1.15718,-5.78563 2.60334,-5.78563 1.44648,-0.28929 2.60366,2.31427 2.60366,5.78563 z m -22.27451,-19.6711 3.18194,0.57869 -0.57859,0.86789 c -5.20733,6.94275 -5.20733,23.72102 0,41.36721 4.91771,16.48904 14.46384,30.08528 23.1424,35.00305 0.29089,0.2893 -0.5786,0.86783 -1.44648,1.73565 -15.62103,-5.20704 -24.29959,-28.63883 -24.29959,-28.63883 -10.9926,-30.95307 -3.76052,-45.70643 0,-50.9135 z m 32.11026,126.70518 -31.53166,-7.23205 -98.93443,18.51402 c 14.46416,-26.90319 64.7991,-62.77403 73.47766,-68.55963 10.41401,6.65345 46.2848,32.11019 56.98843,57.27766 z M 211.61455,321.60237 c 1.44648,0.86785 2.31437,2.31427 2.31437,4.04995 0,2.6035 -2.02507,4.62848 -4.62842,4.62848 -2.31437,0 -4.05014,-1.73568 -4.62841,-3.76059 0.57859,1.44638 2.02475,2.6035 3.47123,2.6035 2.31436,0 4.04982,-2.02501 4.04982,-4.62851 0.2909,-1.15715 0,-2.02498 -0.57859,-2.89283 z m 3.76085,143.19424 c 2.60366,0 4.62841,-2.02497 4.62841,-4.62854 0,-0.86779 -0.29089,-1.73568 -0.86789,-2.6035 1.44648,0.86782 2.60367,2.31427 2.60367,4.04998 0,2.6035 -2.31437,4.62848 -5.20701,4.62848 -2.60366,0 -4.62873,-1.73568 -5.20701,-3.76069 0.86757,1.15712 2.31405,2.31427 4.04983,2.31427 z m 6.94278,-99.80205 c 1.44648,0.86788 2.60334,2.31427 2.60334,4.04998 0,2.6035 -2.31404,4.62848 -5.207,4.62848 -2.60335,0 -4.62842,-1.73568 -5.20701,-3.76069 0.86789,1.44642 2.31437,2.60357 4.04982,2.60357 2.60367,0 4.62874,-2.02498 4.62874,-4.62854 0,-1.44639 -0.2909,-2.31421 -0.86789,-2.8928 z m -4.05014,53.80636 c 0.86788,1.44638 2.31436,2.6035 4.05014,2.6035 2.60334,0 4.62842,-2.02497 4.62842,-4.62848 0,-0.86788 -0.2909,-1.73571 -0.86789,-2.60356 1.44648,0.86785 2.60366,2.31427 2.60366,4.04995 0,2.6035 -2.31437,4.62848 -5.20701,4.62848 -2.60366,0 -4.62873,-1.73568 -5.20732,-4.04989 z m -2.89264,-10.41414 c 0,-0.57872 0,-1.15712 0,-1.73572 6.36419,0.86783 53.22758,7.52132 63.06332,11.57127 l 4.91771,-43.68149 c -18.22468,-6.94272 -31.53166,-26.03529 -31.53166,-45.70643 0,-23.43179 17.0675,-42.81363 39.92093,-47.7314 l 3.76052,-31.82096 v -1.15712 c 0.86789,0 1.44648,0 2.31437,-0.2893 l -3.47155,32.11026 c 2.02507,-0.2893 6.36419,-0.2893 8.38926,-0.2893 28.34941,0 51.20283,21.98541 51.20283,48.88853 0,26.90315 -22.85342,48.88855 -51.20283,48.88855 -6.07489,0 -12.14979,-1.15718 -17.64609,-3.18209 l -3.76085,48.59923 c -12.14979,-6.0749 -56.69881,-13.30695 -65.95596,-14.46407 z m 32.11025,-8.38917 c 1.15718,0.57869 2.02475,1.73568 2.02475,3.18209 0,2.02498 -2.02475,3.76066 -4.33912,3.76066 -2.02507,0 -4.04982,-1.44638 -4.33912,-3.18206 0.57859,1.15708 2.02476,2.02491 3.47123,2.02491 2.02508,0 3.76085,-1.73568 3.76085,-3.76063 0.2909,-0.57868 0,-1.44638 -0.57891,-2.02497 z m 28.6387,-23.1425 c 1.15719,0.57869 2.02507,1.73568 2.02507,3.1821 0,2.02498 -2.02507,3.76066 -4.33912,3.76066 -2.02507,0 -4.05014,-1.44639 -4.33943,-3.1821 0.57891,1.15712 2.02507,2.02494 3.47155,2.02494 2.02475,0 3.76052,-1.73564 3.76052,-3.76062 0,-0.57869 -0.29089,-1.44642 -0.57859,-2.02498 z m -4.91771,33.84587 c 2.02507,0 3.76053,-1.73568 3.76053,-3.76062 0,-0.86786 -0.2909,-1.44638 -0.57859,-2.31427 1.15718,0.57872 2.02507,1.73571 2.02507,3.18209 0,2.02498 -2.02507,3.76069 -4.33912,3.76069 -2.02507,0 -4.05014,-1.44641 -4.33944,-3.18209 0.57859,1.44638 2.02507,2.3142 3.47155,2.3142 z m -3.18225,-180.22219 c -2.89264,-2.8928 -1.15687,-6.36419 -0.5786,-7.23204 l 1.44648,2.31427 c 0,0 0,0 0,0 0.2909,0.28929 0.2909,0.86782 0.5786,0.86782 l 0.29089,0.2893 v 0 c 3.47155,2.31427 11.28222,-9.54629 11.28222,-9.54629 7.52138,-5.78566 4.91771,5.7856 4.91771,5.7856 4.91772,-0.86782 1.73578,5.78566 1.73578,5.78566 4.33912,0.8678 1.44616,6.65346 1.44616,6.65346 l 1.44648,3.18211 c -1.44648,4.33918 -10.41402,5.20707 -10.41402,5.20707 l -6.07489,2.3142 c -6.65349,0.86789 -12.43909,1.73572 -17.93539,2.60357 l 0.86789,-0.28929 14.75313,-13.88555 -3.76053,-4.04989 z m 26.03535,13.30696 c -1.15686,0 -2.02475,0.28929 -3.18193,0.28929 l 2.02507,-2.31427 z m -0.57859,-20.24971 c 0,-0.28929 0,-0.28929 0,0 0,-0.28929 0.2909,0 0,0 0,0 0,0 0,0 z m -1.73577,28.92811 c 0,1.73568 -2.02476,3.18209 -4.33912,3.18209 -2.02508,0 -4.04983,-1.15712 -4.33912,-2.60353 0.57859,0.86788 2.02475,1.73571 3.47123,1.73571 2.02507,0 3.76053,-1.44642 3.76053,-3.1821 0,-0.57869 -0.2909,-1.15712 -0.5786,-1.73568 1.15719,0.57869 2.02508,1.44639 2.02508,2.60351 z m -4.33912,18.22472 c 1.15718,0.57868 2.02507,1.73568 2.02507,2.89286 0,1.73568 -2.02507,3.47136 -4.33944,3.47136 -2.02475,0 -4.04983,-1.15715 -4.33912,-2.89286 0.57859,1.15718 2.02507,1.73571 3.47123,1.73571 2.02507,0 3.76085,-1.44642 3.76085,-3.47139 0,-0.57869 -0.2909,-1.15709 -0.57891,-1.73568 z m 7.81067,-39.92078 c 0.29089,-2.31427 0,-4.04998 -0.2909,-5.20707 3.47124,6.65345 4.33912,14.46404 4.62842,17.93543 -0.57891,0 -1.15718,0 -1.73578,0 -0.29089,-1.44638 -1.15718,-3.18209 -2.02507,-4.33925 1.73578,-2.3142 -0.57859,-8.38911 -0.57859,-8.38911 z m 27.19222,6.9427 v 4.62854 c -1.15686,0 -2.31405,0 -3.47123,0 v -5.20707 l -4.91771,0.57872 0.29089,4.91777 c -3.18225,0 -6.36419,0.2893 -9.54645,0.57869 l -1.73545,-6.65345 c 9.54612,-15.33193 23.72099,-4.04993 30.37448,2.8928 l 0.29089,2.89286 c -2.02475,0 -4.04982,0 -6.36419,0 v -4.33928 h -4.91771 z m 28.92832,4.91777 0.29089,-9.54626 h 4.04983 l -0.2909,9.83556 c -1.73577,0 -2.89264,-0.2893 -4.04982,-0.2893 z m -33.55674,190.92569 h 1.15719 c 1.73577,-0.2893 4.04982,0 6.65349,0 l 89.67695,-12.14983 -17.0675,25.45671 c 0,0 -50.33494,-12.14976 -72.60945,-13.59618 l -2.89296,0.2893 -3.76053,-0.2893 c -0.57891,0 -0.86789,0 -1.44648,0.2893 0.2877,0 0.2877,0 0.2877,0 z m 101.53777,-11.86053 20.24976,0.57869 -37.31726,22.56396 c 5.20701,-6.07492 13.59595,-18.22471 17.0675,-23.14249 z M 368.98356,254.19983 c 1.15719,0.57868 2.02507,1.44641 2.02507,2.60356 0,1.73568 -2.02507,3.1821 -4.33943,3.1821 -2.02476,0 -4.04983,-1.15712 -4.33912,-2.60357 0.57859,0.86786 2.02507,1.73568 3.47123,1.73568 2.02507,0 3.76085,-1.44638 3.76085,-3.18209 0.29089,-0.57869 0,-1.15709 -0.5786,-1.73568 z m 11.5712,41.07795 c 1.15719,0.57868 2.02507,1.73568 2.02507,3.18212 0,2.02495 -2.02507,3.76063 -4.33944,3.76063 -2.02475,0 -4.04982,-1.44642 -4.33912,-3.1821 0.5786,1.15712 2.02508,2.02498 3.47156,2.02498 2.02475,0 3.76052,-1.73568 3.76052,-3.76066 0,-0.57872 -0.29089,-1.44641 -0.57859,-2.02497 z m 8.67856,48.30996 c 1.15719,0.57872 2.02475,1.73571 2.02475,3.1821 0,2.02497 -2.02475,3.76068 -4.33912,3.76068 -2.02507,0 -4.04982,-1.44641 -4.33912,-3.18209 0.5786,1.15712 2.02476,2.02497 3.47124,2.02497 2.02507,0 3.76084,-1.73568 3.76084,-3.76065 0,-0.57872 -0.29089,-1.15712 -0.57891,-2.02501 z M 379.39758,229.9002 c 0,0 4.05014,-2.6035 6.94278,0.57872 l -0.29089,14.75334 -0.57859,1.73568 c -2.31437,-0.2893 -4.33944,-0.86786 -6.65349,-1.15715 l 0.57859,-15.91046 z m 17.64609,129.30876 c -0.86788,-0.57869 -1.44616,-1.15716 -2.31404,-1.73568 2.31404,-31.24237 -21.11765,-107.61264 -21.11765,-107.61264 0.86789,0 1.73577,0 2.31437,0.2893 17.93539,61.90614 20.53873,99.22346 21.11732,109.05902 z m -31.82095,-145.5085 10.12503,23.14254 v 8.09983 c -5.207,-0.57868 -10.12503,-1.15708 -14.46415,-1.73567 -1.44648,-4.04996 -4.62842,-14.46405 -1.15719,-18.22473 -0.29089,0.28929 4.91803,-5.20708 5.49631,-11.28197 z m -17.06751,-32.68875 c 0,0 -1.44648,13.59621 11.28191,26.61389 0,0 4.33944,11.28193 -7.81036,18.80324 -3.18225,0.2893 -5.7856,-0.86782 -5.7856,-0.86782 -8.67855,-2.60357 -24.0106,-1.44642 -24.0106,-1.44642 -22.8531,1.73571 -25.74606,-12.72841 -25.74606,-15.62121 0,-3.18207 9.25715,-17.0676 9.25715,-17.0676 2.31436,-8.9677 -0.86789,-16.77827 -2.60367,-20.24966 1.15719,0 2.31437,0.28929 3.47156,0 2.89264,4.62851 4.91771,21.69611 4.91771,21.69611 11.2819,5.207 34.13532,0.86782 34.13532,0.86782 l -2.60366,-15.04262 c 1.73577,0.86785 3.76085,1.44638 5.4963,2.31427 z m -54.09547,-29.79598 c 0,0 0.5786,-19.67114 -5.7856,-30.08528 2.89264,0 4.33912,-0.2893 4.33912,-0.2893 l 1.44648,2.60357 c 6.94279,7.81058 13.88557,13.59618 20.53906,17.64616 0.2877,1.44638 0.86757,3.47136 0.86757,5.20707 0,0.86779 0,1.44639 0,2.31421 0,0 0,0 0,0 v 0 c 0.29089,8.09993 -0.5786,15.91051 -4.62842,18.22472 0,0 -6.65349,3.18209 -10.41401,1.44638 0,0 -4.05015,-2.6035 -11.28191,-3.47129 3.47123,-3.4714 6.0749,-7.81064 4.91771,-13.59624 z m 38.76375,28.06027 c 0,0 2.89264,-0.57869 6.65348,-0.2893 1.15687,4.33922 2.02475,11.86056 2.02475,11.86056 -15.33172,7.52128 -28.06011,-0.86789 -28.06011,-0.86789 -0.29089,-3.18209 -3.76084,-13.88547 -4.91771,-18.51395 2.89264,-0.57869 6.0749,-1.73568 8.67824,-4.04995 0,0 1.73578,-11.28197 1.73578,-19.67113 0.86789,0 3.18193,0 5.4963,4.91777 l 0.57859,23.72109 c 0,-0.2893 -0.57859,5.20701 7.81068,2.8928 z m 39.9206,-87.073643 c -4.62841,6.074896 -15.04243,2.8928 -15.04243,2.8928 -0.86789,-2.314272 1.73546,-4.62848 1.73546,-4.62848 0,0 0,0 0.29089,0 0.29089,1.73568 2.02475,2.8928 4.04982,2.8928 2.31437,0 4.04983,-1.446416 4.04983,-3.182096 0,-1.15712 -0.86789,-2.024976 -1.73546,-2.603568 6.65349,-1.735616 6.65349,4.628544 6.65349,4.628544 z m -4.33912,-35.292318 c 0.2909,0 0.86789,0 1.15719,0 1.44647,0 2.89263,0.867856 4.04982,2.314272 0,0 0,0 0,0 0,0.289296 0.29089,0.289296 0.29089,0.578688 0.2909,0.57872 0.5786,0.867888 0.86789,1.446416 v -0.57872 c 1.15718,2.024976 2.02507,4.339216 1.44648,7.52128 v -0.289296 c -0.29089,2.603568 -1.44648,4.917807 -3.47155,5.496367 -2.89264,0.867888 -6.36419,-2.024976 -7.52138,-6.653455 -1.44616,-4.62848 0,-8.967696 3.18226,-9.835552 z m -8.38926,4.049952 c 1.15718,0 2.31437,-0.289296 3.76085,-0.578688 -1.15719,2.314272 -0.2909,5.496368 -0.2909,5.496368 l -2.31437,1.73568 c -2.02507,-2.024976 -1.73577,-4.917776 -1.15718,-6.653488 z m -2.02475,0.289296 c 0,0 -1.15719,7.81064 4.33912,12.439119 0.29089,0 -7.81068,-4.049951 -4.33912,-12.439119 z m -17.06783,-4.62848 c 0.2909,0.289296 0.86789,0.578688 1.15719,0.867856 0,0 0,0 0,0 1.44648,1.446416 2.60366,3.760624 2.60366,6.074896 0,4.62848 -3.76085,8.389167 -8.38926,8.389167 0,0 0,0 0,0 0,0 0,0 0,0 -0.2877,0 -0.2877,0 -0.57859,0 -0.2909,0 -0.57892,0 -0.57892,0 -4.04982,-0.578687 -7.23176,-4.049951 -7.23176,-8.389167 0,-4.62848 3.76053,-8.389168 8.38895,-8.389168 1.44648,0 3.18225,0.57872 4.62873,1.446416 z m -18.22468,6.36416 -1.73546,0.57872 c 0,0 1.15686,-4.339216 6.65317,-6.074896 0,0 -6.07458,8.389168 1.15718,13.885471 l -2.02475,2.892864 c 0,0 -4.05014,-0.57872 -6.0749,-5.496368 l 2.60335,-1.446415 -0.57859,-4.339248 z m 0.57891,-17.356831 c 0.86757,-0.867888 1.44616,-1.15712 1.44616,-1.15712 -0.2909,3.471328 1.15718,2.603504 1.15718,2.603504 1.44648,-4.339184 3.47155,-4.62848 3.47155,-4.62848 4.62842,2.603504 6.0749,9.835584 6.0749,9.835584 -2.31437,-4.917808 -7.23208,-8.678464 -7.23208,-8.678464 -1.73578,3.182096 -1.15718,9.546256 -0.86789,11.281967 0,0 0,0 0,0 -0.57859,-3.182095 -2.89296,-5.785599 -2.89296,-5.785599 -1.15686,1.73568 -0.57859,5.207071 -0.29089,7.521279 -0.2909,0 -0.2909,0.289296 -0.57859,0.289296 -2.60367,-4.917775 -2.31437,-8.099871 -1.44648,-10.124847 -2.02476,2.603568 -6.3642,8.389167 -6.94279,13.017647 0.2909,0.289296 -1.15718,-11.281967 8.09997,-14.174767 z m -32.97814,13.596207 c -2.02508,2.603536 -2.02508,9.256992 -2.02508,9.256992 1.44648,-5.7856 10.41434,-15.042623 10.41434,-15.042623 l 0.29089,5.207071 c 3.18194,-9.546287 19.09258,-13.596239 19.09258,-13.596239 -23.14272,6.942752 -20.82835,31.820958 -20.82835,31.820958 -3.47123,-5.785664 -1.15719,-17.067631 -1.15719,-17.067631 -7.81035,7.23208 -5.7856,24.299679 -5.7856,24.299679 -3.47123,-4.917776 -2.60334,-12.149824 -2.60334,-12.149824 -1.44648,1.73568 -2.02507,6.942752 -2.02507,6.942752 -1.44648,-14.464095 4.62841,-19.671135 4.62841,-19.671135 z m 21.69591,3.760624 c -0.29089,1.73568 -0.86788,3.760688 -1.15718,5.496368 -1.15686,0.867887 -2.60334,1.735679 -4.04982,2.892799 0.86788,-1.735679 1.44648,-3.182095 2.31436,-4.049919 0,0 1.44648,-2.314272 2.60335,-4.917776 l 0.29089,0.57872 z m -24.58887,31.531662 c 0,0 2.89296,9.546281 6.36419,12.149851 0,0 -0.2909,-9.546283 0.57891,-17.067627 0.57859,-0.578688 1.15718,-1.446384 1.73546,-2.024976 0.86788,5.207072 2.31436,13.885533 3.47155,15.042623 0,0 2.31436,-13.306943 5.207,-23.721022 4.04983,-3.471392 8.67856,-6.653456 13.59628,-8.678464 0,0 3.18193,7.521312 14.17486,8.099872 0,0 8.67824,1.15712 13.30697,-6.36416 0,0 8.38895,-0.289296 12.72807,1.157088 0,0.289296 0.29089,0.57872 0.29089,0.867888 0,0 -8.67856,6.942688 -5.7856,17.067567 l 4.91771,13.017641 3.76053,2.02498 c 0,0 -2.60334,2.31427 -4.04982,3.47136 0,0 0,0 -0.2909,0 0,0 0,0.2893 0,0.2893 l -2.60366,1.15712 c 0,0 -6.94278,-0.2893 -9.54613,2.31427 0,0 6.94247,0.86782 6.0749,2.6035 0,0 0.29089,0.57872 0.86757,1.15719 0.29089,1.73568 1.44648,3.18206 2.60366,4.04988 l 0.86789,1.15712 -2.02507,1.44645 -2.89264,-2.02497 c 0,0 -9.25716,0 -17.3568,4.91777 l -5.20733,-1.15715 c 0,0 2.31437,3.18213 6.94278,2.89283 0,0 10.41434,-2.02498 13.88557,-1.15715 l 4.33912,0.86789 2.02507,-0.86789 c 0,0 2.31437,3.47139 0.86789,4.33925 l -12.72838,2.02497 -5.49631,-1.44645 3.76053,3.76069 c 0,0 9.83542,-0.57872 11.2819,1.44639 0,0 -2.60334,7.52134 -6.94278,9.25702 -2.89264,0.2893 -6.07489,-0.2893 -6.07489,-0.2893 -33.55642,-8.67843 -45.99551,-30.95307 -45.99551,-30.95307 -0.57891,5.49631 -9.25715,2.60351 -9.25715,2.60351 l -0.57859,-0.2893 c -4.62842,-2.6035 -12.14979,-7.23198 -13.01768,-13.01765 -0.57859,0.2893 0.57859,-13.885465 16.19962,-10.124841 z m -19.67117,69.138221 c -6.36419,0.57868 -12.72838,-1.15712 -12.72838,-1.15712 28.06043,4.04998 9.54644,-43.68142 9.54644,-43.68142 -4.04982,-6.65349 -6.65348,-17.6462 -6.65348,-17.6462 0,-26.324584 20.24975,-15.621177 20.24975,-15.621177 -28.06043,-4.049951 -13.59627,25.456737 -13.59627,25.456737 15.04243,24.8782 14.46416,43.39219 14.46416,43.39219 0,1.73571 -0.57891,3.47139 -1.44648,4.62851 1.73546,-10.12485 -5.207,-24.29962 -5.207,-24.29962 5.78559,18.22472 0.57859,25.746 -4.62874,28.9281 z m 23.14272,4.33924 c 0,0 3.76053,2.02495 8.96753,2.8928 6.3642,10.99268 2.31437,19.38184 2.31437,19.38184 l -5.4963,6.94275 c -6.94279,-9.83555 -15.91064,-2.02497 -15.91064,-2.02497 l 4.33944,0.86789 -6.0749,14.46403 c 1.73546,-4.33919 -3.18225,-6.65346 -3.18225,-6.65346 l -3.18194,4.62848 -6.36419,-9.83555 c 3.18194,-7.81058 14.46384,-32.97808 24.58888,-30.66381 z m -40.21022,30.95311 c 4.04982,-8.67847 10.9926,-7.52135 10.9926,-7.52135 l 1.44648,6.94275 c -3.18193,1.15716 -5.4963,3.1821 -6.36419,4.33925 z m 6.65348,4.33918 -0.29089,-0.2893 c 2.89264,-2.02491 5.7856,-2.3142 7.52138,-2.02491 l 12.14979,19.6711 c -1.44648,1.44642 -3.47156,2.60351 -5.20701,3.4714 l -14.17486,-20.82829 z m 3.18226,8.96776 6.0749,9.54625 -2.02508,-2.31427 c -2.31436,8.67847 1.44648,15.62122 1.44648,15.62122 l -16.48923,13.01765 -1.73577,1.73568 c -0.2909,0 -0.5786,0 -0.86757,0.2893 -0.86789,0 -1.73578,0.2893 -2.89296,0.2893 6.07489,-6.94276 14.17486,-30.66385 16.48923,-38.18513 z m -47.7316,51.7813 c 0,0 5.20701,-8.6784 57.56702,-12.14979 0,0 -52.36001,6.0749 -66.53455,69.13822 l -2.60367,5.20707 -3.47123,-6.94275 c 0,-0.2893 31.53166,-55.25275 15.04243,-55.25275 z m -26.90326,155.63334 c -0.29089,-4.04996 -0.57859,-7.81058 -0.86756,-11.86053 2.31404,-1.15712 4.04982,-4.04992 4.04982,-7.81058 0,-4.62851 -2.60366,-8.09987 -6.0749,-8.38916 -0.57859,-3.1821 -1.15718,-6.3642 -1.73577,-9.257 8.09997,1.15712 11.5712,6.3642 13.01768,10.99268 0.29089,6.65348 0.29089,13.30694 0.29089,19.67113 -2.60334,3.47136 -6.36419,5.49637 -8.67824,6.65346 z m 8.67856,-0.86783 c 0,0.57872 0,1.15712 0,1.73565 v -1.15712 -0.57869 z m -8.09996,23.43176 c 0,-2.31424 0,-4.62851 0,-6.94272 l 7.23208,-3.47136 c -0.2877,4.33918 -0.86789,8.38914 -1.15719,12.43906 0,-2.31428 0.2909,-3.76069 0.2909,-3.76069 l -6.3642,1.73571 z m 0,-62.77403 c -2.31405,-1.15712 -4.33912,-1.73571 -6.0749,-1.73571 -0.29089,-1.73568 -0.86789,-3.47133 -1.44648,-5.20701 l 11.57152,-8.96776 c 0.86789,4.04999 1.44616,8.09987 2.02475,12.14986 z m -4.04983,116.0018 c 33.55675,-71.16322 10.12472,-144.0621 10.12472,-144.0621 -5.4963,-15.62115 -9.25683,-23.43173 -11.86049,-26.03529 l 6.65348,-14.17477 c 0,0 38.47446,56.6991 18.2247,145.79772 0,0 -6.94278,39.34223 -27.48153,60.17052 1.73546,-6.94275 3.18194,-14.1748 4.33912,-21.69608 z m 21.40696,0.86779 c 1.15686,0.86789 2.02475,2.31428 2.02475,4.04999 0,2.6035 -1.73546,4.62848 -4.04982,4.62848 -2.02508,0 -3.47156,-1.73568 -3.76053,-3.76063 0.57859,1.44642 1.73545,2.60351 3.18193,2.60351 2.02508,0 3.47124,-2.02498 3.47124,-4.62848 -0.2909,-1.15715 -0.5786,-2.02498 -0.86757,-2.89287 z m -2.89296,214.93601 c 2.02507,0 3.76053,-2.02498 3.76053,-4.62851 0,-0.86786 -0.2909,-1.73568 -0.5786,-2.60354 1.15719,0.86786 2.02508,2.31427 2.02508,4.04995 0,2.60351 -2.02508,4.62848 -4.33944,4.62848 -2.02476,0 -3.76053,-1.73568 -4.04983,-3.76059 0.2909,1.44638 1.73578,2.31421 3.18226,2.31421 z m -23.14241,19.9604 c 0.86756,-7.52128 7.52105,-10.41415 15.04243,-10.99268 14.46417,0 26.03537,6.94272 32.97815,12.72839 60.45966,59.88123 82.73449,120.05169 86.49502,131.91225 -1.44648,-0.2893 -2.60334,-0.57872 -4.04982,-0.86789 -29.2173,-72.89885 -85.33784,-121.7874 -85.33784,-121.7874 -29.50692,-26.61389 -41.36742,-13.59618 -44.83865,-7.23199 0,-1.44641 -0.2877,-2.89286 -0.2877,-3.76068 z m 78.97365,52.35988 -3.47123,2.31427 -5.7856,-7.52134 2.60334,-2.8928 c 2.60367,2.8928 4.62842,5.49637 6.65349,8.09987 z m -58.43491,-53.80627 v 4.62848 c -1.44616,-1.15712 -8.67825,-1.44638 -8.67825,-1.44638 l -1.15718,-4.62851 c 3.18225,-0.2893 6.65349,0.28929 9.83543,1.44641 z m -7.52106,45.41713 c -8.09997,-13.30694 -11.28223,-25.45673 -12.43909,-33.5566 0,-1.15715 0,-2.31427 -0.2909,-3.76066 1.73578,-5.78566 4.91804,-8.67846 8.96786,-9.54628 l 1.73578,6.07489 c 4.62841,-0.86782 10.99262,1.44639 10.99262,1.44639 l 0.57859,-5.78557 c 9.25715,3.76059 17.93571,11.28193 17.93571,11.28193 11.2819,10.12485 21.69592,21.11752 30.95307,32.39949 l -3.47155,4.04995 7.23208,9.83558 5.4963,-2.31427 c 27.19254,35.58162 43.10286,70.00608 46.86371,77.81665 -4.62874,-0.86782 -8.38927,-2.02497 -11.28222,-2.6035 -33.84571,-69.42752 -81.2877,-84.47014 -81.2877,-84.47014 -9.83574,-4.33925 -21.98554,-0.86786 -21.98554,-0.86786 z m 53.22759,83.60232 -1.73578,-19.09261 c 1.73578,-0.28929 3.76085,-0.86782 5.7856,-1.73568 l 0.2909,-10.70337 6.65348,4.91777 0.86789,8.9677 c 0.57859,0.28929 1.15687,0.57869 2.02475,0.86785 -3.47123,1.15712 -10.41401,4.91778 -13.88556,16.77834 z m 0.86789,2.02491 c -0.2909,0 -0.5786,0 -0.86789,-0.28929 v -0.2893 l 0.86789,0.57869 z m 3.47123,-40.21006 0.29089,-6.65346 4.62842,3.47136 0.86789,7.52132 -5.7856,-4.33922 z m 9.83574,28.0603 -0.86789,12.72835 c -3.18193,0.57869 -4.62841,2.02498 -5.4963,2.8928 -0.86789,-0.86782 -2.02507,-1.44641 -3.18226,-2.02494 0.2909,-3.18213 2.31437,-11.57123 9.54645,-13.59621 z m -1.44648,19.67107 c 5.7856,4.33922 14.75346,0.57872 14.75346,0.57872 l -0.2877,10.70341 c -2.89296,0.2893 -5.7856,0.2893 -8.67856,-0.2893 0,0 -2.60366,0 -6.65349,-0.28929 l -0.57859,-3.1821 1.44648,-7.52128 z m 3.18226,-3.18206 1.15686,-21.98538 c 3.18226,0.86786 6.36451,0.86786 8.67856,0.86786 l -2.02507,22.5639 c -4.33912,1.15709 -7.81035,-1.44638 -7.81035,-1.44638 z m -1.44648,-26.61386 v -18.80331 c 1.44648,-0.28929 3.47123,-0.28929 4.62841,0 3.76085,4.91778 7.52138,9.83556 10.41402,14.4641 l -0.57859,5.7856 c -8.96754,2.31427 -14.46384,-1.44639 -14.46384,-1.44639 z m -50.33494,-39.92082 -1.15719,-19.67114 2.89296,0.86789 c 7.23176,2.02491 14.17455,5.4963 20.53874,9.54625 v 6.3642 l -0.2909,1.73568 c -9.54612,-0.2893 -18.80328,0.57868 -21.98521,1.15712 z m 6.36419,2.8928 c 6.07489,0 14.75345,-0.2893 21.40694,-0.57872 l 3.47123,22.56393 c -7.23208,1.44638 -15.62134,1.15709 -19.09257,1.15709 l -5.7856,-23.1425 z m 8.67824,34.13523 -2.60335,-10.12488 c 6.0749,2.025 15.04276,0.86782 19.38188,0.28929 l 1.44647,9.83555 c 0,0 -10.12503,4.33922 -18.225,0 z m 9.83574,4.91777 c 1.73578,0 3.76053,0 5.7856,-0.2893 l 3.18194,22.8532 c -1.44616,1.15712 -4.33912,0.86783 -4.91771,0.57872 l -4.04983,-23.14249 z m 17.0675,26.90309 0.2909,10.9927 c -7.23208,-0.86786 -15.91032,-2.89283 -21.40662,-6.94275 l -0.2909,-4.91778 c 10.70331,4.33919 21.40662,0.86783 21.40662,0.86783 z m -26.03535,5.20707 c 0,0 4.05014,7.81057 38.47444,10.41414 0,0 8.96786,0.86779 19.09258,-1.15712 v 13.59618 c -5.7856,1.15715 -12.72839,2.31427 -18.22469,2.02497 0,0 -28.928,-0.57868 -40.21022,-12.72835 z m 35.29251,80.99875 C 214.7968,933.43223 180.66147,923.01812 180.66147,923.01812 L 220.5824,888.0151 c 3.18194,2.6035 14.46416,10.12485 39.34234,12.72835 2.02475,15.91051 -0.57891,52.93848 -0.57891,52.93848 z m 78.68434,-40.49936 c -8.38894,6.65349 -74.05593,42.52433 -74.05593,42.52433 l -2.02507,-54.96345 c 1.15718,0 2.02507,0.28929 2.89296,0.28929 0,0 22.27451,-1.73571 30.37448,-5.78566 z m -40.78849,-31.53166 -0.29089,-3.1821 c 0,-0.2893 0,-0.2893 0,-0.57869 0,-0.28929 0.29089,-0.86782 0,-1.15712 -0.2909,-2.02497 -0.86789,-2.31427 -1.73546,-2.02497 -1.15718,-0.86786 -3.18226,-2.02498 -6.65349,-3.47139 0.2909,-1.44639 0.57859,-3.47136 0.57859,-5.78554 16.19994,4.62845 32.68885,7.23195 48.59917,8.09984 -19.09258,2.31421 -34.4243,6.36416 -40.4992,8.09984 z M 316.04528,865.4512 C 292.03499,791.97373 234.17868,734.98536 223.18575,724.57122 228.10378,500.66755 326.17,437.89349 326.17,437.89349 l -2.31437,-0.86785 c 16.77853,4.62854 55.25297,14.46409 77.81678,13.30694 0,0 0.57859,-0.28929 2.02507,-1.15712 3.18194,15.33192 11.8605,70.8739 7.52106,205.38965 0,0 -1.73546,164.6011 -22.85311,213.20026 -30.08518,2.60357 -54.96335,0.57872 -72.32015,-2.31417 z M 407.7473,446.57196 c 12.1498,-7.23205 38.18515,-22.56397 39.63163,-22.56397 45.70621,76.08097 42.81357,218.69666 38.76375,282.91707 -9.83575,79.8416 -59.3028,143.48351 -70.29541,157.07969 -7.23208,1.15715 -14.17486,2.31424 -20.82835,2.89283 4.33912,-26.32456 33.26744,-214.35738 12.72838,-420.32562 z m 131.04436,469.50341 c -50.04564,-1.73568 -94.30569,4.91777 -103.27322,6.36419 -6.36419,-6.65349 -25.45677,-24.01032 -25.45677,-24.01032 -1.44648,-5.78566 56.98811,-25.4568 56.98811,-25.4568 10.41434,5.20707 60.17068,36.16018 71.74188,43.10293 z"
       id="path229"
       inkscape:connector-curvature="0"
       style="fill:#001c58" />
    <path
       d="M 123.67336,467.40012 C 80.280878,596.4196 78.834718,693.90738 78.834718,693.90738 c 0,0 76.659282,-55.83127 93.148512,-178.77586 16.48891,-122.94449 -3.76085,-155.92256 -3.76085,-155.92256 l 2.60366,12.14979 c 0,0 -48.02057,74.34529 -70.00611,214.06811 0,0.2893 1.15719,-47.7314 22.85343,-118.02674 z"
       id="path231"
       inkscape:connector-curvature="0"
       style="fill:#00b1eb" />
    <g
       id="g233"
       transform="matrix(2.8928123,0,0,2.8928123,73.62739,39.263881)">
      <path
         d="m 49.1,127 c 2.4,0.3 18.4,2.6 21.7,4 l 1.7,-15.1 c -6.3,-2.4 -10.9,-9 -10.9,-15.8 0,-8.1 5.9,-14.8 13.8,-16.5 L 76.7,73 c -0.5,0 -1.1,0 -1.6,0.1 0.2,0.2 0.3,0.4 0.3,0.6 0,0.6 -0.7,1.1 -1.5,1.1 -0.7,0 -1.4,-0.4 -1.5,-0.9 0.2,0.3 0.7,0.6 1.2,0.6 0.7,0 1.3,-0.5 1.3,-1.1 0,-0.1 0,-0.2 -0.1,-0.3 -2.6,0.1 -5.1,0.3 -7.6,0.5 -3.6,0.7 -17.9,4.7 -22.2,23.7 l -0.9,1.8 -1.2,-2.4 c 0,0 10.9,-19 5.1,-19 l -7.7,14.9 c 0.1,0 8.4,12.9 8.8,34.4 z m 19.8,-8.2 c 0.7,0 1.3,-0.6 1.3,-1.3 0,-0.3 -0.1,-0.5 -0.2,-0.8 0.4,0.2 0.7,0.6 0.7,1.1 0,0.7 -0.7,1.3 -1.5,1.3 -0.7,0 -1.4,-0.5 -1.5,-1.1 0.2,0.5 0.7,0.8 1.2,0.8 z m -0.6,9.6 c 0.7,0 1.3,-0.6 1.3,-1.3 0,-0.3 -0.1,-0.5 -0.2,-0.8 0.4,0.2 0.7,0.6 0.7,1.1 0,0.7 -0.7,1.3 -1.5,1.3 -0.7,0 -1.4,-0.5 -1.5,-1.1 0.2,0.5 0.7,0.8 1.2,0.8 z m 4.5,-46.6 c 0.7,0 1.3,-0.5 1.3,-1.2 0,-0.2 -0.1,-0.5 -0.2,-0.7 0.4,0.2 0.7,0.6 0.7,1 0,0.6 -0.7,1.2 -1.5,1.2 -0.7,0 -1.4,-0.4 -1.5,-1 0.3,0.5 0.7,0.7 1.2,0.7 z m -13.7,45 c 0.7,0 1.3,-0.6 1.3,-1.3 0,-0.3 -0.1,-0.5 -0.2,-0.8 0.4,0.2 0.7,0.6 0.7,1.1 0,0.7 -0.7,1.3 -1.5,1.3 -0.7,0 -1.4,-0.5 -1.5,-1.1 0.2,0.5 0.6,0.8 1.2,0.8 z m -9,-11.8 c 0.9,0 1.6,-0.7 1.6,-1.6 0,-0.3 -0.1,-0.6 -0.3,-0.9 0.5,0.3 0.9,0.8 0.9,1.4 0,0.9 -0.8,1.6 -1.8,1.6 -0.9,0 -1.6,-0.6 -1.8,-1.3 0.2,0.5 0.8,0.8 1.4,0.8 z m -3.5,-14.9 c 0.8,0 1.4,-0.7 1.4,-1.6 0,-0.3 -0.1,-0.6 -0.2,-0.9 0.5,0.3 0.8,0.8 0.8,1.4 0,0.9 -0.7,1.6 -1.6,1.6 -0.8,0 -1.4,-0.6 -1.6,-1.3 0.2,0.4 0.6,0.8 1.2,0.8 z"
         id="path235"
         inkscape:connector-curvature="0"
         style="fill:#00b1eb" />
      <path
         d="m 35.1,236.3 c 1.2,-1.8 6.7,-4.2 15.9,0.2 0,0 -2.8,-61.5 32.4,-98.4 l -0.6,-2 c 0,0 5.7,-13.6 27.7,-27.1 0,0 1.4,-5.1 -7.2,-36 0,0 -12.5,-0.6 -25.9,0 l -1.1,10.2 c 0.7,-0.1 2.2,-0.1 2.9,-0.1 9.8,0 17.7,7.6 17.7,16.9 0,9.3 -7.9,16.9 -17.7,16.9 -2.1,0 -4.2,-0.4 -6.1,-1.1 l -1.3,16.8 c -4.3,-2.1 -19.5,-4.7 -22.9,-5.1 0,2.3 -0.1,4.8 -0.3,7.3 -2,26.3 -14,37.3 -14,37.3 0,0 -0.2,1 -0.6,2.7 -0.5,2.3 -1.1,4.6 -1.8,7 -2.1,7.6 -5.3,17.9 -9.4,24.2 l 7.9,23.7 c 0.3,0.2 3.3,8.4 4.4,6.6 z m 72.9,-129 c 0.7,0 1.3,-0.6 1.3,-1.3 0,-0.3 -0.1,-0.5 -0.2,-0.8 0.4,0.2 0.7,0.6 0.7,1.1 0,0.7 -0.7,1.3 -1.5,1.3 -0.7,0 -1.4,-0.5 -1.5,-1.1 0.2,0.5 0.7,0.8 1.2,0.8 z m -3,-16.7 c 0.7,0 1.3,-0.6 1.3,-1.3 0,-0.3 -0.1,-0.5 -0.2,-0.8 0.4,0.2 0.7,0.6 0.7,1.1 0,0.7 -0.7,1.3 -1.5,1.3 -0.7,0 -1.4,-0.5 -1.5,-1.1 0.2,0.5 0.7,0.8 1.2,0.8 z M 101,76 c 0.7,0 1.3,-0.5 1.3,-1.1 0,-0.2 -0.1,-0.4 -0.2,-0.6 0.4,0.2 0.7,0.5 0.7,0.9 0,0.6 -0.7,1.1 -1.5,1.1 -0.7,0 -1.4,-0.4 -1.5,-0.9 0.3,0.3 0.7,0.6 1.2,0.6 z m -49.6,56.1 c 0.9,0 1.6,-0.7 1.6,-1.6 0,-0.3 -0.1,-0.6 -0.3,-0.9 0.5,0.3 0.9,0.8 0.9,1.4 0,0.9 -0.8,1.6 -1.8,1.6 -0.9,0 -1.6,-0.6 -1.8,-1.3 0.3,0.5 0.8,0.8 1.4,0.8 z m -2.4,15 c 0.9,0 1.6,-0.7 1.6,-1.6 0,-0.3 -0.1,-0.6 -0.3,-0.9 0.5,0.3 0.9,0.8 0.9,1.4 0,0.9 -0.8,1.6 -1.8,1.6 -0.9,0 -1.6,-0.6 -1.8,-1.3 0.3,0.4 0.8,0.8 1.4,0.8 z m -5,13.4 c 0.7,0 1.2,-0.7 1.2,-1.6 0,-0.3 -0.1,-0.6 -0.2,-0.9 0.4,0.3 0.7,0.8 0.7,1.4 0,0.9 -0.6,1.6 -1.4,1.6 -0.7,0 -1.2,-0.6 -1.3,-1.3 0.1,0.4 0.5,0.8 1,0.8 z m 0,71.8 c 0.7,0 1.3,-0.7 1.3,-1.6 0,-0.3 -0.1,-0.6 -0.2,-0.9 0.4,0.3 0.7,0.8 0.7,1.4 0,0.9 -0.7,1.6 -1.5,1.6 -0.7,0 -1.3,-0.6 -1.4,-1.3 0.1,0.5 0.6,0.8 1.1,0.8 z m -9.7,2.7 c 0.5,0 0.8,-0.7 0.8,-1.6 0,-0.3 -0.1,-0.6 -0.2,-0.9 0.3,0.3 0.5,0.8 0.5,1.4 0,0.9 -0.4,1.6 -1,1.6 -0.5,0 -0.9,-0.6 -0.9,-1.3 0.1,0.5 0.4,0.8 0.8,0.8 z"
         id="path237"
         inkscape:connector-curvature="0"
         style="fill:#00b1eb" />
    </g>
    <path
       d="m 303.3169,277.05309 c -29.5066,0 -53.5172,23.43176 -53.5172,52.07062 0,28.63886 24.0106,52.07059 53.5172,52.07059 29.50659,0 53.51687,-23.43173 53.51687,-52.07059 -0.29089,-28.63886 -24.29958,-52.07062 -53.51687,-52.07062 z m 0,100.95911 c -27.77114,0 -50.33495,-21.98531 -50.33495,-49.17779 0,-27.19241 22.56381,-49.17782 50.33495,-49.17782 27.77081,0 50.33494,21.98541 50.33494,49.17782 0,27.19248 -22.56413,49.17779 -50.33494,49.17779 z"
       id="path239"
       inkscape:connector-curvature="0"
       style="fill:#001c58" />
    <path
       d="m 373.6123,59.224311 c 0,0.289296 0.2877,0.289296 0.2877,0.578688 0,-0.289296 0,-0.289296 -0.2877,-0.578688 z"
       id="path241"
       inkscape:connector-curvature="0"
       style="fill:#001c58" />
    <path
       d="m 342.08064,57.777895 c 0,0 0,0 0,0 0,0 0,0 0,0 z"
       id="path243"
       inkscape:connector-curvature="0"
       style="fill:#001c58" />
    <path
       d="m 336.00574,72.241958 c 0,0 0,0 0,0 0,0 -0.29089,0 -0.57891,0 0.29089,0 0.57891,0 0.57891,0 z"
       id="path245"
       inkscape:connector-curvature="0"
       style="fill:#001c58" />
    <g
       id="g247"
       transform="matrix(2.8928123,0,0,2.8928123,73.62739,39.263881)">
      <path
         d="m 113.9,170.1 c -0.4,-1.4 -0.8,-2.7 -1.2,-4 -6.3,1.7 -11.3,7.1 -13.2,14.2 7.3,2.6 17.7,2.9 14.4,-10.2 z"
         id="path249"
         inkscape:connector-curvature="0"
         style="fill:#ffffff" />
      <path
         d="m 116.7,165.5 c -1.4,0 -2.7,0.2 -4,0.6 0.5,1.3 0.9,2.6 1.2,4 3.3,13.1 -7.1,12.8 -14.5,10.2 -0.6,2.1 -0.9,4.4 -0.9,6.8 0,6 2.2,11.5 5.7,15.4 10.2,-7.3 18.4,-19.7 21.2,-34.3 -2.5,-1.8 -5.5,-2.7 -8.7,-2.7 z"
         id="path251"
         inkscape:connector-curvature="0"
         style="fill:#a5a9c6" />
      <path
         d="m 125.5,168.1 c -2.9,14.6 -11,27 -21.2,34.3 3.3,3.7 7.7,5.9 12.6,5.9 2.5,-10.3 10.3,-16.7 18.3,-21.4 0,0 0,0 0,-0.1 -0.2,-8.1 -4,-15.1 -9.7,-18.7 z"
         id="path253"
         inkscape:connector-curvature="0"
         style="fill:#7d84ab" />
      <path
         d="m 116.8,208.3 c 0,0 0.1,0 0.1,0 10.1,-0.1 18.2,-9.7 18.1,-21.4 -7.9,4.6 -15.7,11.1 -18.2,21.4 z"
         id="path255"
         inkscape:connector-curvature="0"
         style="fill:#a5a9c6" />
    </g>
    <ellipse
       transform="rotate(179.66055)"
       cx="-392.26172"
       cy="-554.88373"
       rx="10.99288"
       ry="19.671469"
       id="ellipse257"
       style="fill:#ffffff;stroke-width:2.89286304" />
    <path
       d="m 411.21886,514.26373 c -30.66378,0.2893 -55.25266,29.50665 -54.96336,65.66683 0.29089,36.16014 25.16715,65.08823 55.83124,65.08823 30.37448,-0.28929 55.25266,-29.50668 54.96336,-65.66682 -0.29089,-35.87085 -25.45677,-65.08824 -55.83124,-65.08824 z m 0.57859,126.99447 c -28.928,0.2893 -52.36001,-27.19248 -52.64931,-61.32764 -0.29089,-33.84594 23.14272,-61.61694 52.07072,-61.90624 28.92799,-0.28929 52.36001,27.19248 52.6493,61.32765 0,34.13516 -23.14271,61.90623 -52.07071,61.90623 z"
       id="path259"
       inkscape:connector-curvature="0"
       style="fill:#001c58" />
    <path
       stroke-miterlimit="10"
       d="m 414.1115,526.70278 c -24.29959,0 -43.97075,23.4318 -43.68146,52.35989 0.2877,28.63886 19.96047,52.07065 44.26005,51.78139 24.29958,0 43.97075,-23.72109 43.68145,-52.35992 0,-28.92816 -19.96046,-52.07065 -44.26004,-51.78136 z"
       id="path261"
       inkscape:connector-curvature="0"
       style="fill:#ffdd00;stroke:#001c58;stroke-width:2.89281249;stroke-miterlimit:10" />
    <path
       d="m 397.04399,553.31667 c -4.04982,6.0749 -8.96785,9.54626 -10.9926,7.52128 -2.02508,-2.02491 -0.2909,-8.6784 3.76052,-14.75333 4.04983,-6.07489 8.96786,-9.54628 10.99261,-7.52131 2.02507,2.02501 0.2909,8.67847 -3.76053,14.75336 z"
       id="path263"
       inkscape:connector-curvature="0"
       style="fill:#ffffff" />
    <path
       d="m 412.95431,625.92625 c -1.44616,0 -2.89264,0 -4.04982,-0.2893 13.30697,-1.15712 26.61395,-11.28196 33.84603,-28.0603 8.09965,-19.09254 6.36419,-41.07791 -3.47155,-55.54198 8.38926,8.6784 13.88556,21.40682 13.88556,35.87088 0.2909,26.32459 -17.93539,47.7314 -40.21022,48.0207 z"
       id="path265"
       inkscape:connector-curvature="0"
       style="fill:#fab690" />
    <path
       d="M 498.29247,527.57067 C 489.32461,422.27225 478.9106,394.50124 478.9106,394.50124 c 0,0 -12.1498,-37.89585 -19.09258,-50.6242 0,0 -4.05014,21.11752 -14.75345,28.92809 0,0 -12.43909,7.81064 -29.79589,-25.746 -17.3568,-33.55664 -5.7856,-57.85625 -2.60366,-59.01337 3.18225,-0.86786 25.74606,6.0749 25.74606,6.0749 0,0 -8.09965,-28.34957 -13.88557,-30.66381 -5.7856,-2.02498 -9.25683,-10.12485 -47.44198,-13.01765 0,0 20.24976,72.03102 19.96046,106.74478 0,0 36.73867,28.0603 50.62424,47.15281 8.09965,10.12488 6.94278,18.80331 6.94278,18.80331 41.65638,94.59499 35.87079,175.01518 39.34202,224.19297 l 4.33944,6.07489 c 2.02475,-33.55657 0,-125.83729 0,-125.83729 z"
       id="path267"
       inkscape:connector-curvature="0"
       style="fill:#00b1eb" />
    <path
       d="m 500.02792,407.80818 c 0,0 -1.44616,-10.99267 -8.96753,-11.57126 0,0 0,0 0,0 -3.76085,-1.15709 -6.94279,0 -6.94279,0 26.03536,94.01643 17.6461,268.7423 17.6461,268.7423 l 27.48184,53.51704 c 2.89264,8.38917 10.9926,19.96043 12.43908,13.88547 1.73578,-9.25696 -2.60366,-184.56143 -41.6567,-324.57355 z"
       id="path269"
       inkscape:connector-curvature="0"
       style="fill:#00b1eb" />
  </g>
</svg>
