<?xml version="1.0" encoding="UTF-8" standalone="no"?>
<!-- Created with Inkscape (http://www.inkscape.org/) -->

<svg
   xmlns:dc="http://purl.org/dc/elements/1.1/"
   xmlns:cc="http://creativecommons.org/ns#"
   xmlns:rdf="http://www.w3.org/1999/02/22-rdf-syntax-ns#"
   xmlns:svg="http://www.w3.org/2000/svg"
   xmlns="http://www.w3.org/2000/svg"
   xmlns:sodipodi="http://sodipodi.sourceforge.net/DTD/sodipodi-0.dtd"
   xmlns:inkscape="http://www.inkscape.org/namespaces/inkscape"
   width="120.79789mm"
   height="26.846291mm"
   viewBox="0 0 120.79789 26.846291"
   version="1.1"
   id="svg514"
   inkscape:version="0.92.4 (unknown)"
   sodipodi:docname="linuxchix-logotipo.svg">
  <defs
     id="defs508" />
  <sodipodi:namedview
     id="base"
     pagecolor="#ffffff"
     bordercolor="#666666"
     borderopacity="1.0"
     inkscape:pageopacity="0.0"
     inkscape:pageshadow="2"
     inkscape:zoom="0.35"
     inkscape:cx="-188.86336"
     inkscape:cy="-434.98114"
     inkscape:document-units="mm"
     inkscape:current-layer="layer1"
     showgrid="false"
     fit-margin-top="0"
     fit-margin-left="0"
     fit-margin-right="0"
     fit-margin-bottom="0"
     inkscape:window-width="1920"
     inkscape:window-height="1016"
     inkscape:window-x="0"
     inkscape:window-y="27"
     inkscape:window-maximized="1" />
  <metadata
     id="metadata511">
    <rdf:RDF>
      <cc:Work
         rdf:about="">
        <dc:format>image/svg+xml</dc:format>
        <dc:type
           rdf:resource="http://purl.org/dc/dcmitype/StillImage" />
        <dc:title></dc:title>
      </cc:Work>
    </rdf:RDF>
  </metadata>
  <g
     inkscape:label="Layer 1"
     inkscape:groupmode="layer"
     id="layer1"
     transform="translate(-13.684384,-6.8982837)">
    <g
       id="g580"
       inkscape:export-filename="/home/vkmc/Downloads/swag/linuxchixar-logotipo.png"
       inkscape:export-xdpi="96"
       inkscape:export-ydpi="96">
      <g
         transform="matrix(0.26458333,0,0,0.26458333,-19.328591,-237.09258)"
         id="text3252"
         style="font-style:normal;font-weight:normal;font-size:93.04386139px;line-height:125%;font-family:Sans;letter-spacing:0px;word-spacing:0px;fill:#001c58;fill-opacity:1;stroke:none"
         inkscape:transform-center-y="-51.583347">
        <path
           inkscape:connector-curvature="0"
           id="path4369"
           style="font-variant:normal;font-weight:bold;font-stretch:normal;font-family:'The Bold Font';-inkscape-font-specification:'The Bold Font Bold';fill:#001c58"
           d="m 165.43362,1023.6365 h -40.66017 v -68.38726 h 15.72442 v 52.66286 h 24.93575 v 15.7244" />
        <path
           inkscape:connector-curvature="0"
           id="path4371"
           style="font-variant:normal;font-weight:bold;font-stretch:normal;font-family:'The Bold Font';-inkscape-font-specification:'The Bold Font Bold';fill:#001c58"
           d="m 187.56498,1023.6365 h -15.72442 v -68.38726 h 15.72442 v 68.38726" />
        <path
           inkscape:connector-curvature="0"
           id="path4373"
           style="font-variant:normal;font-weight:bold;font-stretch:normal;font-family:'The Bold Font';-inkscape-font-specification:'The Bold Font Bold';fill:#001c58"
           d="m 236.27635,955.34228 h 15.72441 v 68.29422 h -17.02703 l -22.33052,-39.8228 v 39.8228 h -15.72442 v -68.10813 h 17.12008 l 22.23748,39.72973 v -39.91582" />
        <path
           inkscape:connector-curvature="0"
           id="path4375"
           style="font-variant:normal;font-weight:bold;font-stretch:normal;font-family:'The Bold Font';-inkscape-font-specification:'The Bold Font Bold';fill:#001c58"
           d="m 286.66395,1023.6365 c -3.47366,0 -6.76121,-0.6203 -9.86265,-1.8609 -3.10148,-1.3026 -5.86178,-3.1325 -8.2809,-5.4896 -2.48118,-2.4812 -4.40409,-5.2725 -5.76872,-8.3739 -1.30262,-3.1015 -1.98494,-6.42 -2.04697,-9.95573 v -42.70713 h 15.72442 v 42.61409 c -2e-5,2.72927 1.02346,5.11747 3.07044,7.16437 2.04694,1.9229 4.46608,2.8844 7.25743,2.8844 1.36461,0 2.66722,-0.2792 3.90784,-0.8374 1.24055,-0.5583 2.32606,-1.3026 3.25653,-2.2331 0.9304,-0.9304 1.64374,-2.0159 2.14001,-3.2565 0.49619,-1.2406 0.74431,-2.57421 0.74435,-4.00091 v -42.33495 h 15.72441 v 42.24191 c 0.062,3.53565 -0.58933,6.88525 -1.95392,10.04875 -1.30266,3.1635 -3.13252,5.9238 -5.48958,8.2809 -2.29513,2.3571 -5.02442,4.249 -8.18786,5.6757 -3.1015,1.3646 -6.42006,2.0779 -9.9557,2.14 h -0.27913" />
        <path
           inkscape:connector-curvature="0"
           id="path4377"
           style="font-variant:normal;font-weight:bold;font-stretch:normal;font-family:'The Bold Font';-inkscape-font-specification:'The Bold Font Bold';fill:#001c58"
           d="m 377.12148,954.78402 -20.09747,33.3097 21.86531,35.54278 h -18.51573 l -12.46788,-20.2836 -12.28179,20.2836 h -18.32964 l 21.30705,-35.44974 -20.46965,-33.40274 h 18.42268 l 11.25831,18.23659 10.88613,-18.23659 h 18.42268" />
        <path
           inkscape:connector-curvature="0"
           id="path4379"
           style="font-variant:normal;font-weight:bold;font-stretch:normal;font-family:'The Bold Font';-inkscape-font-specification:'The Bold Font Bold';fill:#001c58"
           d="m 413.04659,1023.5434 c -4.40411,0 -8.71514,-0.8063 -12.9331,-2.4191 -4.15598,-1.6748 -7.90874,-4.187 -11.25831,-7.5366 -3.22552,-3.2875 -5.70669,-6.9782 -7.44351,-11.0722 -1.67479,-4.15592 -2.51218,-8.52897 -2.51218,-13.11917 0,-4.65215 0.83739,-9.02521 2.51218,-13.11918 1.73682,-4.15591 4.21799,-7.84664 7.44351,-11.07222 3.34957,-3.34952 7.13335,-5.8617 11.35135,-7.53655 4.21797,-1.67472 8.49798,-2.51212 12.84006,-2.51219 4.40404,7e-5 8.68405,0.83747 12.84005,2.51219 4.21794,1.67485 8.00172,4.18703 11.35135,7.53655 l -11.07222,11.07222 c -1.79889,-1.7988 -3.84585,-3.13243 -6.14089,-4.00089 -2.29512,-0.93038 -4.62122,-1.3956 -6.97829,-1.39565 -2.35715,5e-5 -4.68324,0.46527 -6.97829,1.39565 -2.23308,0.86846 -4.24903,2.20209 -6.04785,4.00089 -1.73684,1.79889 -3.07047,3.81484 -4.00089,6.04785 -0.93045,2.23309 -1.39567,4.5902 -1.39566,7.07133 -10e-6,2.48121 0.46521,4.83831 1.39566,7.07134 0.93042,2.17105 2.26405,4.15593 4.00089,5.95483 1.79882,1.7988 3.81477,3.1635 6.04785,4.0939 2.29505,0.8684 4.62114,1.3026 6.97829,1.3026 2.35707,0 4.68317,-0.4342 6.97829,-1.3026 2.29504,-0.9304 4.342,-2.2951 6.14089,-4.0939 l 11.07222,11.1652 c -3.34963,3.3496 -7.1024,5.8618 -11.25831,7.5366 -4.156,1.6128 -8.46703,2.4191 -12.93309,2.4191" />
        <path
           inkscape:connector-curvature="0"
           id="path4381"
           style="font-variant:normal;font-weight:bold;font-stretch:normal;font-family:'The Bold Font';-inkscape-font-specification:'The Bold Font Bold';fill:#001c58"
           d="m 475.75379,955.34228 h 15.72441 v 68.29422 h -15.72441 v -25.77317 h -19.7253 v 25.77317 h -15.72442 v -68.29422 h 15.72442 v 26.79663 h 19.7253 v -26.79663" />
        <path
           inkscape:connector-curvature="0"
           id="path4383"
           style="font-variant:normal;font-weight:bold;font-stretch:normal;font-family:'The Bold Font';-inkscape-font-specification:'The Bold Font Bold';fill:#001c58"
           d="m 515.03574,1023.6365 h -15.72441 v -68.38726 h 15.72441 v 68.38726" />
        <path
           inkscape:connector-curvature="0"
           id="path4385"
           style="font-variant:normal;font-weight:bold;font-stretch:normal;font-family:'The Bold Font';-inkscape-font-specification:'The Bold Font Bold';fill:#001c58"
           d="m 579.56458,954.78402 -20.09747,33.3097 21.86531,35.54278 h -18.51573 l -12.46788,-20.2836 -12.28179,20.2836 h -18.32964 l 21.30705,-35.44974 -20.46965,-33.40274 h 18.42268 l 11.25831,18.23659 10.88613,-18.23659 h 18.42268" />
      </g>
      <g
         transform="matrix(0.26458333,0,0,0.26458333,-19.328591,-237.09258)"
         id="text3260"
         style="font-style:normal;font-weight:normal;font-size:36.40596008px;line-height:125%;font-family:Sans;letter-spacing:0px;word-spacing:0px;fill:#00b1eb;fill-opacity:1;stroke:none">
        <path
           inkscape:connector-curvature="0"
           id="path4388"
           style="font-style:italic;font-variant:normal;font-weight:bold;font-stretch:normal;font-size:76.71937561px;font-family:'Jenna Sue';-inkscape-font-specification:'Jenna Sue Bold Italic';fill:#00b1eb"
           d="m 420.57321,933.69725 c -0.10232,0.3069 -0.35805,0.94623 -0.7672,1.91798 -0.35804,0.9718 -0.76721,2.12259 -1.22751,3.45238 -0.46033,1.27867 -0.92065,2.63404 -1.38095,4.06612 -0.40918,1.43211 -0.76721,2.78748 -1.07407,4.06613 -0.25575,1.27866 -0.38361,2.37831 -0.38359,3.29893 -2e-5,0.86949 0.17899,1.40653 0.53703,1.61111 1.07405,0.56261 2.30156,0.3836 3.68253,-0.53704 1.43207,-0.97177 3.17105,-2.42944 5.21692,-4.373 0.15341,1e-5 0.10227,0.20459 -0.15344,0.61376 -0.20461,0.40917 -0.48591,0.86949 -0.84391,1.38094 -0.35805,0.46033 -0.74165,0.94622 -1.15079,1.45767 -0.35805,0.46032 -0.63935,0.7672 -0.84392,0.92063 -0.51148,0.51147 -1.22753,1.09965 -2.14814,1.76455 -0.86951,0.61376 -1.79014,1.12522 -2.7619,1.53439 -0.92065,0.35802 -1.76456,0.51146 -2.53174,0.46031 -0.7672,-0.0511 -1.32981,-0.51146 -1.68782,-1.38094 -0.15345,-0.61376 -0.17903,-1.35538 -0.0767,-2.22487 0.15342,-0.92062 0.35801,-1.84126 0.61375,-2.76189 0.25572,-0.92063 0.51145,-1.76454 0.7672,-2.53174 0.25571,-0.76719 0.43472,-1.32979 0.53703,-1.68783 -1.48325,1.99471 -3.09436,3.88712 -4.83332,5.67723 -1.73898,1.79013 -3.37566,3.19665 -4.91004,4.21957 -1.53439,1.02293 -2.86419,1.55996 -3.98941,1.61111 -1.12521,0.10229 -1.86683,-0.53704 -2.22486,-1.91799 -0.10229,-1.3298 0.17901,-2.81304 0.84392,-4.44972 0.71604,-1.68782 1.55995,-3.19663 2.53173,-4.52644 1.48324,-1.84126 2.96648,-3.52908 4.44973,-5.06348 1.48323,-1.53437 2.99204,-2.8386 4.52644,-3.91269 1.53438,-1.07405 3.06876,-1.84125 4.60316,-2.30158 1.58552,-0.51144 3.14548,-0.63931 4.67989,-0.3836 m -18.33593,19.48672 c 0.51145,0.1023 1.40651,-0.2813 2.68517,-1.15079 1.27865,-0.86948 2.68517,-2.07142 4.21957,-3.60581 1.58552,-1.58552 3.06876,-3.40121 4.44972,-5.44708 1.43208,-2.09698 2.53173,-4.29626 3.29894,-6.59786 -0.20461,2e-5 -0.51148,2e-5 -0.92064,0 -0.35804,2e-5 -0.81835,0.15346 -1.38095,0.46031 -2.1993,1.27868 -4.16843,2.78749 -5.90739,4.52645 -1.73898,1.68784 -3.1455,3.35009 -4.21956,4.98676 -1.07408,1.58554 -1.8157,3.01763 -2.22486,4.29628 -0.40918,1.27866 -0.40918,2.12258 0,2.53174" />
        <path
           inkscape:connector-curvature="0"
           id="path4390"
           style="font-style:italic;font-variant:normal;font-weight:bold;font-stretch:normal;font-size:76.71937561px;font-family:'Jenna Sue';-inkscape-font-specification:'Jenna Sue Bold Italic';fill:#00b1eb"
           d="m 427.73808,932.00942 c 0.0511,-0.46029 0.30687,-0.56258 0.76719,-0.30687 0.51145,0.20461 1.02292,0.43476 1.53439,0.69047 -1e-5,1.17639 -0.0256,2.12259 -0.0767,2.83862 -0.0512,0.66492 -0.12788,1.30425 -0.23016,1.91798 -0.0512,0.61378 -0.12787,1.27868 -0.23016,1.99471 -0.0512,0.71606 -0.15345,1.66226 -0.30688,2.83861 0.71604,-1.17635 1.50881,-2.25042 2.3783,-3.22221 0.86948,-1.02291 1.8924,-1.89239 3.06878,-2.60846 1.17635,-0.71603 2.53172,-1.22749 4.06613,-1.53439 1.53436,-0.358 3.29891,-0.48586 5.29363,-0.38359 -0.0512,0.40919 -0.25575,0.76721 -0.61375,1.07407 -0.3069,0.25575 -0.99737,0.46033 -2.07142,0.61375 -1.53441,0.25575 -2.94093,0.76722 -4.21957,1.53439 -1.22753,0.71607 -2.32717,1.55998 -3.29893,2.53174 -0.97179,0.97179 -1.81571,2.02029 -2.53174,3.14549 -0.71606,1.07409 -1.32981,2.07144 -1.84127,2.99206 -0.1023,0.46032 -0.28131,1.12523 -0.53703,1.9947 -0.25574,0.81835 -0.4859,1.71341 -0.69048,2.68518 -0.20459,0.92064 -0.40917,1.84127 -0.61375,2.7619 -0.20459,0.86949 -0.30689,1.55996 -0.30688,2.07142 -1e-5,0.25573 -0.15345,0.46032 -0.46032,0.61376 -0.30688,0.10229 -0.6649,0.17901 -1.07407,0.23015 -0.35803,0.0512 -0.69048,0.0256 -0.99735,-0.0767 -0.25573,-0.1023 -0.35803,-0.28131 -0.30688,-0.53704 1.17636,-5.26806 1.94355,-9.7945 2.30158,-13.57933 0.35802,-3.83595 0.69047,-7.26275 0.99736,-10.2804" />
        <path
           inkscape:connector-curvature="0"
           id="path4392"
           style="font-style:italic;font-variant:normal;font-weight:bold;font-stretch:normal;font-size:76.71937561px;font-family:'Jenna Sue';-inkscape-font-specification:'Jenna Sue Bold Italic';fill:#00b1eb"
           d="m 459.8739,947.89033 c 0.0511,0.10231 -0.0256,0.28132 -0.23015,0.53704 -0.15347,0.25574 -0.38363,0.53704 -0.69048,0.84391 -0.25575,0.30689 -0.53706,0.61376 -0.84391,0.92064 -0.25576,0.25573 -0.46034,0.43474 -0.61376,0.53703 -1.48326,1.38095 -2.81306,2.58289 -3.9894,3.60581 -1.17639,0.97178 -2.14816,1.81569 -2.91534,2.53174 -2e-5,0.0512 -0.0767,0.33245 -0.23016,0.84391 -0.10231,0.56261 -0.15345,0.86949 -0.15344,0.92064 -0.46033,1.73897 -0.8695,3.47794 -1.22751,5.21691 -0.30689,1.79011 -0.76721,3.58023 -1.38095,5.37036 -0.71606,2.04584 -1.38096,3.68251 -1.9947,4.91004 -0.56262,1.27864 -1.09966,2.30156 -1.61111,3.06878 -0.51147,0.81831 -1.02293,1.48321 -1.53438,1.9947 -0.46033,0.56259 -0.99736,1.17634 -1.61111,1.84126 -0.51147,0.56259 -1.07408,1.04848 -1.68783,1.45767 -0.56261,0.40915 -1.3298,0.89504 -2.30158,1.45767 -1.3298,0.71602 -2.6596,1.25306 -3.98941,1.61111 -1.38094,0.35799 -2.58288,0.40914 -3.60581,0.15344 -1.02292,-0.20462 -1.81568,-0.76723 -2.3783,-1.68783 -0.5626,-0.92066 -0.71604,-2.30161 -0.46031,-4.14285 0.30688,-2.04587 1.07407,-4.06614 2.30158,-6.06083 1.22751,-1.99472 2.58289,-3.81041 4.06612,-5.44707 1.4321,-1.63669 2.78747,-3.01764 4.06613,-4.14285 1.3298,-1.12522 2.22486,-1.89242 2.68518,-2.30158 0.81833,-0.71605 1.53438,-1.32981 2.14814,-1.84126 0.66489,-0.51147 1.30422,-0.99736 1.91799,-1.45767 0.66489,-0.40917 1.35536,-0.86949 2.07142,-1.38095 0.76718,-0.51146 1.66224,-1.12522 2.68518,-1.84127 0.4603,-1.2275 0.8439,-2.50616 1.15079,-3.83597 0.35801,-1.38094 0.63931,-2.78746 0.84391,-4.21956 -1.27867,1.89242 -2.55733,3.37566 -3.83597,4.44972 -1.27867,1.07408 -2.40388,1.89242 -3.37565,2.45502 -0.92064,0.51147 -1.66226,0.84392 -2.22486,0.99735 -0.56262,0.1023 -0.79278,0.15344 -0.69048,0.15344 -0.97178,0.15344 -1.76455,0.20459 -2.3783,0.15344 -0.56261,-0.10229 -0.99735,-0.25573 -1.30423,-0.46031 -0.25573,-0.25573 -0.46031,-0.53704 -0.61375,-0.84392 -0.1023,-0.30687 -0.15344,-0.61375 -0.15344,-0.92063 0,-1.3298 0.2813,-2.68517 0.84391,-4.06613 0.56261,-1.43208 1.25308,-2.78746 2.07143,-4.06612 0.81833,-1.27865 1.66224,-2.45501 2.53174,-3.52909 0.86947,-1.07406 1.66224,-1.94355 2.3783,-2.60846 0.10228,-0.10228 0.38358,-0.35801 0.84391,-0.7672 0.51145,-0.4603 1.12521,-0.94618 1.84126,-1.45767 0.71604,-0.56258 1.55995,-1.12519 2.53174,-1.68782 1.02291,-0.56259 2.1737,-1.07405 3.45238,-1.53439 1.22749,-0.25571 2.45499,-0.358 3.68253,-0.30688 1.22748,3e-5 2.17369,0.28133 2.83861,0.84392 -0.46034,0.15346 -1.15081,0.35804 -2.07142,0.61375 -0.86951,0.20461 -1.43212,0.35805 -1.68783,0.46032 l -0.0767,0.15344 c -2e-5,0.15346 0.0511,0.23018 0.15344,0.23015 -0.81836,-0.20456 -2.25045,0.15346 -4.29628,1.07408 -2.04587,0.92065 -4.39859,2.68519 -7.05819,5.29363 -1.22751,1.38096 -2.22486,2.63405 -2.99205,3.75925 -0.71605,1.07408 -1.27866,2.02029 -1.68783,2.83862 -0.35803,0.7672 -0.58818,1.4321 -0.69047,1.9947 -0.1023,0.56262 -0.17902,0.99736 -0.23016,1.30423 0.0511,0.20459 0.20458,0.3836 0.46032,0.53704 0.25572,0.15344 0.63932,0.17901 1.15079,0.0767 1.38094,-0.30688 2.73631,-0.97178 4.06612,-1.99471 1.38094,-1.07406 2.68517,-2.276 3.91269,-3.60581 1.2275,-1.32979 2.30157,-2.63402 3.22222,-3.91269 0.92061,-1.27864 1.61108,-2.30156 2.07142,-3.06877 0.71603,-1.17635 1.17634,-2.25042 1.38095,-3.22221 0.25571,-1.02291 0.33243,-1.53437 0.23016,-1.53439 -2e-5,2e-5 0.0256,2e-5 0.0767,0 0.10227,2e-5 0.17899,2e-5 0.23015,0 0.0511,2e-5 0.0511,0.0256 0,0.0767 -2e-5,2e-5 -0.15346,0.0256 -0.46031,0.0767 0.10227,-0.10227 0.20456,-0.15342 0.30687,-0.15344 0.10228,-0.0511 0.20457,-0.10227 0.30688,-0.15344 -2e-5,-0.0511 0.0256,-0.10227 0.0767,-0.15344 0.10227,-0.10227 0.20457,-0.15342 0.30688,-0.15344 0.0511,-0.10227 0.20456,-0.20456 0.46032,-0.30688 l 0.46031,-0.15343 0.30688,-0.15344 c 0.20456,-0.10227 0.33243,-0.17899 0.3836,-0.23016 0.10227,-0.0511 0.17898,-0.0767 0.23015,-0.0767 0.10227,2e-5 0.23014,0.0512 0.3836,0.15344 0.20456,0.0512 0.53701,0.15346 0.99735,0.30688 -0.66492,1.22753 -1.3554,2.73634 -2.07142,4.52644 -0.66492,1.73899 -1.30425,3.50353 -1.91798,5.29364 -0.61378,1.79013 -1.17639,3.50352 -1.68783,5.14019 -0.51148,1.58554 -0.92065,2.83863 -1.22751,3.75925 0.4603,-0.40916 1.15077,-0.89505 2.07142,-1.45766 0.92061,-0.56261 1.81567,-1.12522 2.68518,-1.68783 1.0229,-0.61375 2.12255,-1.25308 3.29893,-1.91799 m -12.35182,13.27246 c 0.40916,-1.17637 0.53703,-1.89242 0.3836,-2.14815 -0.10231,-0.15344 -0.23017,-0.20458 -0.3836,-0.15343 -1.58554,1.12521 -2.88977,2.07141 -3.91268,2.83861 -1.02294,0.76719 -1.71341,1.27865 -2.07143,1.53439 -2.91534,2.30157 -5.16577,4.32185 -6.7513,6.06083 -1.53439,1.7901 -2.65961,3.42678 -3.37565,4.91004 -0.86949,1.63666 -1.45767,3.06875 -1.76455,4.29629 -0.35802,1.27863 -0.30687,2.50614 0.15344,3.68253 1.12522,0.97175 2.50617,1.15076 4.14284,0.53703 1.58554,-0.56263 3.1455,-1.45769 4.67989,-2.68518 1.84126,-1.68785 3.50351,-4.06614 4.98676,-7.1349 1.53437,-3.01764 2.8386,-6.93033 3.91268,-11.73806" />
        <path
           inkscape:connector-curvature="0"
           id="path4394"
           style="font-style:italic;font-variant:normal;font-weight:bold;font-stretch:normal;font-size:76.71937561px;font-family:'Jenna Sue';-inkscape-font-specification:'Jenna Sue Bold Italic';fill:#00b1eb"
           d="m 467.92345,934.54116 c 0.15342,-0.0511 0.61374,-0.17899 1.38095,-0.38359 0.76718,-0.25571 1.35536,-0.30686 1.76454,-0.15344 1.48323,-0.0511 2.53172,0.33247 3.1455,1.15079 0.66488,0.81836 0.43472,2.40389 -0.69048,4.7566 -1.5344,2.60847 -3.27337,4.78219 -5.21692,6.52115 -1.94356,1.73898 -4.16842,3.40123 -6.67458,4.98676 0.20458,1.3298 0.79276,2.07142 1.76454,2.22486 1.02292,0.15344 2.14814,0 3.37566,-0.46032 1.22749,-0.51146 2.455,-1.17636 3.68253,-1.9947 1.22749,-0.81834 2.25042,-1.53438 3.06877,-2.14814 1.22749,-0.92063 2.22484,-1.68782 2.99206,-2.30159 0.76717,-0.66489 1.61108,-1.45765 2.53174,-2.3783 0.15341,-0.10228 0.23013,-0.0767 0.23015,0.0767 -2e-5,0.10231 -0.0512,0.28132 -0.15343,0.53704 -0.10232,0.25574 -0.23018,0.61376 -0.3836,1.07407 -0.25575,0.35803 -0.48591,0.69048 -0.69048,0.99735 -0.2046,0.25574 -0.48591,0.56262 -0.84391,0.92063 -0.35804,0.30689 -0.81836,0.69049 -1.38095,1.15079 -0.51148,0.46033 -1.17638,1.07408 -1.9947,1.84127 -0.92065,0.71605 -1.81571,1.4321 -2.68518,2.14814 -0.81835,0.66491 -1.68784,1.25309 -2.60846,1.76455 -0.8695,0.51146 -1.8157,0.86948 -2.83862,1.07407 -0.97178,0.20458 -2.04585,0.20458 -3.22221,0 -0.97178,-0.35802 -1.73898,-0.74162 -2.30158,-1.15079 -0.51147,-0.40917 -0.89506,-0.81834 -1.15079,-1.22751 -0.20459,-0.46031 -0.35803,-0.86948 -0.46032,-1.22751 -0.0511,-0.35802 -0.0767,-0.6649 -0.0767,-0.92063 -0.0511,-1.02292 0.10229,-2.40387 0.46032,-4.14285 0.40917,-1.73896 1.38094,-3.98939 2.91534,-6.75131 0.97177,-1.43207 1.91797,-2.63401 2.83861,-3.60581 0.97177,-1.0229 2.04584,-1.81567 3.22222,-2.3783 m -6.13755,13.57933 c 0.76718,-0.35801 1.66224,-0.8439 2.68517,-1.45767 1.02292,-0.66489 1.9947,-1.40651 2.91534,-2.22486 0.97177,-0.86947 1.84125,-1.81568 2.60846,-2.83861 0.81833,-1.02291 1.38093,-2.09698 1.68783,-3.22222 0.30686,-0.76717 0.38358,-1.30421 0.23015,-1.6111 -0.1023,-0.15342 -0.2046,-0.23014 -0.30687,-0.23016 -0.76721,-0.40915 -1.66227,-0.28129 -2.68518,0.38359 -0.97179,0.66492 -1.94357,1.61113 -2.91534,2.83862 -0.97178,1.22753 -1.86684,2.60847 -2.68518,4.14285 -0.7672,1.48325 -1.27866,2.88977 -1.53438,4.21956" />
        <path
           inkscape:connector-curvature="0"
           id="path4396"
           style="font-style:italic;font-variant:normal;font-weight:bold;font-stretch:normal;font-size:76.71937561px;font-family:'Jenna Sue';-inkscape-font-specification:'Jenna Sue Bold Italic';fill:#00b1eb"
           d="m 484.11123,932.85334 c -0.30688,1.43211 -0.61376,2.86421 -0.92063,4.29628 -0.30689,1.43211 -0.61376,2.81306 -0.92063,4.14285 -0.25574,1.32981 -0.51147,2.5829 -0.7672,3.75925 -0.25573,1.17637 -0.51147,2.22487 -0.76719,3.14549 0.0511,-0.20457 0.25572,-0.69046 0.61375,-1.45767 0.40917,-0.81833 0.92063,-1.73896 1.53439,-2.76189 0.61375,-1.02292 1.27865,-2.09699 1.9947,-3.22222 0.71604,-1.17634 1.43209,-2.19927 2.14815,-3.06877 0.76718,-0.92062 1.48323,-1.63666 2.14814,-2.14814 0.71603,-0.51145 1.30421,-0.66488 1.76455,-0.46032 1.0229,0.51148 1.66223,1.2531 1.91798,2.22486 0.30686,0.9718 0.43473,2.09701 0.3836,3.37565 -0.0512,1.22753 -0.12789,2.60848 -0.23016,4.14285 -0.10231,1.5344 0.0256,3.1455 0.3836,4.83332 0.15342,0.7672 0.48587,1.32981 0.99735,1.68783 0.51144,0.35802 1.0229,0.61376 1.53439,0.76719 0.51144,0.15344 0.92061,0.25574 1.22751,0.30688 0.358,0 0.46029,0.0767 0.30687,0.23016 -1.43211,0.97178 -2.5829,1.30423 -3.45237,0.99735 -0.8695,-0.30688 -1.5344,-0.97178 -1.9947,-1.99471 -0.40919,-1.07406 -0.66492,-2.32714 -0.7672,-3.75925 -0.1023,-1.48323 -0.2046,-2.88975 -0.30687,-4.21956 -0.0512,-1.38094 -0.10231,-2.53173 -0.15344,-3.45237 -0.0512,-0.97176 -0.23018,-1.45765 -0.53704,-1.45767 -0.51148,0.0512 -1.12523,0.48591 -1.84126,1.30423 -0.66492,0.81835 -1.40654,1.84128 -2.22487,3.06877 -0.81835,1.22753 -1.63668,2.5829 -2.45502,4.06613 -0.7672,1.4321 -1.50882,2.78748 -2.22486,4.06613 -0.6649,1.27866 -1.22751,2.3783 -1.68782,3.29893 -0.40918,0.92063 -0.66491,1.48324 -0.7672,1.68783 -0.76719,0 -1.25308,0.0256 -1.45767,0.0767 -0.15344,0.0511 -0.38359,-0.20459 -0.69047,-0.7672 1.12522,-4.50086 2.04585,-8.746 2.7619,-12.73541 0.76719,-4.04054 1.35537,-7.54406 1.76454,-10.51056 0.10229,-0.46029 0.25573,-0.69045 0.46032,-0.69047 0.25572,2e-5 0.51146,0.10231 0.76719,0.30687 0.25573,0.20461 0.51146,0.4092 0.7672,0.61376 0.25572,0.20461 0.48588,0.3069 0.69047,0.30688" />
        <path
           inkscape:connector-curvature="0"
           id="path4398"
           style="font-style:italic;font-variant:normal;font-weight:bold;font-stretch:normal;font-size:76.71937561px;font-family:'Jenna Sue';-inkscape-font-specification:'Jenna Sue Bold Italic';fill:#00b1eb"
           d="m 507.46149,933.39037 c 2.19927,-0.15341 4.37299,-0.30685 6.52115,-0.46031 2.19926,-0.20457 4.4497,-0.40915 6.75131,-0.61376 0.51143,0.0512 0.79273,0.33248 0.84391,0.84391 0.0511,0.46034 -0.20462,0.74165 -0.7672,0.84392 -1.94358,0.2046 -4.19401,0.48591 -6.7513,0.84391 -2.50619,0.35805 -4.91006,0.81836 -7.21162,1.38095 -0.2046,1.58555 -0.48591,3.22223 -0.84391,4.91004 -0.3069,1.63669 -0.5882,3.27337 -0.84392,4.91004 -0.25574,1.58554 -0.40918,3.1455 -0.46031,4.67988 -0.0512,1.48325 0.0511,2.86419 0.30687,4.14285 0.51145,0.86948 1.09963,1.38095 1.76455,1.53439 0.71603,0.15343 1.4065,0.10229 2.07142,-0.15344 0.71603,-0.20459 1.38093,-0.53704 1.99471,-0.99736 0.66488,-0.51146 1.22748,-0.99735 1.68782,-1.45766 0.4603,-0.35802 0.76717,-0.35802 0.92063,0 0.15342,0.35802 -0.17903,0.89506 -0.99735,1.6111 -0.35804,0.35803 -0.81836,0.74162 -1.38095,1.15079 -0.51148,0.40917 -1.12523,0.74162 -1.84126,0.99736 -0.71607,0.30687 -1.48326,0.48588 -2.30158,0.53703 -0.76721,0.10229 -1.58555,0.0256 -2.45502,-0.23016 -1.12523,-0.30688 -1.81571,-1.25308 -2.07143,-2.83861 -0.25574,-1.58553 -0.30688,-3.4268 -0.15343,-5.5238 0.15342,-2.14813 0.40915,-4.37299 0.76719,-6.67458 0.35801,-2.30157 0.63931,-4.37299 0.84391,-6.21427 -2.30159,0.2046 -3.98941,0.38361 -5.06348,0.53703 -1.07407,0.15346 -1.84127,0.25575 -2.30158,0.30688 -0.46032,0.0512 -0.7672,0.0256 -0.92063,-0.0767 -0.1023,-0.10227 -0.33245,-0.33243 -0.69047,-0.69047 0.10228,-0.25572 0.15343,-0.48587 0.15343,-0.69048 0.0511,-0.25571 0.10229,-0.46029 0.15344,-0.61375 0.0512,-0.15342 0.17901,-0.30686 0.3836,-0.46032 0.20458,-0.15342 0.58818,-0.28128 1.15079,-0.3836 0.76719,-0.20456 1.8924,-0.30685 3.37565,-0.30687 1.48323,-0.0511 2.91533,-0.17899 4.29629,-0.3836 0.30686,-1.63666 0.51145,-2.91531 0.61375,-3.83597 0.15343,-0.92061 0.25572,-1.71337 0.30688,-2.3783 0.10228,-0.71602 0.20457,-1.40649 0.30688,-2.07142 0.15342,-0.66487 0.33243,-1.53436 0.53703,-2.60846 0.0511,-0.2557 0.23015,-0.43471 0.53704,-0.53704 0.30686,-0.1534 0.63931,-0.23012 0.99735,-0.23016 0.35801,-0.0511 0.66489,4e-5 0.92063,0.15344 0.30686,0.10233 0.48588,0.28134 0.53704,0.53704 0.0511,0.46035 -2e-5,1.15082 -0.15344,2.07142 -0.10231,0.86952 -0.25575,1.81572 -0.46032,2.83862 -0.15345,0.9718 -0.33246,1.96916 -0.53703,2.99205 -0.2046,1.02295 -0.38361,1.89244 -0.53704,2.60846" />
        <path
           inkscape:connector-curvature="0"
           id="path4400"
           style="font-style:italic;font-variant:normal;font-weight:bold;font-stretch:normal;font-size:76.71937561px;font-family:'Jenna Sue';-inkscape-font-specification:'Jenna Sue Bold Italic';fill:#00b1eb"
           d="m 525.53251,922.49622 c 0.51145,-0.10226 0.74161,0.20462 0.69047,0.92063 -10e-6,0.71608 -0.2046,1.25312 -0.61375,1.61111 -0.61377,0.46035 -1.04851,0.86952 -1.30423,1.22751 -0.2046,0.30691 -0.58819,0.51149 -1.15079,0.61376 -0.30689,-0.0511 -0.58819,-0.0511 -0.84392,0 -0.20459,3e-5 -0.30688,-0.43472 -0.30687,-1.30423 0.30687,-0.56258 0.74161,-1.12519 1.30422,-1.68783 0.5626,-0.56258 1.30422,-1.02289 2.22487,-1.38095 m -1.76455,9.97352 c -0.25574,2.45504 -0.63934,5.16579 -1.15079,8.13225 -0.46032,2.91535 -0.86949,5.98412 -1.22751,9.20633 -0.15345,1.63668 -0.23016,2.91534 -0.23016,3.83597 0.0511,0.92063 0.0511,1.79012 0,2.60846 -0.86949,0.15344 -1.50882,0.15344 -1.91798,0 -0.40918,-0.20459 -0.79277,-0.43475 -1.15079,-0.69048 0.0511,-0.81834 0.20458,-2.17371 0.46031,-4.06612 0.25573,-1.89241 0.53703,-3.93826 0.84392,-6.13755 0.30687,-2.25043 0.61375,-4.42414 0.92063,-6.52115 0.30687,-2.09698 0.51146,-3.75923 0.61375,-4.98676 0.25573,-0.10227 0.46031,-0.25571 0.61376,-0.46032 0.15343,-0.20456 0.33244,-0.38357 0.53703,-0.53703 0.20458,-0.15342 0.43474,-0.28128 0.69048,-0.3836 0.25572,-0.10227 0.58817,-0.10227 0.99735,0" />
        <path
           inkscape:connector-curvature="0"
           id="path4402"
           style="font-style:italic;font-variant:normal;font-weight:bold;font-stretch:normal;font-size:76.71937561px;font-family:'Jenna Sue';-inkscape-font-specification:'Jenna Sue Bold Italic';fill:#00b1eb"
           d="m 534.0088,932.85334 c -0.30689,1.43211 -0.61376,2.86421 -0.92063,4.29628 -0.30689,1.43211 -0.61377,2.81306 -0.92064,4.14285 -0.25573,1.32981 -0.51146,2.5829 -0.76719,3.75925 -0.25574,1.17637 -0.51147,2.22487 -0.76719,3.14549 0.0511,-0.20457 0.25572,-0.69046 0.61375,-1.45767 0.40917,-0.81833 0.92063,-1.73896 1.53439,-2.76189 0.61375,-1.02292 1.27865,-2.09699 1.9947,-3.22222 0.71604,-1.17634 1.43209,-2.19927 2.14815,-3.06877 0.76718,-0.92062 1.48322,-1.63666 2.14814,-2.14814 0.71603,-0.51145 1.30421,-0.66488 1.76454,-0.46032 1.02291,0.51148 1.66224,1.2531 1.91799,2.22486 0.30686,0.9718 0.43472,2.09701 0.38359,3.37565 -0.0512,1.22753 -0.12788,2.60848 -0.23015,4.14285 -0.10231,1.5344 0.0256,3.1455 0.38359,4.83332 0.15342,0.7672 0.48587,1.32981 0.99736,1.68783 0.51144,0.35802 1.0229,0.61376 1.53438,0.76719 0.51144,0.15344 0.92061,0.25574 1.22751,0.30688 0.358,0 0.4603,0.0767 0.30688,0.23016 -1.43211,0.97178 -2.5829,1.30423 -3.45237,0.99735 -0.86951,-0.30688 -1.53441,-0.97178 -1.99471,-1.99471 -0.40918,-1.07406 -0.66491,-2.32714 -0.76719,-3.75925 -0.10231,-1.48323 -0.2046,-2.88975 -0.30688,-4.21956 -0.0512,-1.38094 -0.1023,-2.53173 -0.15344,-3.45237 -0.0512,-0.97176 -0.23017,-1.45765 -0.53703,-1.45767 -0.51148,0.0512 -1.12523,0.48591 -1.84127,1.30423 -0.66491,0.81835 -1.40653,1.84128 -2.22486,3.06877 -0.81835,1.22753 -1.63669,2.5829 -2.45502,4.06613 -0.7672,1.4321 -1.50882,2.78748 -2.22486,4.06613 -0.66491,1.27866 -1.22751,2.3783 -1.68783,3.29893 -0.40917,0.92063 -0.6649,1.48324 -0.76719,1.68783 -0.7672,0 -1.25308,0.0256 -1.45767,0.0767 -0.15344,0.0511 -0.3836,-0.20459 -0.69047,-0.7672 1.12521,-4.50086 2.04584,-8.746 2.7619,-12.73541 0.76718,-4.04054 1.35537,-7.54406 1.76454,-10.51056 0.10229,-0.46029 0.25573,-0.69045 0.46032,-0.69047 0.25572,2e-5 0.51145,0.10231 0.76719,0.30687 0.25572,0.20461 0.51146,0.4092 0.76719,0.61376 0.25573,0.20461 0.48589,0.3069 0.69048,0.30688" />
        <path
           inkscape:connector-curvature="0"
           id="path4404"
           style="font-style:italic;font-variant:normal;font-weight:bold;font-stretch:normal;font-size:76.71937561px;font-family:'Jenna Sue';-inkscape-font-specification:'Jenna Sue Bold Italic';fill:#00b1eb"
           d="m 566.81951,933.69725 c -0.10231,0.3069 -0.35804,0.94623 -0.76719,1.91798 -0.35804,0.9718 -0.76721,2.12259 -1.22751,3.45238 -0.46034,1.27867 -0.92065,2.63404 -1.38095,4.06612 -0.40919,1.43211 -0.76721,2.78748 -1.07407,4.06613 -0.25575,1.27866 -0.38361,2.37831 -0.3836,3.29893 -10e-6,0.86949 0.179,1.40653 0.53704,1.61111 1.07405,0.56261 2.30156,0.3836 3.68253,-0.53704 1.43207,-0.97177 3.17104,-2.42944 5.21692,-4.373 0.15341,1e-5 0.10226,0.20459 -0.15344,0.61376 -0.20461,0.40917 -0.48592,0.86949 -0.84392,1.38094 -0.35804,0.46033 -0.74164,0.94622 -1.15079,1.45767 -0.35804,0.46032 -0.63935,0.7672 -0.84391,0.92063 -0.51148,0.51147 -1.22753,1.09965 -2.14814,1.76455 -0.86951,0.61376 -1.79014,1.12522 -2.7619,1.53439 -0.92065,0.35802 -1.76456,0.51146 -2.53174,0.46031 -0.76721,-0.0511 -1.32982,-0.51146 -1.68783,-1.38094 -0.15345,-0.61376 -0.17902,-1.35538 -0.0767,-2.22487 0.15342,-0.92062 0.35801,-1.84126 0.61375,-2.76189 0.25572,-0.92063 0.51145,-1.76454 0.76719,-2.53174 0.25572,-0.76719 0.43473,-1.32979 0.53704,-1.68783 -1.48326,1.99471 -3.09436,3.88712 -4.83332,5.67723 -1.73898,1.79013 -3.37566,3.19665 -4.91004,4.21957 -1.53439,1.02293 -2.86419,1.55996 -3.98941,1.61111 -1.12522,0.10229 -1.86684,-0.53704 -2.22486,-1.91799 -0.10229,-1.3298 0.17901,-2.81304 0.84391,-4.44972 0.71605,-1.68782 1.55996,-3.19663 2.53174,-4.52644 1.48324,-1.84126 2.96648,-3.52908 4.44973,-5.06348 1.48323,-1.53437 2.99204,-2.8386 4.52644,-3.91269 1.53437,-1.07405 3.06876,-1.84125 4.60316,-2.30158 1.58552,-0.51144 3.14548,-0.63931 4.67988,-0.3836 m -18.33593,19.48672 c 0.51146,0.1023 1.40652,-0.2813 2.68518,-1.15079 1.27865,-0.86948 2.68517,-2.07142 4.21957,-3.60581 1.58552,-1.58552 3.06876,-3.40121 4.44972,-5.44708 1.43208,-2.09698 2.53172,-4.29626 3.29893,-6.59786 -0.2046,2e-5 -0.51148,2e-5 -0.92063,0 -0.35804,2e-5 -0.81835,0.15346 -1.38095,0.46031 -2.1993,1.27868 -4.16843,2.78749 -5.90739,4.52645 -1.73898,1.68784 -3.1455,3.35009 -4.21957,4.98676 -1.07407,1.58554 -1.81569,3.01763 -2.22486,4.29628 -0.40917,1.27866 -0.40917,2.12258 0,2.53174" />
      </g>
    </g>
  </g>
</svg>
