<?xml version="1.0" encoding="utf-8"?>
<!-- Generator: Adobe Illustrator 23.1.0, SVG Export Plug-In . SVG Version: 6.00 Build 0)  -->
<svg version="1.1" xmlns="http://www.w3.org/2000/svg" xmlns:xlink="http://www.w3.org/1999/xlink" x="0px" y="0px"
	 viewBox="0 0 444.6 739.1" style="enable-background:new 0 0 444.6 739.1;" xml:space="preserve">
<style type="text/css">
	.st0{fill:#A5A9C6;}
	.st1{fill:#F4763B;}
	.st2{fill:#F89C6E;}
	.st3{fill:#FFFFFF;}
	.st4{fill:#666E9A;}
	.st5{fill:#FDD1B7;}
	.st6{fill:#FCC4A3;}
	.st7{fill:#F9A97E;}
	.st8{fill:#FFEDE2;}
	.st9{fill:#D3D5E4;}
	.st10{fill:#FAB690;}
	.st11{fill:#00B1EB;}
	.st12{fill:#7D84AB;}
	.st13{fill:#2B165E;}
	.st14{fill:#001C58;}
	.st15{fill:none;}
	.st16{fill:#FFDD00;}
</style>
<g id="svg4077" inkscape:export-filename="/home/vkmc/Downloads/swag/linuxchixar-isotipo.png" inkscape:export-xdpi="96" inkscape:export-ydpi="96" inkscape:version="0.92.4 (unknown)" sodipodi:docname="linuxchixar-isologo.svg" xmlns:cc="http://creativecommons.org/ns#" xmlns:dc="http://purl.org/dc/elements/1.1/" xmlns:inkscape="http://www.inkscape.org/namespaces/inkscape" xmlns:rdf="http://www.w3.org/1999/02/22-rdf-syntax-ns#" xmlns:sodipodi="http://sodipodi.sourceforge.net/DTD/sodipodi-0.dtd" xmlns:svg="http://www.w3.org/2000/svg">
	
		<sodipodi:namedview  bordercolor="#666666" borderopacity="1.0" fit-margin-bottom="0" fit-margin-left="0" fit-margin-right="0" fit-margin-top="0" id="base" inkscape:current-layer="layer1" inkscape:cx="-164.73967" inkscape:cy="113.66269" inkscape:document-units="mm" inkscape:pageopacity="0.0" inkscape:pageshadow="2" inkscape:window-height="768" inkscape:window-maximized="0" inkscape:window-width="1366" inkscape:window-x="0" inkscape:window-y="27" inkscape:zoom="0.56" pagecolor="#ffffff" showgrid="false" showguides="false">
		</sodipodi:namedview>
	<g id="g3" transform="matrix(2.8928123,0,0,2.8928123,73.62739,39.263881)">
		<path id="path5" inkscape:connector-curvature="0" class="st0" d="M45.5,4.2c0,0,0.2,2.6,2.3,2.6l0.2-1c0,0-1.6-1.2-0.2-3.3
			C47.9,2.4,45.5,2.7,45.5,4.2z"/>
		<path id="path7" inkscape:connector-curvature="0" class="st0" d="M53.7,3.4c0,0-0.6,1.2,0,2l1.4,1.4L55.5,5l0.1-2.3
			C55.7,2.7,54.1,2.6,53.7,3.4L53.7,3.4z"/>
		<path id="path9" inkscape:connector-curvature="0" class="st1" d="M50.9,3.5c0-0.1,0-0.3,0.1-0.5c-0.3-0.6-0.9-1-1.6-1
			c-1.1,0-2,0.9-2,2s0.8,1.9,1.8,2C50,5.5,50.6,4.6,50.9,3.5z"/>
		<path id="path11" inkscape:connector-curvature="0" class="st2" d="M51,3c0,0.2-0.1,0.3-0.1,0.5c-0.4,1.2-0.9,2.1-1.7,2.7
			c0.1,0,0.1,0,0.1,0c1.1,0,2-0.9,2-2C51.3,3.7,51.2,3.4,51,3z"/>
		<path id="path13" inkscape:connector-curvature="0" class="st1" d="M57.8,3c-0.3-0.4-0.8-0.6-1.2-0.5c-0.8,0.1-1.2,1.2-1,2.3
			c0.1,0.8,0.6,1.4,1.1,1.7C57.5,5.4,57.9,4.3,57.8,3z"/>
		<path id="path15" inkscape:connector-curvature="0" class="st2" d="M58.4,4.2c-0.1-0.5-0.3-0.9-0.6-1.2c0.1,1.3-0.3,2.5-1,3.4
			c0.2,0.1,0.4,0.1,0.6,0.1C58.1,6.3,58.6,5.3,58.4,4.2z"/>
		
			<ellipse id="ellipse17" transform="matrix(0.5433 -0.8395 0.8395 0.5433 19.2274 42.1654)" class="st3" cx="48.4" cy="3.4" rx="0.6" ry="0.3"/>
		
			<ellipse id="ellipse19" transform="matrix(0.1306 -0.9914 0.9914 0.1306 45.5457 58.655)" class="st3" cx="56.2" cy="3.4" rx="0.5" ry="0.2"/>
	</g>
	<path id="path21" inkscape:connector-curvature="0" class="st4" d="M194.7,168.7c0,0,1.1-12.4-4.9-19.3c0,0,0.9-10.7,6-15.6
		c0,0,2.2-8.3-1.5-13.5l3.8-0.4c0,0,3.1,11.8,3.3,14.4c0,0,11,3.2,19.6,0.4c0,0-1.6-10.5-2.7-11.6l7.1,2.8c0,0,7.1,20.6,8.2,20.6
		c0,0-2,10.5-8.6,11.6l-6.6,10.1C218.7,168.3,195.8,168.3,194.7,168.7L194.7,168.7z"/>
	<polygon id="polygon23" class="st0" points="225,167.2 225,158.2 229,158.3 229.8,168.7 	"/>
	<polygon id="polygon25" class="st0" points="250.1,172.2 243,169.4 243,156.7 247.4,155.9 252,158.9 	"/>
	<path id="path27" inkscape:connector-curvature="0" class="st0" d="M184.7,63.4c0,0-5.5-10.5,2.2-16.5c0,0,7.5-5.6,8.8-5.6
		l12.4-3.9c0,0,6-2.3,7.1,0l3.8,6c0,0-8.6,1.7-11.5,5.4l-1.1-2.8l-3.7,3.9l-1.6-2.6l-8.2,15.4C193.1,62.7,186.3,69.2,184.7,63.4z"/>
	<path id="path29" inkscape:connector-curvature="0" class="st0" d="M163.5,115.9c0,0,21,5.6,21.8-8.3l-12.4-31.5
		c0,0,1.1-9.6,10.8-8.8c0,0-2.6-5.1-7.1-5.6c0,0-14.1-0.6-10.8,15c0,0,10.8,26.8,8.8,29.8C174.6,106.6,170.4,115.9,163.5,115.9
		L163.5,115.9z"/>
	<path id="path31" inkscape:connector-curvature="0" class="st5" d="M202.3,134.6c0,0-0.7-7.8-2.5-12c-0.4-0.9-0.1-2,0.7-2.7
		l1.9-1.4c0.4-0.3,0.7-0.7,0.8-1.2c0.5-1.8,1.8-6.9,2.3-14.2c0-0.7-0.2-1.3-0.7-1.8c-2.5-2.3-10.5-9.6-13.4-13.4
		c-0.5-0.7-1.3-1-2.1-0.9c-2.5,0.4-8,0.4-13.5-6.4c-0.3-0.3-0.4-0.7-0.5-1.1c-0.3-2.5-0.6-11.5,9.9-11.2c0.7,0,1.4-0.3,1.8-0.9
		c2.3-3.2,9.7-13.4,12.5-17.3c0.6-0.9,1.8-1.1,2.7-0.7l0.5,0.2c0.6,0.3,1.1,0.9,1.2,1.5l0.1,0.3c0.2,0.8,0.7,1.4,1.5,1.6l0,0
		c0.7,0.2,1.2,0.7,1.4,1.4c0.7,2.1,3.2,6.5,11.5,4.1c0.1,0,0.2-0.1,0.3-0.1c0.6-0.3,2.4-1.2,4.1-3.1c0.4-0.5,1.1-0.7,1.7-0.7
		l4.2,0.3c0.5,0,0.9,0.2,1.3,0.5l1.9,1.7c0.8,0.7,1,1.8,0.5,2.7c-1.7,3.1-4.8,10.4,0,16.2l2,2c0.5,0.5,0.7,1.2,0.6,1.8l-2,13.6
		c0,0.2-0.1,0.4-0.2,0.6c-0.8,1.6-4.5,9-8.6,12c-0.5,0.4-1.2,0.5-1.9,0.4l-7.1-1.9c-1.4-0.4-2.8,0.7-2.7,2.2
		c0.1,5.6,0.8,17.5,5.3,17.2h0.3c1.1,0,2,0.8,2.2,1.9l1.1,7.1c0.2,1.1-0.5,2.1-1.5,2.4C216.7,136.4,209.8,137.7,202.3,134.6
		L202.3,134.6z"/>
	<path id="path33" inkscape:connector-curvature="0" class="st6" d="M234.2,79.9c0,0-7.5,3.4-11,2.8c0,0-3.1-0.4-1.6-3.8
		c0,0,5.9-5.4,9.1-3.9C230.6,75,236.1,78.4,234.2,79.9z"/>
	<path id="path37" inkscape:connector-curvature="0" class="st7" d="M226.8,96.6l-5.9,0.9c0,0-5.5-3.2-5.5-5.1c0,0,13.2-2.8,15-0.9
		C230.4,91.5,232.8,96.6,226.8,96.6L226.8,96.6z"/>
	<path id="path39" inkscape:connector-curvature="0" class="st8" d="M187.2,68.7c0,0,2.6,23.8,22.3,31.1c0,0-17.4-11.8-15.2-37.3
		L187.2,68.7z"/>
	<path id="path41" inkscape:connector-curvature="0" class="st8" d="M228.9,77.9l-5.3,2.1c0,0-0.9-5.4,0.9-10.7
		C224.6,69.2,226.9,77.9,228.9,77.9L228.9,77.9z"/>
	<path id="path43" inkscape:connector-curvature="0" class="st3" d="M202.2,69.2c0,0,2.2,5.2,12.1,3.4c0,0,4.8-3,1.5-5.4
		C215.7,67,206.1,61.8,202.2,69.2z"/>
	<path id="path45" inkscape:connector-curvature="0" class="st6" d="M155.9,173.3l22.1-2.3c0,0,13-2.8,11.5-9l-3.1-17.6l5.9-4.9
		l4.2-6.8c0,0,2-10.1-2.6-13.9c0,0-5.5-2.8-8-2.1c0,0-8.2,4.3-13.9,19.9v2.1l8,12.4c0,0,0.9,3.4-4.4,4.5l-7.1-10.7
		C168.7,145,160.7,172,155.9,173.3L155.9,173.3z"/>
	<path id="path47" inkscape:connector-curvature="0" class="st0" d="M161.3,138.6l4.4,3.2l9.7,14.3c0,0,5.3-2.3,4.4-4.5l-8.8-12.2
		l-1.1-6.6C169.9,132.8,164,131.7,161.3,138.6L161.3,138.6z"/>
	<path id="path49" inkscape:connector-curvature="0" class="st0" d="M186.2,169.4c0,0,3.3-3.8,4.2-4.3l1.1,2.6L186.2,169.4z"/>
	<path id="path53" inkscape:connector-curvature="0" class="st3" d="M314.5,373.9c-1.3-22.3-4.6-43.2-11-55.9
		c0,0-9.3-34.3-16.8-36.8l-27.1,19.1c0,0-44.4-6.8-49.2-10.1c0,0-77,65.1-68.8,185.9c0,0,41,41.5,56.7,78.6
		C274.5,530.9,303.7,433.2,314.5,373.9z"/>
	<path id="path55" inkscape:connector-curvature="0" class="st9" d="M268.8,570.7c0,0,38-51.6,43-93.4c0,0,5.7-55.3,2.7-103.2
		c-4.9,94.6-38.2,167.2-87.8,179.9c-7.9,2-17.4,2.8-28.5,1c1,2.4,2.1,5.1,3,8.1c0.8,2.7,1.5,5.3,2.1,7.8
		C203.3,570.7,242.5,579.2,268.8,570.7z"/>
	<path id="path57" inkscape:connector-curvature="0" class="st10" d="M161.1,580.3c-2-0.1-5.1-0.4-8.5-1.9c-3.2-1.3-5.5-3-7-4.3
		l-1.3,9.8c0,0-27.4,21.2-28.5,23.8c0,0,43.2,15.8,55,23.8c-0.5-13.1-1.3-25.7-1.3-40C159.8,591.7,160.5,586.9,161.1,580.3z"/>
	<path id="path59" inkscape:connector-curvature="0" class="st1" d="M191.5,587.4c-2.2-3.5-4.3-7.1-6.5-10.6c-3.1,2.5-5.9,3.5-7.7,4
		c-3,0.8-5.6,0.6-9.9,0.3c-2.6-0.2-4.7-0.4-6.3-0.7c-0.5,6.6-1.3,11.3,8.4,11.3c0,14.3,0.7,26.8,1.3,40l49.2-29.3L191.5,587.4z"/>
	<path id="path61" inkscape:connector-curvature="0" class="st10" d="M259.5,590l19.9,19.9c0,0,64.6-5.4,68.4-6.4l-49-31.7
		c-10.4,4.3-21.6,7.1-33.6,8.8L259.5,590z"/>
	<path id="path63" inkscape:connector-curvature="0" class="st1" d="M287.3,566.6l-18.7,8.4l-3.5,5.6c11.9-1.7,23-4.5,33.6-8.8
		l-0.4-0.2L287.3,566.6L287.3,566.6z"/>
	<path id="path67" inkscape:connector-curvature="0" class="st3" d="M131.7,512.2c-1.1-12.2,0.5-24.2,0.2-36.6
		c-3.8-0.2-7.5,0.2-10.4,0.9c2.9,12,3.3,24.2,5.9,36C128.5,512.2,130,512.2,131.7,512.2z"/>
	<path id="path69" inkscape:connector-curvature="0" class="st0" d="M121.4,476.5c-4,0.9-6.6,2.1-6.6,2.1
		c-3.3,14.4,8.8,35.6,8.8,35.6c1.1-0.9,2.4-1.5,3.7-1.7C124.7,500.7,124.3,488.4,121.4,476.5L121.4,476.5z"/>
	<path id="path71" inkscape:connector-curvature="0" class="st0" d="M143.5,479c-3.8-2.3-7.9-3.2-11.7-3.4
		c0.4,12.4-1.3,24.4-0.2,36.6c5.5,0.4,11.7,3.8,17,7.3c4-6.9,8.6-13.7,13.7-20.1C151.8,487,143.5,479,143.5,479L143.5,479z"/>
	<path id="path73" inkscape:connector-curvature="0" class="st4" d="M183,559.3c2.7,5.4,4.4,9.4,4.4,9.4l15.7,2.6
		c-1.3-5.1-3.1-9.9-5.1-15C193.1,557.6,188.2,558.3,183,559.3z"/>
	<path id="path75" inkscape:connector-curvature="0" class="st4" d="M162.2,499.6c-5.1,6.2-9.7,12.9-13.7,20.1
		c7.9,5.4,13.9,11.6,13.9,11.6c8.6,5.8,16.1,18.9,20.5,28c4.9-0.8,10.1-1.7,15-2.8C189.1,534.5,174.3,514.1,162.2,499.6z"/>
	<path id="path77" inkscape:connector-curvature="0" class="st4" d="M268.6,571.3l11.2-3.4c0,0,35.7-52.7,30.7-77.9l-2,0.4
		C308.3,490.4,289.7,553.5,268.6,571.3L268.6,571.3z"/>
	<path id="path81" inkscape:connector-curvature="0" class="st0" d="M177.8,554.2c0.4-3-7.9-14.4-7.9-14.4l-4.2-0.4l0.4,14.8
		l2.2,2.1l-0.9,1.3c-4.6,0.4-9.7,10.1-9.7,10.1l-2.4-14.6c1.5-0.4,2.7-0.9,3.5-1.9l-3.7-23.5c0,0-5.9-11.8-24.5-14.1v3.4l3.3,5.1
		l1.1,5.1l4,1.9c0,0,1.5,20.6,4.4,22.7c0,0,2.4,0.8,5.5,1.1l2.4,16.3l-3.7,0.9l-0.4,5.1c4.5,1.9,11,4.1,19.2,4.3
		c3.3,0.1,6.3-0.1,8.9-0.5c0.3-3,0.7-6,1-9.1L177.8,554.2z"/>
	<polygon id="polygon83" class="st3" points="138.1,515.2 139,528.1 142.3,528.1 149.2,553.5 153.8,553.8 148.8,527.1 145.6,527.1 
		144.3,516.9 	"/>
	<polygon id="polygon85" class="st3" points="155.2,572.6 154.5,578 151,577.3 151,571.3 	"/>
	<polygon id="polygon87" class="st3" points="169.3,556.8 167.9,539.6 172.1,541.3 171.2,556.4 	"/>
	<g id="g89" transform="matrix(2.8928123,0,0,2.8928123,73.62739,39.263881)">
		<path id="path91" inkscape:connector-curvature="0" class="st4" d="M14.9,63.3l0.8,7.4l-1.3,2.2l-0.9,27.9l0.5,2.1
			C19.2,90.3,21.2,75.9,14.9,63.3L14.9,63.3z"/>
		<path id="path93" inkscape:connector-curvature="0" class="st0" d="M16.5,58.5l-1.9,4.7v0.1c0.3,0.5,0.4,0.9,0.6,1.4
			c0.3-1.8,1.1-3.4,1.9-5.1C16.8,58.9,16.5,58.5,16.5,58.5L16.5,58.5z"/>
		<path id="path97" inkscape:connector-curvature="0" class="st0" d="M21,67.6c-1.2,1-2.3,2.2-3.4,3.1c1.5,5.6,1.5,11.3,0.7,17.1
			c1.4,0.5,2.7,1.2,4,1.9C24.1,80.8,22.8,73.1,21,67.6L21,67.6z"/>
		<path id="path99" inkscape:connector-curvature="0" class="st4" d="M18.3,87.8c-0.6,4.4-1.8,8.8-3.4,13c-0.3,0.7-0.6,1.5-0.9,2.2
			l1.1,4.3c0.7-1.1,1.4-2.3,2-3.4c2.7-4.9,4.4-9.7,5.2-14.1C21,89,19.7,88.2,18.3,87.8z"/>
	</g>
	<path id="path101" inkscape:connector-curvature="0" class="st11" d="M66.6,387.5c2.2-20.5,11.5-86.4,42.5-146.8
		c0.3-0.6,1.2-0.6,1.5,0c1.7,3.4,5.7,11.9,5.5,16.2c0,0.1,0,0.2-0.1,0.3L68.2,387.9C67.9,388.8,66.5,388.5,66.6,387.5z"/>
	<path id="path103" inkscape:connector-curvature="0" class="st11" d="M131.8,223.8l-9.5-16.5l12.7-26.5c0.9-1.9,2.6-3.2,4.6-3.6
		c6-1.2,19.9-3.7,36.8-4l-28.9,37.1C147.6,210.3,130.6,215.8,131.8,223.8z"/>
	<g id="g107" transform="matrix(2.8928123,0,0,2.8928123,73.62739,39.263881)">
		<path class="st0" d="M66.3,63c0-3.7,2.6-7.2,5.5-7.2c0.3,0,1.7,0.4,2.4,1.3c0.1,0.2,0.3,0.5,0.8,1.2c0.3,0.4,0.4,0.7,0.5,0.8
			c1.3,2.1,1.4,4.3,1.4,4.3c0,0.8,0.1,3-1.4,4.7c-0.3,0.3-1.8,1.9-3.7,1.8C68.7,69.7,66.3,66.2,66.3,63z"/>
		<path id="path109" inkscape:connector-curvature="0" class="st3" d="M40.6,55.4c-0.3-0.7-0.5-1.4-0.8-2.1c-4,0.8-7.2,3.6-8.5,7.3
			C36.1,62,42.7,62.2,40.6,55.4L40.6,55.4z"/>
		<path id="path111" inkscape:connector-curvature="0" class="st0" d="M42.4,53.1c-0.9,0-1.8,0.1-2.6,0.3c0.3,0.6,0.6,1.4,0.8,2.1
			c2,6.8-4.6,6.6-9.3,5.3c-0.4,1.1-0.6,2.3-0.6,3.5c0,3.1,1.4,6,3.6,8C40.8,68.4,46.1,62,48,54.5C46.4,53.6,44.5,53.1,42.4,53.1
			L42.4,53.1z"/>
		<path id="path113" inkscape:connector-curvature="0" class="st12" d="M48,54.5c-1.9,7.5-7.1,14-13.7,17.7c2.1,1.9,4.9,3.1,8,3.1
			C44,70,49,66.6,54.1,64.2l0,0C54.1,60,51.6,56.3,48,54.5L48,54.5z"/>
		<path id="path115" inkscape:connector-curvature="0" class="st0" d="M42.3,75.4L42.3,75.4c6.5,0,11.7-4.9,11.8-11.1
			C49,66.8,44,70.1,42.3,75.4z"/>
		<path id="path117" inkscape:connector-curvature="0" class="st3" d="M72.7,59c-2.7-0.5-5.4-1.6-8.1-2.4c-0.6,1.9-0.9,3.7-1,5.3
			C66.9,61.5,70.5,62.1,72.7,59z"/>
		<path id="path119" inkscape:connector-curvature="0" class="st0" d="M73.4,59.8l-1.8-4.5c-1.6-1.9-6.1-1-6.1-1
			c-0.3,0.8-0.6,1.6-0.8,2.3c2.7,0.8,5.4,1.9,8.1,2.4c-2.2,3.2-5.8,2.5-9.1,2.9c-0.3,4.2,0.9,7.1,2.5,9.1c3.1-0.9,6-2.2,8.5-4.2
			L73.4,59.8z"/>
		<path id="path121" inkscape:connector-curvature="0" class="st12" d="M74.6,66.7c-2.6,2-5.4,3.3-8.5,4.2c1.3,1.6,2.9,2.7,4.2,3.3
			c1.8-2.3,3.2-4.7,4.4-7.3L74.6,66.7z"/>
		<path id="path123" inkscape:connector-curvature="0" class="st0" d="M70.2,74.4c1.5,0.1,2.7,0,2.7,0l4-5.8l-1.4-5.3
			C73.9,67.3,72.3,70.9,70.2,74.4L70.2,74.4z"/>
	</g>
	<path id="path125" inkscape:connector-curvature="0" class="st10" d="M285.5,282.8l1.1-0.8h4.9c0,0-16.1-39.2-39.9-39.6
		c0,0-44.6,28-51.4,46.7C228.6,287.5,256.9,279.2,285.5,282.8z"/>
	<path id="path127" inkscape:connector-curvature="0" class="st1" d="M200.2,288.9L200.2,288.9c0,0,9.1,3.4,16.5,4.3
		c0,0,38.6,9,41.5,7.3l27.1-18C256.9,279,228.6,287.2,200.2,288.9z"/>
	<path id="path129" inkscape:connector-curvature="0" class="st8" d="M245,242.2c0,0,14.1,18.8,17.7,34.5c0,0-24.5-19.9-32.7-22.9
		L245,242.2z"/>
	<ellipse id="ellipse131" class="st3" cx="192" cy="215.6" rx="4.6" ry="6.8"/>
	<ellipse id="ellipse133" class="st3" cx="281.7" cy="212.9" rx="2.9" ry="5.1"/>
	<path id="path135" inkscape:connector-curvature="0" class="st1" d="M286.8,235.2l3.6,1.9c0,0,5.7,0.3,4.5-11.9
		c0,0-3.6-20.2-12.1-19.4C282.7,206,292.2,235.4,286.8,235.2z"/>
	<path id="path137" inkscape:connector-curvature="0" class="st1" d="M191.5,236.8c0,0,6.6,7.3,13.7,3.8c0,0,15.4-6.4,11.2-21.8
		c0,0-2.6-7.3-8.2-8.4C208.1,210.3,210.7,233.8,191.5,236.8L191.5,236.8z"/>
	<path id="path139" inkscape:connector-curvature="0" class="st13" d="M210.1,290.8c-1.6-0.2-3.1-0.2-4.2,0l2.4,0.2L210.1,290.8z"/>
	<path id="path141" inkscape:connector-curvature="0" class="st13" d="M158.5,479.7c0.4,0.6,0.5,1.1,0.5,1.7c0,1.7-1.3,3-2.9,3
		c-1.1,0-2-0.8-2.6-1.7c0.2,1.3,1.6,2.4,3.3,2.4c1.8,0,3.3-1.3,3.3-3C160.2,481.2,159.5,480.3,158.5,479.7L158.5,479.7z"/>
	<path id="path143" inkscape:connector-curvature="0" class="st13" d="M179.6,503c0.4,0.6,0.5,1.1,0.5,1.7c0,1.7-1.3,3-2.9,3
		c-1.1,0-2-0.8-2.6-1.7c0.2,1.3,1.6,2.4,3.3,2.4c1.8,0,3.3-1.3,3.3-3C181.2,504.5,180.5,503.6,179.6,503L179.6,503z"/>
	<path id="path145" inkscape:connector-curvature="0" class="st13" d="M196,529.1c0.4,0.6,0.5,1.1,0.5,1.7c0,1.7-1.3,3-2.9,3
		c-1.1,0-2-0.8-2.6-1.7c0.2,1.3,1.6,2.4,3.3,2.4c1.8,0,3.3-1.3,3.3-3C197.7,530.6,197.1,529.6,196,529.1L196,529.1z"/>
	<path id="path147" inkscape:connector-curvature="0" class="st13" d="M207.7,556.1c0.4,0.4,0.5,0.9,0.5,1.5c0,1.5-1.3,2.8-2.9,2.8
		c-1.1,0-2-0.6-2.6-1.5c0.2,1.3,1.6,2.3,3.3,2.3c1.8,0,3.3-1.3,3.3-2.8C209.4,557.6,208.6,556.6,207.7,556.1L207.7,556.1z"/>
	<path id="path149" inkscape:connector-curvature="0" class="st13" d="M259.1,330.8c0.4,0.6,0.5,1.1,0.5,1.7c0,1.7-1.3,3-2.9,3
		c-1.1,0-2-0.8-2.6-1.7c0.2,1.3,1.6,2.4,3.3,2.4c1.8,0,3.3-1.3,3.3-3C260.8,332.3,260,331.3,259.1,330.8L259.1,330.8z"/>
	<path id="path151" inkscape:connector-curvature="0" class="st13" d="M260.8,382.4c0.4,0.6,0.5,1.1,0.5,1.7c0,1.7-1.3,3-2.9,3
		c-1.1,0-2-0.8-2.6-1.7c0.2,1.3,1.6,2.4,3.3,2.4c1.8,0,3.3-1.3,3.3-3C262.4,383.9,261.7,382.7,260.8,382.4L260.8,382.4z"/>
	<path id="path153" inkscape:connector-curvature="0" class="st13" d="M260.2,433.4c0.4,0.6,0.5,1.1,0.5,1.7c0,1.7-1.3,3-2.9,3
		c-1.1,0-2-0.8-2.6-1.7c0.2,1.3,1.6,2.4,3.3,2.4c1.8,0,3.3-1.3,3.3-3C261.9,434.7,261.1,433.8,260.2,433.4L260.2,433.4z"/>
	<path id="path155" inkscape:connector-curvature="0" class="st13" d="M258,483.7c0.4,0.6,0.5,1.1,0.5,1.7c0,1.7-1.3,3-2.9,3
		c-1.1,0-2-0.8-2.6-1.7c0.2,1.3,1.6,2.4,3.3,2.4c1.8,0,3.3-1.3,3.3-3C259.7,485.2,258.9,484.2,258,483.7L258,483.7z"/>
	<path id="path157" inkscape:connector-curvature="0" class="st13" d="M253.6,536.9c0.4,0.6,0.5,1.1,0.5,1.7c0,1.7-1.3,3-2.9,3
		c-1.1,0-2-0.8-2.6-1.7c0.2,1.3,1.6,2.4,3.3,2.4c1.8,0,3.3-1.3,3.3-3C255.1,538.5,254.5,537.5,253.6,536.9L253.6,536.9z"/>
	<path id="path159" inkscape:connector-curvature="0" class="st13" d="M274.5,552.3c0.2,0.6,0.4,1.1,0.4,1.7c0,1.7-0.7,3-1.8,3
		c-0.7,0-1.3-0.8-1.6-1.7c0.2,1.3,1.1,2.4,2,2.4c1.1,0,2-1.3,2-3C275.6,553.8,275,552.9,274.5,552.3L274.5,552.3z"/>
	<path id="path161" inkscape:connector-curvature="0" class="st13" d="M286.6,530.2c0.2,0.6,0.4,1.1,0.4,1.7c0,1.7-0.7,3-1.8,3
		c-0.7,0-1.3-0.8-1.6-1.7c0.2,1.3,1.1,2.4,2,2.4c1.1,0,2-1.3,2-3C287.6,531.7,287.3,530.8,286.6,530.2L286.6,530.2z"/>
	<path id="path163" inkscape:connector-curvature="0" class="st13" d="M298.4,507.1c0.2,0.6,0.2,1.1,0.2,1.7c0,1.7-0.5,3-1.3,3
		c-0.5,0-0.9-0.8-1.3-1.7c0.2,1.3,0.7,2.4,1.5,2.4c0.9,0,1.6-1.3,1.6-3C299.4,508.6,299,507.6,298.4,507.1L298.4,507.1z"/>
	<path id="path165" inkscape:connector-curvature="0" class="st13" d="M306.3,483.7c0.2,0.6,0.2,1.1,0.2,1.7c0,1.7-0.5,3-1.3,3
		c-0.5,0-0.9-0.8-1.3-1.7c0.2,1.3,0.7,2.4,1.5,2.4c0.9,0,1.5-1.3,1.5-3C307,485.2,306.7,484.2,306.3,483.7L306.3,483.7z"/>
	<path id="path171" inkscape:connector-curvature="0" class="st13" d="M189,65.1L189,65.1c0,0.2,0,0.2,0,0.4
		C189.2,65.3,189,65.3,189,65.1z"/>
	<path id="path175" inkscape:connector-curvature="0" class="st14" d="M199.7,206.6c-10.1,0-18.3,8.1-18.3,18c0,9.9,8.2,18,18.3,18
		c10.1,0,18.3-8.1,18.3-18C218,214.6,209.7,206.6,199.7,206.6z M192.6,215.8c-1.6,2.1-3.7,3.2-4.6,2.6c-0.7-0.8-0.2-3,1.6-5.1
		c1.6-2.1,3.7-3.2,4.6-2.6C195.1,211.4,194.4,213.7,192.6,215.8z M199,241.1c-0.5,0-1.1,0-1.6,0c5.5-0.4,11-3.8,14.1-9.6
		c3.5-6.6,2.7-14.1-1.3-19.1c3.5,3,5.7,7.5,5.7,12.4C215.8,233.7,208.3,241.1,199,241.1L199,241.1z"/>
	<path id="path177" inkscape:connector-curvature="0" class="st14" d="M220.4,62.7c-1.1,0.2-14.3-3.9-14.3-3.9
		c-3.3,0-7.7,4.7-7.7,4.7l6.4-3c2.7,0,9.8,3.4,13,5c1.3,0.7,3,0,3.4-1.5c0.4-1.3,0.2-2.6,0.2-2.6L220.4,62.7z"/>
	<path id="path179" inkscape:connector-curvature="0" class="st14" d="M215.8,66.4c0,0-6.4-4.9-3-1.2c0,0-12.5-2.9-12.7,3.5
		c0,0,1.9,1.9,3.2,1.9c0,0-1.4-4.4,2.6-4.5c0,0,6.2-1.6,10.3,2.7l2.1,1.2L215.8,66.4z"/>
	<path id="path181" inkscape:connector-curvature="0" class="st14" d="M209.4,65.9c-1.6,0.2-2.9,1.4-2.7,2.6c0,1.4,1.5,3.2,3.1,3.2
		c1.6-0.2,2.9-2.4,2.7-3.5C212.3,66.7,211,65.9,209.4,65.9z M208.3,68.7c-0.4,0-0.9-0.4-0.9-0.8c0-0.4,0.4-0.8,0.7-1
		c0.4,0,0.9,0.4,0.9,0.8C209,68.3,208.6,68.7,208.3,68.7z"/>
	<path id="path187" inkscape:connector-curvature="0" class="st14" d="M209.9,291c-1.6-0.2-3.1-0.2-4.2,0l2.4,0.2L209.9,291z"/>
	<path id="path189" inkscape:connector-curvature="0" class="st14" d="M253.5,246.7c6.2,7.3,12.8,25.5,12.8,25.5
		C264.6,256.5,253.5,246.7,253.5,246.7L253.5,246.7z"/>
	<path id="path191" inkscape:connector-curvature="0" class="st14" d="M158.4,480.1c0.4,0.6,0.5,1.1,0.5,1.7c0,1.7-1.3,3-2.9,3
		c-1.1,0-2-0.8-2.6-1.7c0.2,1.3,1.6,2.4,3.3,2.4c1.8,0,3.3-1.3,3.3-3C160,481.6,159.5,480.7,158.4,480.1L158.4,480.1z"/>
	<path id="path193" inkscape:connector-curvature="0" class="st14" d="M179.4,503.4c0.4,0.6,0.5,1.1,0.5,1.7c0,1.7-1.3,3-2.9,3
		c-1.1,0-2-0.8-2.6-1.7c0.2,1.3,1.6,2.4,3.3,2.4c1.8,0,3.3-1.3,3.3-3C181,504.7,180.3,503.7,179.4,503.4z"/>
	<path id="path195" inkscape:connector-curvature="0" class="st14" d="M196,529.4c0.4,0.6,0.5,1.1,0.5,1.7c0,1.7-1.3,3-2.9,3
		c-1.1,0-2-0.8-2.6-1.7c0.2,1.3,1.6,2.4,3.3,2.4c1.8,0,3.3-1.3,3.3-3C197.7,530.8,196.9,529.8,196,529.4L196,529.4z"/>
	<path id="path197" inkscape:connector-curvature="0" class="st14" d="M207.5,556.5c0.4,0.4,0.5,0.9,0.5,1.5c0,1.5-1.3,2.8-2.9,2.8
		c-1.1,0-2-0.6-2.6-1.5c0.2,1.3,1.6,2.3,3.3,2.3c1.8,0,3.3-1.3,3.3-2.8C209.2,557.8,208.5,557,207.5,556.5L207.5,556.5z"/>
	<path id="path199" inkscape:connector-curvature="0" class="st14" d="M258.9,330.9c0.4,0.6,0.5,1.1,0.5,1.7c0,1.7-1.3,3-2.9,3
		c-1.1,0-2-0.8-2.6-1.7c0.2,1.3,1.6,2.4,3.3,2.4c1.8,0,3.3-1.3,3.3-3C260.6,332.4,259.9,331.5,258.9,330.9L258.9,330.9z"/>
	<path id="path201" inkscape:connector-curvature="0" class="st14" d="M260.6,382.5c0.4,0.6,0.5,1.1,0.5,1.7c0,1.7-1.3,3-2.9,3
		c-1.1,0-2-0.8-2.6-1.7c0.2,1.3,1.6,2.4,3.3,2.4c1.8,0,3.3-1.3,3.3-3C262.2,384,261.5,383.1,260.6,382.5z"/>
	<path id="path203" inkscape:connector-curvature="0" class="st14" d="M260,433.6c0.4,0.6,0.5,1.1,0.5,1.7c0,1.7-1.3,3-2.9,3
		c-1.1,0-2-0.8-2.6-1.7c0.2,1.3,1.6,2.4,3.3,2.4c1.8,0,3.3-1.3,3.3-3C261.7,435.1,260.9,434.1,260,433.6L260,433.6z"/>
	<path id="path205" inkscape:connector-curvature="0" class="st14" d="M257.8,484c0.4,0.6,0.5,1.1,0.5,1.7c0,1.7-1.3,3-2.9,3
		c-1.1,0-2-0.8-2.6-1.7c0.2,1.3,1.6,2.4,3.3,2.4c1.8,0,3.3-1.3,3.3-3C259.5,485.5,258.8,484.6,257.8,484z"/>
	<path id="path207" inkscape:connector-curvature="0" class="st14" d="M253.5,537.3c0.4,0.6,0.5,1.1,0.5,1.7c0,1.7-1.3,3-2.9,3
		c-1.1,0-2-0.8-2.6-1.7c0.2,1.3,1.6,2.4,3.3,2.4c1.8,0,3.3-1.3,3.3-3C255.1,538.8,254.4,537.9,253.5,537.3L253.5,537.3z"/>
	<path id="path209" inkscape:connector-curvature="0" class="st14" d="M274.3,552.5c0.2,0.6,0.4,1.1,0.4,1.7c0,1.7-0.7,3-1.8,3
		c-0.7,0-1.3-0.8-1.6-1.7c0.2,1.3,1.1,2.4,2,2.4c1.1,0,2-1.3,2-3C275.4,554,275,553.1,274.3,552.5L274.3,552.5z"/>
	<path id="path211" inkscape:connector-curvature="0" class="st14" d="M286.6,530.6c0.2,0.6,0.4,1.1,0.4,1.7c0,1.7-0.7,3-1.8,3
		c-0.7,0-1.3-0.8-1.6-1.7c0.2,1.3,1.1,2.4,2,2.4c1.1,0,2-1.3,2-3C287.5,531.9,287.1,530.9,286.6,530.6L286.6,530.6z"/>
	<path id="path213" inkscape:connector-curvature="0" class="st14" d="M298.4,507.3c0.2,0.6,0.2,1.1,0.2,1.7c0,1.7-0.5,3-1.3,3
		c-0.5,0-0.9-0.8-1.3-1.7c0.2,1.3,0.7,2.4,1.5,2.4c0.9,0,1.6-1.3,1.6-3C299.2,508.8,298.8,507.9,298.4,507.3L298.4,507.3z"/>
	<path id="path215" inkscape:connector-curvature="0" class="st14" d="M306.1,484.1c0.2,0.6,0.2,1.1,0.2,1.7c0,1.7-0.5,3-1.3,3
		c-0.5,0-0.9-0.8-1.3-1.7c0.2,1.3,0.7,2.4,1.5,2.4c0.9,0,1.5-1.3,1.5-3C306.9,485.6,306.7,484.6,306.1,484.1L306.1,484.1z"/>
	<path id="path219_2_" inkscape:connector-curvature="0" class="st14" d="M191,585.1"/>
	<path id="path223" inkscape:connector-curvature="0" class="st14" d="M189,65.3C188.8,65.5,188.8,65.5,189,65.3c0,0.2,0,0.2,0,0.4
		C189,65.7,189,65.5,189,65.3z"/>
	<path id="path225" inkscape:connector-curvature="0" class="st14" d="M193,61c0,0,0-0.2,0-0.4c0,0,0,0-0.2,0.2L193,61L193,61z"/>
	<ellipse id="ellipse227" class="st14" cx="187.2" cy="84.8" rx="1.1" ry="0.9"/>
	<path id="path229" inkscape:connector-curvature="0" class="st15" d="M425.3,573.8c-3.8-14.3-112.8-12.8-133.3-12.4l0.7-8.1
		c2-0.4,5.3-1.7,5.3-1.7l2.7-20.5c6.9-15.8,9.5-26.8,9.5-26.8c3.3-11.4,2.9-26.1,2.4-34.3c6-45.6,7.1-86.7,6.4-118.4
		c5.3,44.7-0.9,89.3-0.9,89.3c30.4,62.3,30.9,49.9,30.9,49.9c4.9-80.5-26-218.2-26-218.2c-5.9-12.4-10.6-12.2-13.7-8.6
		c-3.7-12-8.8-25.9-13.7-38.6c-0.4-4.7-1.5-8.1-1.5-8.1c-1.1-6.8-5.5-12.4-7.9-15.2c-5.1-12.2-9-20.6-9-20.6c-2-3-6.4-5.4-11.9-7.5
		l0.9-2.8c1.5,0.6,2.6,0.8,2.6,0.8c2,1.1,4-2.1,4-2.1c2-0.4,1.5-3.6,1.5-3.6c-0.2-0.6,1.1-0.6,1.1-0.6c2.7-1.7,1.3-4.7,1.3-4.7
		c-0.2-0.9,0.9-1.5,0.9-1.5c2-1.1,1.3-3.4,1.3-3.4c0-0.9-4-4.7-5.1-5.6l1.3-3.9l0.5-1.1l4.2-2.6c-4.8-6.6-10.4-4.5-10.4-4.5l0.4,5.1
		l-1.8,4.9l-1.6-0.6c-5.3-4.1-6.6,4.3-6.6,4.3c0,1.3-2.2,3-2.2,3c0.4,1.7,2.9,0.4,2.9,0.4c0,1.1,1.5,1.7,1.5,1.7
		c-2.2,0.6-1.3,4.5-1.3,4.5c-1.5,0.4-2.6,0.9-3.5,1.3c-1.1-1.7-9.9-14.4-12.1-20.3c0,0-7.5-22.1-13.5-22.3c0,0-4.9-1.1-6.9,0.6
		c0,0-9.1-0.9-9.1-4.9c0,0-0.4-3.4-0.5-7.1l0,0v-2.6l-0.5-0.4c5.3,1.5,9,1.3,9,1.3l2.4-1.9c2.4-1.3,12.6-8.1,17.6-29.5
		c0,0,0.5-5.3-1.3-11.1c0,0,0.4-4.5,0.9-7.9c0.7,1.3,2,3.4,2.7,4.5c0,0-0.4-6.4-2-12.8c2,2.8,3.8,5.8,3.8,5.8
		c-1.1-4.7-3.5-8.6-5.7-11.1c-1.5-3-3.3-5.6-5.9-6.8c0,0-15.2-3.6-21-0.9c0,0-15.7-1.3-29.6,12.4c0,0-4.4,8.8-3.7,12.2
		c0,0-8.6-3-12.6,0.9c0,0-6.4,11.4-4.6,15c0,0,4,15.4,5.5,18.4c0,0,4,14.4-0.5,17.6c0,0-10.8,4.9-7.7-5.3c0,0,2.6-3.2,4.4-0.9
		c0,0,0-3.4-4.4-3.9c0,0-12.6,8.3-3.1,12.4c0,0,5.1,5.6,21.6,4.5c-2,3.2-5.1,8.3-8.2,15.4l-0.7-3.2c-8-0.4-10.2,7.7-10.2,7.7
		l5.5,3.2l1.3,1.9c-2,10.3-10.8,24.6-13.2,28.3c-7.7,1.3-14.1,3.2-17,5.6l-2.7,5.8c-2,0-2.6,2.1-2.6,2.1l0.5,1.9l-5.9,12.2
		c-2.9-0.4-3.7,2.3-3.7,2.3l1.1,2.6l0.4-0.4c0,0.2,0,0.4-0.2,0.6l-0.5,1.1l-2.2-0.2c0,0-7.1,15.4-6.6,18.8l0,0
		c-0.5,6.8,0.5,18.9,0.9,22l-0.4,0.4c-1.3-3.8-2.7-7.1-4.6-9.8c0,0,0.5-5.6-3.8,3.4c0,0-46.5,98.1-53.6,189.3c0,0-7.1,37.9-0.5,34
		c0,0,41.7-30.8,60.9-107.9c-2.9,26.5-22.1,67.5-22.1,67.5c7.9,29.8,17.9,54.6,22.5,65.1c1.6,12.4,6.8,25.7,6.8,25.7l12.1,9l0.9,6.9
		l3.1,0.2l6.4,22.9c0,0,2,0.9,5.1,1.3l2.6,12.9c-1.5,0.6-4.2,1.5-4.2,1.5l-0.4,2.8l-3.3,0.9l-0.7,9.9l-27.2,23.3c-3.3,2.1-2,3-2,3
		c17.4,3,57.2,24.2,57.2,24.2c14.1-9.8,52.7-30.2,52.7-30.2l-5.9-3l46.5-0.8l15,11.8c7.7-1.9,56-5.3,68-6.2c5.9,1.1,0.7-2.8,0.7-2.8
		c-0.9-0.6-1.6-1.1-2.6-1.7l-2.7-5.4C425.7,588.2,425.3,573.8,425.3,573.8L425.3,573.8z M67.8,389.7c0,0,1.6-65.7,42.6-146.7
		l1.6,7.9C112.1,250.8,81.5,298.9,67.8,389.7z M113.7,477.1c-0.9,0-1.6-1.1-1.6-2.4c0.2,0.9,0.7,1.7,1.3,1.7c0.9,0,1.5-1.3,1.5-3
		c0-0.6-0.2-1.1-0.4-1.7c0.5,0.6,0.9,1.5,0.9,2.6C115.4,475.8,114.6,477.1,113.7,477.1L113.7,477.1z M276.1,568.5
		c-1.6,0.4-3.3,0.8-5.1,1.1c22.9-27.2,39.1-77.5,39.1-77.5C304.5,528.5,283.8,558.5,276.1,568.5L276.1,568.5z M286,569.6v4.7
		c-4.6,3.4-17.4,3.8-17.4,3.8C271,578.2,286,569.6,286,569.6L286,569.6z M292.7,220.1c2.1,9.3,1.4,17.5-1.6,18.3
		c-0.9,0.2-1.8-0.2-2.9-1.3h0.2c3-0.7,3.7-8.8,1.6-18.3c-1.4-6.6-3.9-12.1-6.4-14.4C286.6,204,290.5,210.9,292.7,220.1L292.7,220.1z
		 M271.7,200.1l11,2h-0.2c-0.7,0-1.3,0-2,0.2c-4.6,1.3-5.7,11.1-2.7,21.6c2.6,9.2,7.5,16.1,11.7,16.9l-4.4,7.1
		c-0.5-0.2-0.9-0.4-1.5-0.6c-4.6-2.6-9.7-11.1-12.6-21.2c-1.6-5.4-2.4-10.9-2.4-15.4c0-4.3,0.7-8.1,2.2-10.1
		C271.2,200.6,271.6,200.2,271.7,200.1L271.7,200.1z M282.3,211.6c0,2.1-0.7,3.8-1.6,3.8c-0.9,0-1.6-1.7-1.6-3.8
		c0-2.1,0.7-3.8,1.6-3.8C281.6,207.7,282.3,209.4,282.3,211.6z M268.3,198.9l2,0.4l-0.4,0.6c-3.3,4.5-3.3,15.4,0,26.8
		c3.1,10.7,9.1,19.5,14.6,22.7c0.2,0.2-0.4,0.6-0.9,1.1c-9.9-3.4-15.4-18.6-15.4-18.6C261.3,211.8,265.9,202.2,268.3,198.9
		L268.3,198.9z M288.6,281l-19.9-4.7l-62.5,12c9.1-17.4,41-40.7,46.5-44.5C259.1,248.2,281.8,264.7,288.6,281L288.6,281z
		 M137.9,218.4c0.9,0.6,1.5,1.5,1.5,2.6c0,1.7-1.3,3-2.9,3c-1.5,0-2.6-1.1-2.9-2.4c0.4,0.9,1.3,1.7,2.2,1.7c1.5,0,2.6-1.3,2.6-3
		C138.4,219.5,138.2,218.9,137.9,218.4L137.9,218.4z M140.2,311.2c1.6,0,2.9-1.3,2.9-3c0-0.6-0.2-1.1-0.5-1.7
		c0.9,0.6,1.6,1.5,1.6,2.6c0,1.7-1.5,3-3.3,3c-1.6,0-2.9-1.1-3.3-2.4C138.2,310.5,139.2,311.2,140.2,311.2L140.2,311.2z
		 M144.6,246.5c0.9,0.6,1.6,1.5,1.6,2.6c0,1.7-1.5,3-3.3,3c-1.6,0-2.9-1.1-3.3-2.4c0.5,0.9,1.5,1.7,2.6,1.7c1.6,0,2.9-1.3,2.9-3
		C145.2,247.5,145,246.9,144.6,246.5L144.6,246.5z M142.1,281.4c0.5,0.9,1.5,1.7,2.6,1.7c1.6,0,2.9-1.3,2.9-3c0-0.6-0.2-1.1-0.5-1.7
		c0.9,0.6,1.6,1.5,1.6,2.6c0,1.7-1.5,3-3.3,3C143.7,284,142.4,282.9,142.1,281.4L142.1,281.4z M140,275c0-0.4,0-0.8,0-1.1
		c4.1,0.6,33.9,4.9,40.1,7.6l3.1-28.5 M184.4,252.7l-2.4,31.7c-7.7-4-36.1-8.7-42-9.4v0 M183.3,252.9c-11.6-4.5-20.1-17-20.1-29.8
		c0-15.3,10.9-28,25.4-31.2l2.4-20.8v-0.8c0.6,0,0.9,0,1.5-0.2l-2.2,21c1.3-0.2,4.1-0.2,5.3-0.2c18,0,32.6,14.4,32.6,31.9
		s-14.5,31.9-32.6,31.9c-3.9,0-7.7-0.8-11.2-2.1 M160.5,269.2c0.7,0.4,1.3,1.1,1.3,2.1c0,1.3-1.3,2.4-2.7,2.4
		c-1.3,0-2.6-0.9-2.7-2.1c0.4,0.8,1.3,1.3,2.2,1.3c1.3,0,2.4-1.1,2.4-2.4C161.1,270.2,160.9,269.6,160.5,269.2L160.5,269.2z
		 M178.7,254.2c0.7,0.4,1.3,1.1,1.3,2.1c0,1.3-1.3,2.4-2.7,2.4c-1.3,0-2.6-0.9-2.7-2.1c0.4,0.8,1.3,1.3,2.2,1.3
		c1.3,0,2.4-1.1,2.4-2.4C179,255.2,178.8,254.6,178.7,254.2L178.7,254.2z M175.5,276.2c1.3,0,2.4-1.1,2.4-2.4c0-0.6-0.2-0.9-0.4-1.5
		c0.7,0.4,1.3,1.1,1.3,2.1c0,1.3-1.3,2.4-2.7,2.4c-1.3,0-2.6-0.9-2.7-2.1C173.7,275.6,174.6,276.2,175.5,276.2z M173.5,159.1
		c-1.8-1.9-0.7-4.1-0.4-4.7l0.9,1.5l0,0c0.2,0.2,0.2,0.6,0.4,0.6l0.2,0.2l0,0c2.2,1.5,7.1-6.2,7.1-6.2c4.8-3.8,3.1,3.8,3.1,3.8
		c3.1-0.6,1.1,3.8,1.1,3.8c2.7,0.6,0.9,4.3,0.9,4.3l0.9,2.1c-0.9,2.8-6.6,3.4-6.6,3.4l-3.8,1.5c-4.2,0.6-7.9,1.1-11.3,1.7l0.5-0.2
		l9.3-9L173.5,159.1L173.5,159.1z M190,167.9c-0.7,0-1.3,0.2-2,0.2l1.3-1.5L190,167.9z M190,154.8C190,154.6,190,154.6,190,154.8
		C190,154.6,190.2,154.8,190,154.8L190,154.8z M188.5,173.5c0,1.1-1.3,2.1-2.7,2.1c-1.3,0-2.6-0.8-2.7-1.7c0.4,0.6,1.3,1.1,2.2,1.1
		c1.3,0,2.4-0.9,2.4-2.1c0-0.4-0.2-0.8-0.4-1.1C188,172.2,188.5,172.8,188.5,173.5L188.5,173.5z M185.8,185.4
		c0.7,0.4,1.3,1.1,1.3,1.9c0,1.1-1.3,2.3-2.7,2.3c-1.3,0-2.6-0.8-2.7-1.9c0.4,0.8,1.3,1.1,2.2,1.1c1.3,0,2.4-0.9,2.4-2.3
		C186.2,186.1,186,185.7,185.8,185.4L185.8,185.4z M190.8,160.1c0.2-1.5,0-2.5-0.2-3.3c2.1,4.2,2.7,9.1,2.8,11.3c-0.4,0-0.7,0-1.1,0
		c-0.2-0.9-0.7-2-1.2-2.7C192.2,163.9,190.8,160.1,190.8,160.1L190.8,160.1z M208,164v3.1c0,0-1.3,0-2,0v-3.6l-2.9,0.4l0.2,3.4
		c-1.9,0-3.8,0.2-5.7,0.4l-1-4.6c5.7-10.6,14.1-2.8,18.1,2l0.2,2c-1.2,0-2.4,0-3.8,0v-3h-4L208,164z M226.2,167.2l0.2-6.2h2.6
		l-0.2,6.4C227.7,167.4,226.9,167.2,226.2,167.2L226.2,167.2z M205,291.1h0.7c1.1-0.2,2.6,0,4.2,0l56.7-7.9l-10.8,16.5
		c0,0-31.8-7.9-45.9-8.8l-1.8,0.2l-2.4-0.2c-0.4,0-0.5,0-0.9,0.2C205,291.1,205,291.1,205,291.1L205,291.1z M269.2,283.3l12.8,0.4
		l-23.6,14.6C261.7,294.4,267,286.5,269.2,283.3L269.2,283.3z M237.4,174.7c0.7,0.4,1.3,0.9,1.3,1.7c0,1.1-1.3,2.1-2.7,2.1
		c-1.3,0-2.6-0.8-2.7-1.7c0.4,0.6,1.3,1.1,2.2,1.1c1.3,0,2.4-0.9,2.4-2.1C237.9,175.4,237.7,175,237.4,174.7L237.4,174.7z
		 M244.7,201.3c0.7,0.4,1.3,1.1,1.3,2.1c0,1.3-1.3,2.4-2.7,2.4c-1.3,0-2.6-0.9-2.7-2.1c0.4,0.8,1.3,1.3,2.2,1.3
		c1.3,0,2.4-1.1,2.4-2.4C245,202.2,244.9,201.7,244.7,201.3L244.7,201.3z M250.2,232.6c0.7,0.4,1.3,1.1,1.3,2.1
		c0,1.3-1.3,2.4-2.7,2.4c-1.3,0-2.6-0.9-2.7-2.1c0.4,0.8,1.3,1.3,2.2,1.3c1.3,0,2.4-1.1,2.4-2.4
		C250.5,233.6,250.3,233.2,250.2,232.6L250.2,232.6z M243.9,158.9c0,0,2.6-1.7,4.4,0.4l-0.2,9.6l-0.4,1.1c-1.5-0.2-2.7-0.6-4.2-0.8
		L243.9,158.9L243.9,158.9z M255.1,242.8c-0.5-0.4-0.9-0.8-1.5-1.1c1.5-20.3-13.4-69.8-13.4-69.8c0.5,0,1.1,0,1.5,0.2
		C253.1,212.2,254.7,236.4,255.1,242.8z M234.6,148.4l6.4,15v5.3c-3.3-0.4-6.4-0.8-9.1-1.1c-0.9-2.6-2.9-9.4-0.7-11.8
		C230.9,155.9,234.2,152.3,234.6,148.4L234.6,148.4z M224.2,127.2c0,0-0.9,8.8,7.1,17.3c0,0,2.7,7.3-4.9,12.2
		c-2,0.2-3.7-0.6-3.7-0.6c-5.5-1.7-15.2-0.9-15.2-0.9c-14.4,1.1-16.3-8.3-16.3-10.1c0-2.1,5.9-11.1,5.9-11.1
		c1.5-5.8-0.5-10.9-1.6-13.1c0.7,0,1.5,0.2,2.2,0c1.8,3,3.1,14.1,3.1,14.1c7.1,3.4,21.6,0.6,21.6,0.6l-1.6-9.8
		C221.8,126.3,223.1,126.6,224.2,127.2L224.2,127.2z M190.5,107.9c0,0,0.4-12.8-3.7-19.5c1.8,0,2.7-0.2,2.7-0.2l0.9,1.7
		c4.4,5.1,8.8,8.8,13,11.4c0.2,0.9,0.5,2.3,0.5,3.4c0,0.6,0,0.9,0,1.5l0,0l0,0c0.2,5.3-0.4,10.3-2.9,11.8c0,0-4.2,2.1-6.6,0.9
		c0,0-2.6-1.7-7.1-2.3C189.6,114.4,191.2,111.6,190.5,107.9L190.5,107.9z M214.5,126.1c0,0,1.8-0.4,4.2-0.2c0.7,2.8,1.3,7.7,1.3,7.7
		c-9.7,4.9-17.7-0.6-17.7-0.6c-0.2-2.1-2.4-9-3.1-12c1.8-0.4,3.8-1.1,5.5-2.6c0,0,1.1-7.3,1.1-12.8c0.5,0,2,0,3.5,3.2l0.4,15.4
		C209.6,124,209.2,127.6,214.5,126.1L214.5,126.1z M239.7,69.1c-2.9,4.5-9.5,2.4-9.5,2.4c-0.5-1.5,1.1-3,1.1-3.4h0.2
		c0.2,1.5,1.3,2.3,2.6,2.3c1.5,0,2.6-0.9,2.6-2.1c0-0.8-0.5-1.3-1.1-1.7C239.7,65.5,239.7,69.6,239.7,69.1L239.7,69.1z M236.6,47.1
		c0.2,0,0.6,0,0.8,0c1,0,2,0.6,2.8,1.5l0,0c0,0.2,0.2,0.2,0.2,0.4c0.2,0.4,0.4,0.6,0.6,0.9v-0.4c0.8,1.3,1.4,2.8,1,4.9v-0.2
		c-0.2,1.7-1,3.2-2.4,3.6c-2,0.6-4.4-1.3-5.2-4.3C233.4,50.4,234.4,47.6,236.6,47.1L236.6,47.1z M231.7,49.3c0.7,0,1.5-0.2,2.4-0.4
		c-0.7,1.5-0.2,3.6-0.2,3.6l-1.5,1.1C231.1,52.3,231.3,50.5,231.7,49.3L231.7,49.3z M230.4,49.5c0,0-0.7,5.1,2.7,8.1
		C233.3,57.6,228.2,55,230.4,49.5z M219.6,46.1c0.2,0.2,0.5,0.4,0.7,0.6l0,0c0.9,0.9,1.6,2.4,1.6,3.9c0,3-2.4,5.4-5.3,5.4l0,0l0,0
		c-0.2,0-0.2,0-0.4,0s-0.4,0-0.4,0c-2.6-0.4-4.6-2.6-4.6-5.4c0-3,2.4-5.4,5.3-5.4C217.6,45.2,218.7,45.5,219.6,46.1L219.6,46.1z
		 M208.1,50.6L207,51c0,0,0.7-2.8,4.2-3.9c0,0-3.8,5.4,0.7,9l-1.3,1.9c0,0-2.6-0.4-3.8-3.6l1.6-0.9L208.1,50.6L208.1,50.6z
		 M208.5,39.1c0.5-0.6,0.9-0.8,0.9-0.8c-0.2,2.3,0.7,1.7,0.7,1.7c0.9-2.8,2.2-3,2.2-3c2.9,1.7,3.8,6.4,3.8,6.4
		c-1.5-3.2-4.6-5.6-4.6-5.6c-1.1,2.1-0.7,6.2-0.5,7.3l0,0c-0.4-2.1-1.8-3.8-1.8-3.8c-0.7,1.1-0.4,3.4-0.2,4.9
		c-0.2,0-0.2,0.2-0.4,0.2c-1.6-3.2-1.5-5.3-0.9-6.6c-1.3,1.7-4,5.4-4.4,8.4C203.5,48.4,202.6,40.9,208.5,39.1L208.5,39.1z
		 M187.6,48.1c-1.3,1.7-1.3,6-1.3,6c0.9-3.8,6.6-9.8,6.6-9.8l0.2,3.4c2-6.2,12.1-8.8,12.1-8.8C190.5,43.4,192,59.5,192,59.5
		c-2.2-3.8-0.7-11.1-0.7-11.1c-4.9,4.7-3.7,15.8-3.7,15.8c-2.2-3.2-1.6-7.9-1.6-7.9c-0.9,1.1-1.3,4.5-1.3,4.5
		C183.8,51.4,187.6,48.1,187.6,48.1L187.6,48.1z M201.3,50.6c-0.2,1.1-0.5,2.4-0.7,3.6c-0.7,0.6-1.6,1.1-2.6,1.9
		c0.5-1.1,0.9-2.1,1.5-2.6c0,0,0.9-1.5,1.6-3.2L201.3,50.6L201.3,50.6z M185.7,71.3c0,0,1.8,6.2,4,7.9c0,0-0.2-6.2,0.4-11.1
		c0.4-0.4,0.7-0.9,1.1-1.3c0.5,3.4,1.5,9,2.2,9.8c0,0,1.5-8.6,3.3-15.4c2.6-2.3,5.5-4.3,8.6-5.6c0,0,2,4.9,9,5.3
		c0,0,5.5,0.8,8.4-4.1c0,0,5.3-0.2,8,0.8c0,0.2,0.2,0.4,0.2,0.6c0,0-5.5,4.5-3.7,11.1l3.1,8.4l2.4,1.3c0,0-1.6,1.5-2.6,2.3
		c0,0,0,0-0.2,0v0.2l-1.6,0.8c0,0-4.4-0.2-6,1.5c0,0,4.4,0.6,3.8,1.7c0,0,0.2,0.4,0.5,0.8c0.2,1.1,0.9,2.1,1.6,2.6l0.5,0.8l-1.3,0.9
		l-1.8-1.3c0,0-5.9,0-11,3.2l-3.3-0.8c0,0,1.5,2.1,4.4,1.9c0,0,6.6-1.3,8.8-0.8l2.7,0.6l1.3-0.6c0,0,1.5,2.3,0.5,2.8l-8,1.3
		l-3.5-0.9l2.4,2.4c0,0,6.2-0.4,7.1,0.9c0,0-1.6,4.9-4.4,6c-1.8,0.2-3.8-0.2-3.8-0.2c-21.2-5.6-29.1-20.1-29.1-20.1
		c-0.4,3.6-5.9,1.7-5.9,1.7l-0.4-0.2c-2.9-1.7-7.7-4.7-8.2-8.4C175.1,78.1,175.9,68.9,185.7,71.3L185.7,71.3z M173.4,115.9
		c-4,0.4-8-0.8-8-0.8c17.7,2.6,6-28.3,6-28.3c-2.6-4.3-4.2-11.4-4.2-11.4c0-17.1,12.8-10.1,12.8-10.1c-17.7-2.6-8.6,16.5-8.6,16.5
		c9.5,16.1,9.1,28.1,9.1,28.1c0,1.1-0.4,2.3-0.9,3c1.1-6.6-3.3-15.8-3.3-15.8C179.9,109,176.6,113.9,173.4,115.9z M188,118.8
		c0,0,2.4,1.3,5.7,1.9c4,7.1,1.5,12.6,1.5,12.6l-3.5,4.5c-4.4-6.4-10.1-1.3-10.1-1.3l2.7,0.6l-3.8,9.4c1.1-2.8-2-4.3-2-4.3l-2,3
		l-4-6.4C174.4,133.6,181.6,117.3,188,118.8L188,118.8z M162.6,138.8c2.6-5.6,6.9-4.9,6.9-4.9l0.9,4.5c-2,0.8-3.5,2.1-4,2.8
		L162.6,138.8z M166.8,142.1l-0.2-0.2c1.8-1.3,3.7-1.5,4.8-1.3l7.7,12.8c-0.9,0.9-2.2,1.7-3.3,2.3L166.8,142.1L166.8,142.1z
		 M168.8,147.5l3.8,6.2l-1.3-1.5c-1.5,5.6,0.9,10.1,0.9,10.1l-10.4,8.4l-1.1,1.1c-0.2,0-0.4,0-0.5,0.2c-0.5,0-1.1,0.2-1.8,0.2
		C162.2,167.7,167.3,152.3,168.8,147.5L168.8,147.5z M138.6,181c0,0,3.3-5.6,36.4-7.9c0,0-33.1,3.9-42.1,44.8l-1.6,3.4l-2.2-4.5
		C129.1,216.7,149,181,138.6,181z M121.6,282.1c-0.2-2.6-0.4-5.1-0.5-7.7c1.5-0.8,2.6-2.6,2.6-5.1c0-3-1.6-5.3-3.8-5.4
		c-0.4-2.1-0.7-4.1-1.1-6c5.1,0.8,7.3,4.1,8.2,7.1c0.2,4.3,0.2,8.6,0.2,12.8C125.4,280,123.1,281.3,121.6,282.1L121.6,282.1z
		 M127,281.4c0,0.4,0,0.8,0,1.1v-0.8V281.4L127,281.4z M121.1,293l5.5-2.7c-0.2,2.8-0.5,5.4-0.7,8.1c0-1.5,0.2-2.4,0.2-2.4l-4,1.1h0
		C121.5,294.9,121.6,295.2,121.1,293z M122,255.9c-1.5-0.8-2.7-1.1-3.8-1.1c-0.2-1.1-0.5-2.3-0.9-3.4l7.3-5.8
		c0.5,2.6,0.9,5.3,1.3,7.9L122,255.9z M119.4,331.1c21.2-46.2,6.4-93.4,6.4-93.4c-3.5-10.1-5.9-15.2-7.5-16.9l4.2-9.2
		c0,0,24.3,36.8,11.5,94.6c0,0-4.4,25.5-17.4,39C117.8,340.7,118.7,336,119.4,331.1z M132.9,331.7c0.7,0.6,1.3,1.5,1.3,2.6
		c0,1.7-1.1,3-2.6,3c-1.3,0-2.2-1.1-2.4-2.4c0.4,0.9,1.1,1.7,2,1.7c1.3,0,2.2-1.3,2.2-3C133.3,332.8,133.1,332.3,132.9,331.7z
		 M131.1,471.1c1.3,0,2.4-1.3,2.4-3c0-0.6-0.2-1.1-0.4-1.7c0.7,0.6,1.3,1.5,1.3,2.6c0,1.7-1.3,3-2.7,3c-1.3,0-2.4-1.1-2.6-2.4
		C129.3,470.5,130.2,471.1,131.1,471.1L131.1,471.1z M116.5,484c0.5-4.9,4.8-6.8,9.5-7.1c9.1,0,16.5,4.5,20.8,8.3
		c38.2,38.8,52.3,77.9,54.7,85.6c-0.9-0.2-1.6-0.4-2.6-0.6c-18.5-47.3-53.9-79-53.9-79c-18.7-17.3-26.2-8.8-28.3-4.7
		C116.7,485.5,116.5,484.6,116.5,484L116.5,484z M166.4,518l-2.2,1.5l-3.7-4.9l1.6-1.9C163.8,514.6,165.1,516.3,166.4,518L166.4,518
		z M129,483.1v3c-0.9-0.8-5.5-0.9-5.5-0.9l-0.7-3C124.8,482,127,482.4,129,483.1z M124.7,512.6c-5.1-8.6-7.1-16.5-7.9-21.8
		c0-0.8,0-1.5-0.2-2.4c1.1-3.8,3.1-5.6,5.7-6.2l1.1,3.9c2.9-0.6,6.9,0.9,6.9,0.9l0.4-3.8c5.9,2.4,11.3,7.3,11.3,7.3
		c7.1,6.6,13.7,13.7,19.6,21l-2.2,2.6l4.6,6.4l3.5-1.5c17.2,23.1,27.2,45.4,29.6,50.5c-2.9-0.6-5.3-1.3-7.1-1.7
		c-21.4-45-51.4-54.8-51.4-54.8C132.4,510.3,124.7,512.6,124.7,512.6L124.7,512.6z M158.4,566.8l-1.1-12.4c1.1-0.2,2.4-0.6,3.7-1.1
		l0.2-6.9l4.2,3.2l0.5,5.8c0.4,0.2,0.7,0.4,1.3,0.6C164.9,556.6,160.5,559.1,158.4,566.8L158.4,566.8z M158.5,568.1
		c-0.2,0-0.4,0-0.5-0.2v-0.2L158.5,568.1L158.5,568.1z M161.1,542.1l0.2-4.3l2.9,2.3l0.5,4.9L161.1,542.1L161.1,542.1z M166.4,573
		c3.7,2.8,9.3,0.4,9.3,0.4l-0.2,6.9c-1.8,0.2-3.7,0.2-5.5-0.2c0,0-1.6,0-4.2-0.2l-0.4-2.1L166.4,573L166.4,573z M168.4,570.9
		l0.7-14.3c2,0.6,4,0.6,5.5,0.6l-1.3,14.6C170.6,572.6,168.4,570.9,168.4,570.9L168.4,570.9z M167,553.6v-12.2
		c0.9-0.2,2.2-0.2,2.9,0c2.4,3.2,4.8,6.4,6.6,9.4l-0.4,3.8C170.5,556.1,167,553.6,167,553.6L167,553.6z M135.9,528.1l-0.7-12.8
		l1.8,0.6c4.6,1.3,9,3.6,13,6.2v4.1l-0.2,1.1C143.8,527.1,137.9,527.7,135.9,528.1L135.9,528.1z M139.7,529.6
		c3.8,0,9.3-0.2,13.5-0.4l2.2,14.6c-4.6,0.9-9.9,0.8-12.1,0.8L139.7,529.6L139.7,529.6z M145.2,551.8l-1.6-6.6
		c3.8,1.3,9.5,0.6,12.3,0.2l0.9,6.4C156.7,551.8,150.3,554.6,145.2,551.8z M151.4,555c1.1,0,2.4,0,3.7-0.2l2,14.8
		c-0.9,0.8-2.7,0.6-3.1,0.4L151.4,555L151.4,555z M162.2,572.4l0.2,7.1c-4.6-0.6-10.1-1.9-13.5-4.5l-0.2-3.2
		C155.4,574.7,162.2,572.4,162.2,572.4z M145.6,575.8c0,0,2.6,5.1,24.3,6.8c0,0,5.7,0.6,12.1-0.8v8.8c-3.7,0.8-8,1.5-11.5,1.3
		c0,0-18.3-0.4-25.4-8.3L145.6,575.8z M168,628.3c-28.2-13.1-49.7-19.9-49.7-19.9l25.2-22.7c2,1.7,9.1,6.6,24.9,8.3
		C169.7,604.3,168,628.3,168,628.3L168,628.3z M217.8,602.1c-5.3,4.3-46.8,27.6-46.8,27.6l-1.3-35.6c0.7,0,1.3,0.2,1.8,0.2
		c0,0,14.1-1.1,19.2-3.8L217.8,602.1z M192.2,581.6l-0.2-2.1c0-0.2,0-0.2,0-0.4c0-0.2,0.2-0.6,0-0.8c-0.2-1.3-0.5-1.5-1.1-1.3
		c-0.7-0.6-2-1.3-4.2-2.3c0.2-0.9,0.4-2.3,0.4-3.8c10.2,3,20.7,4.7,30.7,5.3C205.7,577.8,196,580.5,192.2,581.6L192.2,581.6z
		 M203.9,571.1c-15.2-47.7-51.8-84.6-58.7-91.4c3.1-145.2,65.1-185.9,65.1-185.9l-1.5-0.6c10.6,3,34.9,9.4,49.2,8.6
		c0,0,0.4-0.2,1.3-0.8c2,9.9,7.5,46,4.8,133.2c0,0-1.1,106.8-14.4,138.3C230.6,574.3,214.9,573,203.9,571.1L203.9,571.1z
		 M261.9,299.4c7.7-4.7,24.1-14.6,25.1-14.6c28.9,49.3,27.1,141.8,24.5,183.5c-6.2,51.8-37.5,93.1-44.4,101.9
		c-4.6,0.8-9,1.5-13.2,1.9C256.6,555,274.8,433,261.9,299.4L261.9,299.4z M344.7,603.9c-31.6-1.1-59.6,3.2-65.3,4.1
		c-4-4.3-16.1-15.6-16.1-15.6c-0.9-3.8,36-16.5,36-16.5C305.9,579.4,337.4,599.4,344.7,603.9z"/>
	<path id="path231" inkscape:connector-curvature="0" class="st11" d="M83.8,312.9c-22,67.2-27,121.3-28,139.9
		c-0.2,2.7,3.1,4.3,5.1,2.4c58.3-52.6,62.1-157.1,55.2-198.1c-0.5-3-4.7-3.5-5.8-0.6c-7.4,19.3-29.7,54.9-40.8,132.9
		C69.4,389.7,70.1,358.6,83.8,312.9z"/>
	<g id="g233" transform="matrix(2.8928123,0,0,2.8928123,73.62739,39.263881)">
		<path id="path235" inkscape:connector-curvature="0" class="st11" d="M23.1,81c1.5,0.2,11.6,1.7,13.7,2.6l1.1-9.8
			c-4-1.6-6.9-5.8-6.9-10.2c0-5.3,3.7-9.6,8.7-10.7l0.8-6.9c-0.3,0-0.7,0-1,0.1c0.1,0.1,0.2,0.3,0.2,0.4c0,0.4-0.4,0.7-0.9,0.7
			c-0.4,0-0.9-0.3-0.9-0.6c0.1,0.2,0.4,0.4,0.8,0.4c0.4,0,0.8-0.3,0.8-0.7c0-0.1,0-0.1-0.1-0.2c-1.6,0.1-3.2,0.2-4.8,0.3
			c-2.3,0.5-11.3,3-14,15.4l-0.6,1.2l-0.8-1.6c0,0,6.9-12.3,3.2-12.3l-4.9,9.7C17.6,58.7,22.8,67,23.1,81L23.1,81 M35.6,75.7
			c0.4,0,0.8-0.4,0.8-0.8c0-0.2-0.1-0.3-0.1-0.5c0.3,0.1,0.4,0.4,0.4,0.7c0,0.5-0.4,0.8-0.9,0.8c-0.4,0-0.9-0.3-0.9-0.7
			C35,75.5,35.3,75.7,35.6,75.7z M35.2,81.9c0.4,0,0.8-0.4,0.8-0.8c0-0.2-0.1-0.3-0.1-0.5c0.3,0.1,0.4,0.4,0.4,0.7
			c0,0.5-0.4,0.8-0.9,0.8c-0.4,0-0.9-0.3-0.9-0.7C34.6,81.7,34.9,81.9,35.2,81.9L35.2,81.9z M38.1,51.7c0.4,0,0.8-0.3,0.8-0.8
			c0-0.1-0.1-0.3-0.1-0.5c0.3,0.1,0.4,0.4,0.4,0.6c0,0.4-0.4,0.8-0.9,0.8c-0.4,0-0.9-0.3-0.9-0.6C37.5,51.5,37.8,51.7,38.1,51.7z
			 M29.4,80.9c0.4,0,0.8-0.4,0.8-0.8c0-0.2-0.1-0.3-0.1-0.5c0.3,0.1,0.4,0.4,0.4,0.7c0,0.5-0.4,0.8-0.9,0.8c-0.4,0-0.9-0.3-0.9-0.7
			C28.8,80.7,29,80.9,29.4,80.9z M23.7,73.2c0.6,0,1-0.5,1-1c0-0.2-0.1-0.4-0.2-0.6c0.3,0.2,0.6,0.5,0.6,0.9c0,0.6-0.5,1-1.1,1
			c-0.6,0-1-0.4-1.1-0.8C23,73,23.3,73.2,23.7,73.2L23.7,73.2z M21.5,63.5c0.5,0,0.9-0.5,0.9-1c0-0.2-0.1-0.4-0.1-0.6
			c0.3,0.2,0.5,0.5,0.5,0.9c0,0.6-0.4,1-1,1c-0.5,0-0.9-0.4-1-0.8C20.9,63.3,21.1,63.5,21.5,63.5L21.5,63.5z"/>
		<path id="path237" inkscape:connector-curvature="0" class="st11" d="M14.2,151.9c0.8-1.2,4.2-2.7,10.1,0.1
			c0,0-1.8-39.9,20.5-63.8l-0.4-1.3c0,0,3.6-8.8,17.5-17.6c0,0,0.9-3.3-4.6-23.3c0,0-7.9-0.4-16.4,0l-0.7,6.6
			c0.4-0.1,1.4-0.1,1.8-0.1c6.2,0,11.2,4.9,11.2,11s-5,11-11.2,11c-1.3,0-2.7-0.3-3.9-0.7l-0.8,10.9c-2.7-1.4-12.3-3-14.5-3.3
			c0,1.5-0.1,3.1-0.2,4.7c-1.3,17.1-8.9,24.2-8.9,24.2s-0.1,0.6-0.4,1.8c-0.3,1.5-0.7,3-1.1,4.5c-1.3,4.9-3.4,11.6-5.9,15.7l5,15.4
			C11.7,147.7,13.5,153,14.2,151.9L14.2,151.9z M60.3,68.2c0.4,0,0.8-0.4,0.8-0.8c0-0.2-0.1-0.3-0.1-0.5c0.3,0.1,0.4,0.4,0.4,0.7
			c0,0.5-0.4,0.8-0.9,0.8c-0.4,0-0.9-0.3-0.9-0.7C59.7,68,60,68.2,60.3,68.2z M58.4,57.4c0.4,0,0.8-0.4,0.8-0.8
			c0-0.2-0.1-0.3-0.1-0.5c0.3,0.1,0.4,0.4,0.4,0.7c0,0.5-0.4,0.8-0.9,0.8c-0.4,0-0.9-0.3-0.9-0.7C57.8,57.2,58.1,57.4,58.4,57.4z
			 M55.9,47.9c0.4,0,0.8-0.3,0.8-0.7c0-0.1-0.1-0.3-0.1-0.4c0.3,0.1,0.4,0.3,0.4,0.6c0,0.4-0.4,0.7-0.9,0.7c-0.4,0-0.9-0.3-0.9-0.6
			C55.3,47.7,55.6,47.9,55.9,47.9z M24.5,84.3c0.6,0,1-0.5,1-1c0-0.2-0.1-0.4-0.2-0.6c0.3,0.2,0.6,0.5,0.6,0.9c0,0.6-0.5,1-1.1,1
			c-0.6,0-1-0.4-1.1-0.8C23.9,84.1,24.2,84.3,24.5,84.3L24.5,84.3z M23,94c0.6,0,1-0.5,1-1c0-0.2-0.1-0.4-0.2-0.6
			c0.3,0.2,0.6,0.5,0.6,0.9c0,0.6-0.5,1-1.1,1c-0.6,0-1-0.4-1.1-0.8C22.3,93.8,22.7,94,23,94L23,94z M19.9,102.7
			c0.4,0,0.8-0.5,0.8-1c0-0.2-0.1-0.4-0.1-0.6c0.3,0.2,0.4,0.5,0.4,0.9c0,0.6-0.4,1-0.9,1c-0.4,0-0.8-0.4-0.8-0.8
			C19.3,102.5,19.6,102.7,19.9,102.7z M19.9,149.3c0.4,0,0.8-0.5,0.8-1c0-0.2-0.1-0.4-0.1-0.6c0.3,0.2,0.4,0.5,0.4,0.9
			c0,0.6-0.4,1-0.9,1c-0.4,0-0.8-0.4-0.9-0.8C19.2,149.1,19.6,149.3,19.9,149.3L19.9,149.3z M13.7,151c0.3,0,0.5-0.5,0.5-1
			c0-0.2-0.1-0.4-0.1-0.6c0.2,0.2,0.3,0.5,0.3,0.9c0,0.6-0.3,1-0.6,1c-0.3,0-0.6-0.4-0.6-0.8C13.3,150.8,13.5,151,13.7,151L13.7,151
			z"/>
	</g>
	<path id="path241" inkscape:connector-curvature="0" class="st14" d="M240.3,48.2c0,0.2,0.2,0.2,0.2,0.4
		C240.5,48.4,240.5,48.4,240.3,48.2z"/>
	<path id="path243" inkscape:connector-curvature="0" class="st14" d="M220.4,47.3L220.4,47.3L220.4,47.3z"/>
	<path id="path245" inkscape:connector-curvature="0" class="st14" d="M216.5,57.1L216.5,57.1c0,0-0.2,0-0.4,0
		C216.3,57.1,216.5,57.1,216.5,57.1z"/>
	<path id="path249" inkscape:connector-curvature="0" class="st3" d="M258.9,354.4c-0.7-2.6-1.5-5.1-2.2-7.5
		c-11.5,3.2-20.7,13.3-24.1,26.6C246,378.4,265,379,258.9,354.4L258.9,354.4z"/>
	<path id="path251" inkscape:connector-curvature="0" class="st0" d="M264.1,345.8c-2.6,0-4.9,0.4-7.3,1.1c0.9,2.4,1.6,4.9,2.2,7.5
		c6,24.6-13,24-26.5,19.1c-1.1,3.9-1.6,8.3-1.6,12.8c0,11.3,4,21.6,10.4,28.9c18.7-13.7,33.6-37,38.8-64.4
		C275.4,347.5,269.9,345.8,264.1,345.8z"/>
	<path id="path253" inkscape:connector-curvature="0" class="st0" d="M279.8,350.7c-5.3,27.4-20.1,50.7-38.8,64.4
		c6,6.9,14.1,11.1,23,11.1c4.6-19.3,18.8-31.3,33.5-40.1c0,0,0,0,0-0.2C297.2,370.6,290.2,357.4,279.8,350.7z"/>
	<path id="path255" inkscape:connector-curvature="0" class="st0" d="M264.2,426.1h0.2c18.5-0.2,33.3-18.2,33.1-40.1
		C283.1,394.5,268.8,406.7,264.2,426.1z"/>
	
		<ellipse id="ellipse257" transform="matrix(1 -5.647040e-03 5.647040e-03 1 -2.075 1.4411)" class="st3" cx="254.1" cy="368.2" rx="6.9" ry="12.8"/>
	<path id="path261" inkscape:connector-curvature="0" class="st16" d="M265.9,351.4c-15.4,0-27.8,15.2-27.6,34
		c0.2,18.6,12.6,33.8,28,33.6c15.4,0,27.8-15.4,27.6-34C293.9,366.2,281.2,351.2,265.9,351.4L265.9,351.4z"/>
	<path id="path263" inkscape:connector-curvature="0" class="st3" d="M255.1,368.7c-2.6,3.9-5.7,6.2-6.9,4.9
		c-1.3-1.3-0.2-5.6,2.4-9.6c2.6-3.9,5.7-6.2,6.9-4.9C258.8,360.4,257.7,364.7,255.1,368.7z"/>
	<path id="path265" inkscape:connector-curvature="0" class="st10" d="M265.2,415.7c-0.9,0-1.8,0-2.6-0.2
		c8.4-0.8,16.8-7.3,21.4-18.2c5.1-12.4,4-26.6-2.2-36c5.3,5.6,8.8,13.9,8.8,23.3C290.8,401.7,279.2,415.6,265.2,415.7L265.2,415.7z"
		/>
	<path id="path267" inkscape:connector-curvature="0" class="st11" d="M319,352.1c-5.7-68.3-12.3-86.3-12.3-86.3s-5.5-17.7-9.9-28.1
		c-0.7-1.6-2.9-1.5-3.4,0.2c-1.4,4.4-3.9,10.6-7.9,13.8c-0.1,0.1-0.2,0.2-0.4,0.2c-1.3,0.6-8.7,2.8-18.6-16.8
		c-9.9-19.6-4.9-34.4-2.4-37.6c0.4-0.5,0.9-0.7,1.5-0.7c2.4,0.1,8.5,1.9,12.3,3c1.4,0.4,2.7-0.9,2.3-2.3c-1.7-5.4-5.1-15.5-7.8-16.6
		c-3.5-1.3-5.7-6.2-27.4-8.2c-1.3-0.1-2.3,1-1.9,2.3c2.6,9.8,11.8,46.2,12,65.9c0,0.6,0.2,1.1,0.7,1.4c3.9,3.1,23.4,18.9,31.3,30
		c4.3,5.6,4.5,10.4,4.4,11.8c0,0.3,0,0.5,0.1,0.8c26.1,61,22.5,113,24.7,144.8c0,0.1,0,0.3,0.1,0.4l1.1,3.7
		C318.7,412,319,352.1,319,352.1L319,352.1z"/>
	<path id="path269" inkscape:connector-curvature="0" class="st11" d="M316.6,263.4c0,0-1-6.7-5.8-7l0,0c-2.4-0.7-4.4,0.1-4.4,0.1
		c17.4,57.6,14,165.2,14,165.2l17.8,32.6c1.9,5.1,7.1,12.2,8,8.4C347.3,456.9,342.7,349.1,316.6,263.4L316.6,263.4z"/>
	<path id="path175_1_" inkscape:connector-curvature="0" class="st14" d="M283,205.6c-4.2,1-6,9-3.9,18c2.1,8.9,7.2,15.4,11.4,14.5
		c4.2-1,6-9,3.9-18C292.3,211.1,287.2,204.6,283,205.6z M281.9,214.5c-0.3,2-0.9,3.2-1.4,2.8c-0.5-0.6-0.7-2.7-0.4-4.7
		c0.3-2,0.9-3.2,1.4-2.8C282.1,210.4,282.2,212.5,281.9,214.5z M289.8,236.7c-0.2,0.1-0.5,0.1-0.7,0.2c2.2-0.9,3.8-4.4,3.9-10
		c0.1-6.2-1.8-12.9-4.5-17.1c2.1,2.4,3.9,6.2,4.9,10.6C295.3,228.5,293.7,235.8,289.8,236.7L289.8,236.7z"/>
</g>
<g id="Layer_2">
	<g id="text3252" transform="translate(11.990707,0.41224207)" inkscape:transform-center-y="-51.583347">
		<path id="path4369" inkscape:connector-curvature="0" class="st14" d="M95,711.3H70v-44h9v34h16V711.3"/>
		<path id="path4371" inkscape:connector-curvature="0" class="st14" d="M109,711.3H99v-44h10V711.3"/>
		<path id="path4373" inkscape:connector-curvature="0" class="st14" d="M140,667.3h10v44h-10.8L125,685.6v25.7h-10v-44h10.9
			l14.1,25.7V667.3"/>
		<path id="path4375" inkscape:connector-curvature="0" class="st14" d="M171.5,711.2c-2.2,0-4.3-0.4-6.2-1.2c-2-0.8-3.7-2-5.2-3.6
			c-1.6-1.6-2.8-3.4-3.6-5.4c-0.8-2-1.3-4.2-1.3-6.5v-27.2h10v27.6c0,1.8,0.7,3.3,2,4.6c1.3,1.2,2.8,1.8,4.5,1.9
			c0.9,0,1.8-0.2,2.6-0.5c0.8-0.4,1.5-0.8,2.1-1.5c0.6-0.6,1-1.3,1.4-2.1c0.3-0.8,0.5-1.7,0.5-2.6v-27.5h10v27.2
			c0,2.3-0.4,4.4-1.2,6.5c-0.8,2-2,3.8-3.5,5.3c-1.5,1.5-3.2,2.7-5.2,3.7c-2,0.9-4.1,1.3-6.3,1.4h0.3"/>
		<path id="path4377" inkscape:connector-curvature="0" class="st14" d="M229.3,666.3L216.5,688l13.9,23.2h-11.8l-7.9-13.3
			l-7.8,13.3h-11.7l13.6-23.2l-13-21.8h11.7l7.2,11.9l6.9-11.9H229"/>
		<path id="path4379" inkscape:connector-curvature="0" class="st14" d="M251.8,711.1c-2.8,0-5.5-0.5-8.2-1.6
			c-2.6-1.1-5-2.7-7.1-4.9c-2-2.1-3.6-4.5-4.7-7.2c-1.1-2.7-1.6-5.5-1.6-8.5c0-3,0.5-5.9,1.6-8.5c1.1-2.7,2.7-5.1,4.7-7.2
			c2.1-2.2,4.5-3.8,7.2-4.9c2.7-1.1,5.4-1.6,8.1-1.6c2.8,0,5.5,0.5,8.1,1.6c2.7,1.1,5.1,2.7,7.2,4.9l-7,7.2c-1.1-1.2-2.4-2-3.9-2.6
			c-1.5-0.6-2.9-0.9-4.4-0.9c-1.5,0-3,0.3-4.4,0.9c-1.4,0.6-2.7,1.4-3.8,2.6c-1.1,1.2-1.9,2.5-2.5,3.9c-0.6,1.4-0.9,3-0.9,4.6
			c0,1.6,0.3,3.1,0.9,4.6c0.6,1.4,1.4,2.7,2.5,3.9c1.1,1.2,2.4,2.1,3.8,2.7c1.5,0.6,2.9,0.8,4.4,0.8c1.5,0,3-0.3,4.4-0.8
			c1.5-0.6,2.7-1.5,3.9-2.7l7,7.2c-2.1,2.2-4.5,3.8-7.1,4.9C257.4,710.6,254.7,711.1,251.8,711.1"/>
		<path id="path4381" inkscape:connector-curvature="0" class="st14" d="M291,667.3h10v44h-10v-17h-12v17h-10v-44h10v17h12V667.3"/>
		<path id="path4383" inkscape:connector-curvature="0" class="st14" d="M316,711.3h-10v-44h10V711.3"/>
		<path id="path4385" inkscape:connector-curvature="0" class="st14" d="M357.3,666.3L344.4,688l13.9,23.2h-11.8l-7.9-13.3
			l-7.8,13.3h-11.7l13.6-23.2l-13-21.8h11.7l7.2,11.9l6.9-11.9H357"/>
	</g>
	<g id="text3260" transform="translate(11.990707,0.41224207)">
		<path id="path4388" inkscape:connector-curvature="0" class="st11" d="M256.6,652.8c-0.1,0.2-0.2,0.6-0.5,1.2
			c-0.2,0.6-0.5,1.4-0.8,2.2c-0.3,0.8-0.6,1.7-0.9,2.6c-0.3,0.9-0.5,1.8-0.7,2.6c-0.2,0.8-0.2,1.5-0.2,2.1c0,0.6,0.1,0.9,0.3,1
			c0.7,0.4,1.5,0.2,2.3-0.3c0.9-0.6,2-1.6,3.3-2.8c0.1,0,0.1,0.1-0.1,0.4c-0.1,0.3-0.3,0.6-0.5,0.9c-0.2,0.3-0.5,0.6-0.7,0.9
			c-0.2,0.3-0.4,0.5-0.5,0.6c-0.3,0.3-0.8,0.7-1.4,1.1c-0.5,0.4-1.1,0.7-1.7,1c-0.6,0.2-1.1,0.3-1.6,0.3c-0.5,0-0.8-0.3-1.1-0.9
			c-0.1-0.4-0.1-0.9,0-1.4c0.1-0.6,0.2-1.2,0.4-1.8c0.2-0.6,0.3-1.1,0.5-1.6c0.2-0.5,0.3-0.9,0.3-1.1c-0.9,1.3-2,2.5-3.1,3.7
			c-1.1,1.2-2.1,2.1-3.1,2.7c-1,0.7-1.8,1-2.5,1c-0.7,0.1-1.2-0.3-1.4-1.2c-0.1-0.9,0.1-1.8,0.5-2.9c0.5-1.1,1-2.1,1.6-2.9
			c0.9-1.2,1.9-2.3,2.8-3.3c0.9-1,1.9-1.8,2.9-2.5c1-0.7,1.9-1.2,2.9-1.5C254.6,652.7,255.6,652.7,256.6,652.8 M245,665.2
			c0.3,0.1,0.9-0.2,1.7-0.7c0.8-0.6,1.7-1.3,2.7-2.3c1-1,1.9-2.2,2.8-3.5c0.9-1.4,1.6-2.8,2.1-4.3c-0.1,0-0.3,0-0.6,0
			c-0.2,0-0.5,0.1-0.9,0.3c-1.4,0.8-2.6,1.8-3.7,2.9c-1.1,1.1-2,2.2-2.7,3.2c-0.7,1-1.1,2-1.4,2.8
			C244.7,664.3,244.7,664.9,245,665.2"/>
		<path id="path4390" inkscape:connector-curvature="0" class="st11" d="M261.1,651.7c0-0.3,0.2-0.4,0.5-0.2c0.3,0.1,0.6,0.3,1,0.4
			c0,0.8,0,1.4,0,1.8c0,0.4-0.1,0.8-0.1,1.2c0,0.4-0.1,0.8-0.1,1.3c0,0.5-0.1,1.1-0.2,1.8c0.5-0.8,1-1.5,1.5-2.1
			c0.5-0.7,1.2-1.2,1.9-1.7c0.7-0.5,1.6-0.8,2.6-1c1-0.2,2.1-0.3,3.3-0.2c0,0.3-0.2,0.5-0.4,0.7c-0.2,0.2-0.6,0.3-1.3,0.4
			c-1,0.2-1.9,0.5-2.7,1c-0.8,0.5-1.5,1-2.1,1.6c-0.6,0.6-1.1,1.3-1.6,2c-0.5,0.7-0.8,1.3-1.2,1.9c-0.1,0.3-0.2,0.7-0.3,1.3
			c-0.2,0.5-0.3,1.1-0.4,1.7c-0.1,0.6-0.3,1.2-0.4,1.8c-0.1,0.6-0.2,1-0.2,1.3c0,0.2-0.1,0.3-0.3,0.4c-0.2,0.1-0.4,0.1-0.7,0.1
			c-0.2,0-0.4,0-0.6,0c-0.2-0.1-0.2-0.2-0.2-0.3c0.7-3.4,1.2-6.4,1.5-8.8C260.7,655.9,260.9,653.7,261.1,651.7"/>
		<path id="path4392" inkscape:connector-curvature="0" class="st11" d="M281.4,662.5c0,0.1,0,0.2-0.1,0.3c-0.1,0.2-0.2,0.3-0.4,0.5
			c-0.2,0.2-0.3,0.4-0.5,0.6c-0.2,0.2-0.3,0.3-0.4,0.3c-0.9,0.9-1.8,1.7-2.5,2.3c-0.7,0.6-1.4,1.2-1.8,1.6c0,0,0,0.2-0.1,0.5
			c-0.1,0.4-0.1,0.6-0.1,0.6c-0.3,1.1-0.5,2.3-0.8,3.4c-0.2,1.2-0.5,2.3-0.9,3.5c-0.5,1.3-0.9,2.4-1.3,3.2c-0.4,0.8-0.7,1.5-1,2
			c-0.3,0.5-0.6,1-1,1.3c-0.3,0.4-0.6,0.8-1,1.2c-0.3,0.4-0.7,0.7-1.1,0.9c-0.4,0.3-0.8,0.6-1.5,0.9c-0.8,0.5-1.7,0.8-2.5,1
			c-0.9,0.2-1.6,0.3-2.3,0.1c-0.6-0.1-1.1-0.5-1.5-1.1c-0.4-0.6-0.5-1.5-0.3-2.7c0.2-1.3,0.7-2.6,1.5-3.9c0.8-1.3,1.6-2.5,2.6-3.5
			c0.9-1.1,1.8-2,2.6-2.7c0.8-0.7,1.4-1.2,1.7-1.5c0.5-0.5,1-0.9,1.4-1.2c0.4-0.3,0.8-0.6,1.2-0.9c0.4-0.3,0.9-0.6,1.3-0.9
			c0.5-0.3,1.1-0.7,1.7-1.2c0.3-0.8,0.5-1.6,0.7-2.5c0.2-0.9,0.4-1.8,0.5-2.7c-0.8,1.2-1.6,2.2-2.4,2.9c-0.8,0.7-1.5,1.2-2.1,1.6
			c-0.6,0.3-1.1,0.5-1.4,0.6c-0.4,0.1-0.5,0.1-0.4,0.1c-0.6,0.1-1.1,0.1-1.5,0.1c-0.4-0.1-0.6-0.2-0.8-0.3c-0.2-0.2-0.3-0.3-0.4-0.5
			c-0.1-0.2-0.1-0.4-0.1-0.6c0-0.9,0.2-1.7,0.5-2.6c0.4-0.9,0.8-1.8,1.3-2.6c0.5-0.8,1.1-1.6,1.6-2.3c0.5-0.7,1.1-1.3,1.5-1.7
			c0.1-0.1,0.2-0.2,0.5-0.5c0.3-0.3,0.7-0.6,1.2-0.9c0.5-0.4,1-0.7,1.6-1.1c0.6-0.4,1.4-0.7,2.2-1c0.8-0.2,1.6-0.2,2.3-0.2
			c0.8,0,1.4,0.2,1.8,0.5c-0.3,0.1-0.7,0.2-1.3,0.4c-0.5,0.1-0.9,0.2-1.1,0.3l0,0.1c0,0.1,0,0.1,0.1,0.1c-0.5-0.1-1.4,0.1-2.7,0.7
			c-1.3,0.6-2.8,1.7-4.5,3.4c-0.8,0.9-1.4,1.7-1.9,2.4c-0.5,0.7-0.8,1.3-1.1,1.8c-0.2,0.5-0.4,0.9-0.4,1.3c-0.1,0.4-0.1,0.6-0.1,0.8
			c0,0.1,0.1,0.2,0.3,0.3c0.2,0.1,0.4,0.1,0.7,0c0.9-0.2,1.7-0.6,2.6-1.3c0.9-0.7,1.7-1.5,2.5-2.3c0.8-0.9,1.5-1.7,2-2.5
			c0.6-0.8,1-1.5,1.3-2c0.5-0.8,0.7-1.5,0.9-2.1c0.2-0.7,0.2-1,0.1-1c0,0,0,0,0,0c0.1,0,0.1,0,0.1,0c0,0,0,0,0,0c0,0-0.1,0-0.3,0
			c0.1-0.1,0.1-0.1,0.2-0.1c0.1,0,0.1-0.1,0.2-0.1c0,0,0-0.1,0-0.1c0.1-0.1,0.1-0.1,0.2-0.1c0-0.1,0.1-0.1,0.3-0.2l0.3-0.1l0.2-0.1
			c0.1-0.1,0.2-0.1,0.2-0.1c0.1,0,0.1,0,0.1,0c0.1,0,0.1,0,0.2,0.1c0.1,0,0.3,0.1,0.6,0.2c-0.4,0.8-0.9,1.8-1.3,2.9
			c-0.4,1.1-0.8,2.3-1.2,3.4c-0.4,1.2-0.7,2.3-1.1,3.3c-0.3,1-0.6,1.8-0.8,2.4c0.3-0.3,0.7-0.6,1.3-0.9c0.6-0.4,1.1-0.7,1.7-1.1
			C280,663.4,280.7,663,281.4,662.5 M273.6,670.6c0.3-0.8,0.3-1.2,0.2-1.4c-0.1-0.1-0.1-0.1-0.2-0.1c-1,0.7-1.8,1.3-2.5,1.8
			c-0.6,0.5-1.1,0.8-1.3,1c-1.8,1.5-3.3,2.8-4.3,3.9c-1,1.2-1.7,2.2-2.1,3.2c-0.5,1.1-0.9,2-1.1,2.8c-0.2,0.8-0.2,1.6,0.1,2.4
			c0.7,0.6,1.6,0.7,2.6,0.3c1-0.4,2-0.9,3-1.7c1.2-1.1,2.2-2.6,3.2-4.6C272.1,676.3,273,673.8,273.6,670.6"/>
		<path id="path4394" inkscape:connector-curvature="0" class="st11" d="M286.5,653.4c0.1,0,0.4-0.1,0.9-0.2
			c0.5-0.2,0.9-0.2,1.1-0.1c0.9,0,1.6,0.2,2,0.7c0.4,0.5,0.3,1.6-0.4,3.1c-1,1.7-2.1,3.1-3.3,4.2s-2.6,2.2-4.2,3.2
			c0.1,0.9,0.5,1.3,1.1,1.4c0.6,0.1,1.4,0,2.1-0.3c0.8-0.3,1.6-0.8,2.3-1.3c0.8-0.5,1.4-1,1.9-1.4c0.8-0.6,1.4-1.1,1.9-1.5
			c0.5-0.4,1-0.9,1.6-1.5c0.1-0.1,0.1,0,0.1,0c0,0.1,0,0.2-0.1,0.3c-0.1,0.2-0.1,0.4-0.2,0.7c-0.2,0.2-0.3,0.4-0.4,0.6
			c-0.1,0.2-0.3,0.4-0.5,0.6c-0.2,0.2-0.5,0.4-0.9,0.7c-0.3,0.3-0.7,0.7-1.3,1.2c-0.6,0.5-1.1,0.9-1.7,1.4c-0.5,0.4-1.1,0.8-1.6,1.1
			c-0.5,0.3-1.1,0.6-1.8,0.7c-0.6,0.1-1.3,0.1-2,0c-0.6-0.2-1.1-0.5-1.5-0.7c-0.3-0.3-0.6-0.5-0.7-0.8c-0.1-0.3-0.2-0.6-0.3-0.8
			c0-0.2,0-0.4,0-0.6c0-0.7,0.1-1.6,0.3-2.7c0.3-1.1,0.9-2.6,1.8-4.4c0.6-0.9,1.2-1.7,1.8-2.3C285.1,654.3,285.8,653.7,286.5,653.4
			 M282.7,662.2c0.5-0.2,1.1-0.5,1.7-0.9c0.6-0.4,1.3-0.9,1.8-1.4c0.6-0.6,1.2-1.2,1.6-1.8c0.5-0.7,0.9-1.4,1.1-2.1
			c0.2-0.5,0.2-0.8,0.1-1c-0.1-0.1-0.1-0.1-0.2-0.1c-0.5-0.3-1.1-0.2-1.7,0.2c-0.6,0.4-1.2,1-1.8,1.8c-0.6,0.8-1.2,1.7-1.7,2.7
			C283.1,660.4,282.8,661.3,282.7,662.2"/>
		<path id="path4396" inkscape:connector-curvature="0" class="st11" d="M296.8,652.3c-0.2,0.9-0.4,1.9-0.6,2.8
			c-0.2,0.9-0.4,1.8-0.6,2.7c-0.2,0.9-0.3,1.7-0.5,2.4s-0.3,1.4-0.5,2c0-0.1,0.2-0.4,0.4-0.9c0.3-0.5,0.6-1.1,1-1.8
			c0.4-0.7,0.8-1.4,1.3-2.1c0.5-0.8,0.9-1.4,1.4-2c0.5-0.6,0.9-1.1,1.4-1.4c0.5-0.3,0.8-0.4,1.1-0.3c0.6,0.3,1.1,0.8,1.2,1.4
			c0.2,0.6,0.3,1.4,0.2,2.2c0,0.8-0.1,1.7-0.1,2.7c-0.1,1,0,2,0.2,3.1c0.1,0.5,0.3,0.9,0.6,1.1c0.3,0.2,0.6,0.4,1,0.5
			c0.3,0.1,0.6,0.2,0.8,0.2c0.2,0,0.3,0,0.2,0.1c-0.9,0.6-1.6,0.8-2.2,0.6c-0.5-0.2-1-0.6-1.3-1.3c-0.3-0.7-0.4-1.5-0.5-2.4
			c-0.1-1-0.1-1.9-0.2-2.7c0-0.9-0.1-1.6-0.1-2.2c0-0.6-0.1-0.9-0.3-0.9c-0.3,0-0.7,0.3-1.2,0.8c-0.4,0.5-0.9,1.2-1.4,2
			c-0.5,0.8-1,1.7-1.6,2.6c-0.5,0.9-1,1.8-1.4,2.6c-0.4,0.8-0.8,1.5-1.1,2.1c-0.3,0.6-0.4,1-0.5,1.1c-0.5,0-0.8,0-0.9,0
			c-0.1,0-0.2-0.1-0.4-0.5c0.7-2.9,1.3-5.7,1.7-8.3c0.5-2.6,0.9-4.9,1.1-6.8c0.1-0.3,0.2-0.4,0.3-0.4c0.2,0,0.3,0.1,0.5,0.2
			c0.2,0.1,0.3,0.3,0.5,0.4S296.6,652.3,296.8,652.3"/>
		<path id="path4398" inkscape:connector-curvature="0" class="st11" d="M311.5,652.6c1.4-0.1,2.8-0.2,4.1-0.3
			c1.4-0.1,2.8-0.3,4.3-0.4c0.3,0,0.5,0.2,0.5,0.5c0,0.3-0.1,0.5-0.5,0.5c-1.2,0.1-2.7,0.3-4.3,0.5c-1.6,0.2-3.1,0.5-4.6,0.9
			c-0.1,1-0.3,2.1-0.5,3.2c-0.2,1.1-0.4,2.1-0.5,3.2c-0.2,1-0.3,2-0.3,3c0,1,0,1.9,0.2,2.7c0.3,0.6,0.7,0.9,1.1,1
			c0.5,0.1,0.9,0.1,1.3-0.1c0.5-0.1,0.9-0.3,1.3-0.6c0.4-0.3,0.8-0.6,1.1-0.9c0.3-0.2,0.5-0.2,0.6,0c0.1,0.2-0.1,0.6-0.6,1
			c-0.2,0.2-0.5,0.5-0.9,0.7c-0.3,0.3-0.7,0.5-1.2,0.6c-0.5,0.2-0.9,0.3-1.5,0.3c-0.5,0.1-1,0-1.6-0.1c-0.7-0.2-1.1-0.8-1.3-1.8
			s-0.2-2.2-0.1-3.6c0.1-1.4,0.3-2.8,0.5-4.3c0.2-1.5,0.4-2.8,0.5-4c-1.5,0.1-2.5,0.2-3.2,0.3c-0.7,0.1-1.2,0.2-1.5,0.2
			c-0.3,0-0.5,0-0.6,0c-0.1-0.1-0.2-0.2-0.4-0.4c0.1-0.2,0.1-0.3,0.1-0.4c0-0.2,0.1-0.3,0.1-0.4c0-0.1,0.1-0.2,0.2-0.3
			c0.1-0.1,0.4-0.2,0.7-0.2c0.5-0.1,1.2-0.2,2.1-0.2c0.9,0,1.8-0.1,2.7-0.2c0.2-1.1,0.3-1.9,0.4-2.5c0.1-0.6,0.2-1.1,0.2-1.5
			c0.1-0.5,0.1-0.9,0.2-1.3c0.1-0.4,0.2-1,0.3-1.7c0-0.2,0.1-0.3,0.3-0.3c0.2-0.1,0.4-0.1,0.6-0.1c0.2,0,0.4,0,0.6,0.1
			c0.2,0.1,0.3,0.2,0.3,0.3c0,0.3,0,0.7-0.1,1.3c-0.1,0.6-0.2,1.2-0.3,1.8c-0.1,0.6-0.2,1.3-0.3,1.9
			C311.7,651.6,311.6,652.2,311.5,652.6"/>
		<path id="path4400" inkscape:connector-curvature="0" class="st11" d="M323,645.6c0.3-0.1,0.5,0.1,0.4,0.6c0,0.5-0.1,0.8-0.4,1
			c-0.4,0.3-0.7,0.6-0.8,0.8c-0.1,0.2-0.4,0.3-0.7,0.4c-0.2,0-0.4,0-0.5,0c-0.1,0-0.2-0.3-0.2-0.8c0.2-0.4,0.5-0.7,0.8-1.1
			C321.9,646.1,322.4,645.8,323,645.6 M321.8,652c-0.2,1.6-0.4,3.4-0.7,5.3c-0.3,1.9-0.5,3.9-0.8,6c-0.1,1.1-0.1,1.9-0.1,2.5
			c0,0.6,0,1.2,0,1.7c-0.5,0.1-1,0.1-1.2,0c-0.3-0.1-0.5-0.3-0.7-0.4c0-0.5,0.1-1.4,0.3-2.6c0.2-1.2,0.3-2.6,0.5-4
			c0.2-1.5,0.4-2.9,0.6-4.2c0.2-1.4,0.3-2.4,0.4-3.2c0.2-0.1,0.3-0.2,0.4-0.3c0.1-0.1,0.2-0.2,0.3-0.3c0.1-0.1,0.3-0.2,0.4-0.2
			C321.4,652,321.6,652,321.8,652"/>
		<path id="path4402" inkscape:connector-curvature="0" class="st11" d="M328.3,652.3c-0.2,0.9-0.4,1.9-0.6,2.8
			c-0.2,0.9-0.4,1.8-0.6,2.7c-0.2,0.9-0.3,1.7-0.5,2.4s-0.3,1.4-0.5,2c0-0.1,0.2-0.4,0.4-0.9c0.3-0.5,0.6-1.1,1-1.8
			c0.4-0.7,0.8-1.4,1.3-2.1c0.5-0.8,0.9-1.4,1.4-2c0.5-0.6,0.9-1.1,1.4-1.4c0.5-0.3,0.8-0.4,1.1-0.3c0.6,0.3,1.1,0.8,1.2,1.4
			c0.2,0.6,0.3,1.4,0.2,2.2c0,0.8-0.1,1.7-0.1,2.7c-0.1,1,0,2,0.2,3.1c0.1,0.5,0.3,0.9,0.6,1.1c0.3,0.2,0.6,0.4,1,0.5
			c0.3,0.1,0.6,0.2,0.8,0.2c0.2,0,0.3,0,0.2,0.1c-0.9,0.6-1.6,0.8-2.2,0.6c-0.5-0.2-1-0.6-1.3-1.3c-0.3-0.7-0.4-1.5-0.5-2.4
			c-0.1-1-0.1-1.9-0.2-2.7c0-0.9-0.1-1.6-0.1-2.2c0-0.6-0.1-0.9-0.3-0.9c-0.3,0-0.7,0.3-1.2,0.8c-0.4,0.5-0.9,1.2-1.4,2
			c-0.5,0.8-1,1.7-1.6,2.6c-0.5,0.9-1,1.8-1.4,2.6c-0.4,0.8-0.8,1.5-1.1,2.1c-0.3,0.6-0.4,1-0.5,1.1c-0.5,0-0.8,0-0.9,0
			c-0.1,0-0.2-0.1-0.4-0.5c0.7-2.9,1.3-5.7,1.7-8.3c0.5-2.6,0.9-4.9,1.1-6.8c0.1-0.3,0.2-0.4,0.3-0.4c0.2,0,0.3,0.1,0.5,0.2
			c0.2,0.1,0.3,0.3,0.5,0.4C328,652.2,328.2,652.3,328.3,652.3"/>
		<path id="path4404" inkscape:connector-curvature="0" class="st11" d="M349.1,652.8c-0.1,0.2-0.2,0.6-0.5,1.2
			c-0.2,0.6-0.5,1.4-0.8,2.2c-0.3,0.8-0.6,1.7-0.9,2.6c-0.3,0.9-0.5,1.8-0.7,2.6c-0.2,0.8-0.2,1.5-0.2,2.1c0,0.6,0.1,0.9,0.3,1
			c0.7,0.4,1.5,0.2,2.3-0.3c0.9-0.6,2-1.6,3.3-2.8c0.1,0,0.1,0.1-0.1,0.4c-0.1,0.3-0.3,0.6-0.5,0.9c-0.2,0.3-0.5,0.6-0.7,0.9
			c-0.2,0.3-0.4,0.5-0.5,0.6c-0.3,0.3-0.8,0.7-1.4,1.1c-0.5,0.4-1.1,0.7-1.7,1c-0.6,0.2-1.1,0.3-1.6,0.3c-0.5,0-0.8-0.3-1.1-0.9
			c-0.1-0.4-0.1-0.9,0-1.4c0.1-0.6,0.2-1.2,0.4-1.8s0.3-1.1,0.5-1.6c0.2-0.5,0.3-0.9,0.3-1.1c-0.9,1.3-2,2.5-3.1,3.7
			c-1.1,1.2-2.1,2.1-3.1,2.7c-1,0.7-1.8,1-2.5,1c-0.7,0.1-1.2-0.3-1.4-1.2c-0.1-0.9,0.1-1.8,0.5-2.9c0.5-1.1,1-2.1,1.6-2.9
			c0.9-1.2,1.9-2.3,2.8-3.3c0.9-1,1.9-1.8,2.9-2.5s1.9-1.2,2.9-1.5C347.1,652.7,348.1,652.7,349.1,652.8 M337.5,665.2
			c0.3,0.1,0.9-0.2,1.7-0.7s1.7-1.3,2.7-2.3c1-1,1.9-2.2,2.8-3.5c0.9-1.4,1.6-2.8,2.1-4.3c-0.1,0-0.3,0-0.6,0
			c-0.2,0-0.5,0.1-0.9,0.3c-1.4,0.8-2.6,1.8-3.7,2.9c-1.1,1.1-2,2.2-2.7,3.2c-0.7,1-1.1,2-1.4,2.8
			C337.2,664.3,337.2,664.9,337.5,665.2"/>
	</g>
</g>
</svg>
